<?xml version="1.0" encoding="UTF-8"?>
<svg width="35px" height="33px" viewBox="0 0 35 33" version="1.1" xmlns="http://www.w3.org/2000/svg" xmlns:xlink="http://www.w3.org/1999/xlink">
    <!-- Generator: Sketch 50.2 (55047) - http://www.bohemiancoding.com/sketch -->
    <title>Emotion_1</title>
    <desc>Created with Sketch.</desc>
    <defs>
        <polygon id="path-1" points="0 15.0002078 0 30 29.9995946 30 29.9995946 15.0002078 29.9995946 0.000415540541 0 0.000415540541 0 15.0002078"></polygon>
    </defs>
    <g id="Emotion_1" stroke="none" stroke-width="1" fill="none" fill-rule="evenodd">
        <g transform="translate(3.000000, 1.000000)">
            <g id="Group-3">
                <mask id="mask-2" fill="white">
                    <use xlink:href="#path-1"></use>
                </mask>
                <g id="Clip-2"></g>
                <path d="M14.9997973,0.000415540541 C23.2705743,0.000415540541 29.9995946,6.72933446 29.9995946,15.0002128 C29.9995946,23.2709899 23.2705743,30.0000101 14.9997973,30.0000101 C6.72891892,30.0000101 0,23.2709899 0,15.0002128 C0,6.72933446 6.72891892,0.000415540541 14.9997973,0.000415540541 Z M14.9997973,28.3783885 C22.3765541,28.3783885 28.377973,22.3769696 28.377973,15.0002128 C28.377973,12.9364966 27.9080068,10.9805169 27.0698311,9.23332095 C26.3331081,7.69764527 25.3113851,6.32372635 24.0740878,5.1796723 C21.6876689,2.97284797 18.49875,1.62203716 14.9997973,1.62203716 C7.62304054,1.62203716 1.62162162,7.62345608 1.62162162,15.0002128 C1.62162162,17.2349088 2.17317568,19.3430169 3.1460473,21.1966318 C3.78486486,22.4138615 4.60530405,23.5214291 5.57179054,24.4824426 C7.99206081,26.8889291 11.3251014,28.3783885 14.9997973,28.3783885 Z" id="Fill-1" fill="#000000" mask="url(#mask-2)"></path>
                <path d="M5.57179054,24.4824426 C4.60530405,23.5214291 3.78486486,22.4138615 3.1460473,21.1966318 C2.17317568,19.3430169 1.62162162,17.2349088 1.62162162,15.0002128 C1.62162162,7.62345608 7.62304054,1.62203716 14.9997973,1.62203716 C18.49875,1.62203716 21.6876689,2.97284797 24.0740878,5.1796723 C25.3113851,6.32372635 26.3331081,7.69764527 27.0698311,9.23332095 C27.9080068,10.9805169 28.377973,12.9364966 28.377973,15.0002128 C28.377973,22.3769696 22.3765541,28.3783885 14.9997973,28.3783885 C11.3251014,28.3783885 7.99206081,26.8889291 5.57179054,24.4824426 Z" id="Path" fill="#FB5319"></path>
            </g>
            <path d="M10.2,9.6 C11.19405,9.6 12,10.40595 12,11.4 C12,12.39405 11.19405,13.2 10.2,13.2 C9.20595,13.2 8.4,12.39405 8.4,11.4 C8.4,10.40595 9.20595,9.6 10.2,9.6" id="Fill-4" fill="#000000"></path>
            <path d="M19.8,9.6 C20.7941625,9.6 21.6,10.40595 21.6,11.4 C21.6,12.39405 20.7941625,13.2 19.8,13.2 C18.8058375,13.2 18,12.39405 18,11.4 C18,10.40595 18.8058375,9.6 19.8,9.6" id="Fill-6" fill="#000000"></path>
            <path d="M21.0045002,20.9431968 C21.1268187,21.1557522 21.2395671,21.3765092 21.3397546,21.5998047 L22.8,20.9713162 C22.6785787,20.700862 22.541905,20.4330441 22.3937671,20.1758686 C20.6968598,17.2282114 17.3695379,15.4361842 13.9188009,15.611833 C10.4911918,15.7856266 7.38288671,17.8893107 6,20.9713162 L7.46024542,21.6 C8.6027818,19.0535327 11.170174,17.3155964 14.0011441,17.1719726 C16.8495597,17.0269818 19.6021742,18.5075473 21.0045002,20.9431968" id="Fill-8" fill="#000000"></path>
            <polygon id="Fill-10" fill="#000000" points="10.555874 6 13.2 8.12814983 12.244126 9.6 9.6 7.47185017"></polygon>
            <polygon id="Fill-12" fill="#000000" points="19.444153 6 20.4 7.47185017 17.755847 9.6 16.8 8.12814983"></polygon>
        </g>
    </g>
</svg>