<?xml version="1.0" encoding="UTF-8"?>
<svg width="35px" height="33px" viewBox="0 0 35 33" version="1.1" xmlns="http://www.w3.org/2000/svg" xmlns:xlink="http://www.w3.org/1999/xlink">
    <!-- Generator: Sketch 50.2 (55047) - http://www.bohemiancoding.com/sketch -->
    <title>Emotion_2</title>
    <desc>Created with Sketch.</desc>
    <defs>
        <polygon id="path-1" points="0 15.0002078 0 30 29.9995946 30 29.9995946 15.0002078 29.9995946 0.000415540541 0 0.000415540541 0 15.0002078"></polygon>
    </defs>
    <g id="Emotion_2" stroke="none" stroke-width="1" fill="none" fill-rule="evenodd">
        <g transform="translate(3.000000, 1.000000)">
            <g id="Group-3">
                <mask id="mask-2" fill="white">
                    <use xlink:href="#path-1"></use>
                </mask>
                <g id="Clip-2"></g>
                <path d="M14.9997973,28.3783885 C11.3252027,28.3783885 7.99206081,26.8889291 5.57189189,24.4824426 C4.60540541,23.5214291 3.78496622,22.4138615 3.14614865,21.1966318 C2.17317568,19.3430169 1.62162162,17.2349088 1.62162162,15.0002128 C1.62162162,7.62345608 7.62304054,1.62203716 14.9997973,1.62203716 C18.49875,1.62203716 21.6876689,2.97284797 24.0740878,5.1796723 C25.3113851,6.32372635 26.3331081,7.69764527 27.0698311,9.23332095 C27.9080068,10.9805169 28.377973,12.9364966 28.377973,15.0002128 C28.377973,22.3769696 22.3765541,28.3783885 14.9997973,28.3783885 M14.9997973,0.000415540541 C6.72891892,0.000415540541 0,6.72933446 0,15.0002128 C0,23.2709899 6.72891892,30.0000101 14.9997973,30.0000101 C23.2705743,30.0000101 29.9995946,23.2709899 29.9995946,15.0002128 C29.9995946,6.72933446 23.270777,0.000415540541 14.9997973,0.000415540541" id="Fill-1" fill="#000000" mask="url(#mask-2)"></path>
                <path d="M14.9997973,28.3783885 C11.3252027,28.3783885 7.99206081,26.8889291 5.57189189,24.4824426 C4.60540541,23.5214291 3.78496622,22.4138615 3.14614865,21.1966318 C2.17317568,19.3430169 1.62162162,17.2349088 1.62162162,15.0002128 C1.62162162,7.62345608 7.62304054,1.62203716 14.9997973,1.62203716 C18.49875,1.62203716 21.6876689,2.97284797 24.0740878,5.1796723 C25.3113851,6.32372635 26.3331081,7.69764527 27.0698311,9.23332095 C27.9080068,10.9805169 28.377973,12.9364966 28.377973,15.0002128 C28.377973,22.3769696 22.3765541,28.3783885 14.9997973,28.3783885" id="Path" fill="#FFD027"></path>
            </g>
            <path d="M10.1012838,10.1349324 C10.9968243,10.1349324 11.7229054,10.8610135 11.7229054,11.7565541 C11.7229054,12.6520946 10.9968243,13.3781757 10.1012838,13.3781757 C9.20574324,13.3781757 8.47966216,12.6520946 8.47966216,11.7565541 C8.47966216,10.8610135 9.20574324,10.1349324 10.1012838,10.1349324" id="Fill-4" fill="#000000"></path>
            <path d="M20.1350676,10.1349324 C21.0307095,10.1349324 21.7566892,10.8610135 21.7566892,11.7565541 C21.7566892,12.6520946 21.0307095,13.3781757 20.1350676,13.3781757 C19.2394257,13.3781757 18.5134459,12.6520946 18.5134459,11.7565541 C18.5134459,10.8610135 19.2394257,10.1349324 20.1350676,10.1349324" id="Fill-6" fill="#000000"></path>
            <path d="M14.9071272,23.3293627 C18.0443569,23.3293627 21.0832149,22.2858977 22.8171767,20.5425378 L21.6418156,19.3224663 C20.8479001,20.1360681 17.7728483,21.5908349 14.0206656,21.40555 C11.6742831,21.2896843 9.14373408,20.1246351 8.27588471,19.2 L7.2,20.5425378 C8.99126032,22.1484116 11.7186993,23.0579117 13.8569245,23.26916 C14.0959,23.2927698 14.4459675,23.3128374 14.9071272,23.3293627 Z" id="Fill-8" fill="#000000" transform="translate(15.008588, 21.264681) scale(1, -1) translate(-15.008588, -21.264681) "></path>
        </g>
    </g>
</svg>