<?xml version="1.0" encoding="UTF-8"?>
<svg width="35px" height="33px" viewBox="0 0 35 33" version="1.1" xmlns="http://www.w3.org/2000/svg" xmlns:xlink="http://www.w3.org/1999/xlink">
    <!-- Generator: Sketch 50.2 (55047) - http://www.bohemiancoding.com/sketch -->
    <title>4</title>
    <desc>Created with Sketch.</desc>
    <defs>
        <polygon id="path-1" points="0 30 29.9995946 30 29.9995946 15.0002078 29.9995946 0.000415540541 0 0.000415540541 0 15.0002078"></polygon>
    </defs>
    <g id="4" stroke="none" stroke-width="1" fill="none" fill-rule="evenodd">
        <g id="Emotion_4" transform="translate(3.000000, 2.000000)">
            <g id="Page-1-Copy">
                <g id="Group-3">
                    <mask id="mask-2" fill="white">
                        <use xlink:href="#path-1"></use>
                    </mask>
                    <g id="Clip-2"></g>
                    <path d="M14.9997973,28.3783885 C11.3251014,28.3783885 7.99206081,26.8889291 5.57179054,24.4824426 C4.60530405,23.5214291 3.78486486,22.4138615 3.1460473,21.1966318 C2.17317568,19.3430169 1.62162162,17.2349088 1.62162162,15.0002128 C1.62162162,7.62345608 7.62304054,1.62203716 14.9997973,1.62203716 C18.49875,1.62203716 21.6876689,2.97284797 24.0740878,5.1796723 C25.3113851,6.32372635 26.3331081,7.69764527 27.0698311,9.23332095 C27.9080068,10.9805169 28.377973,12.9364966 28.377973,15.0002128 C28.377973,22.3769696 22.3765541,28.3783885 14.9997973,28.3783885 M14.9997973,0.000415540541 C6.72891892,0.000415540541 0,6.72933446 0,15.0002128 C0,23.2709899 6.72891892,30.0000101 14.9997973,30.0000101 C23.2705743,30.0000101 29.9995946,23.2709899 29.9995946,15.0002128 C29.9995946,6.72933446 23.270777,0.000415540541 14.9997973,0.000415540541" id="Fill-1" fill="#000000" mask="url(#mask-2)"></path>
                    <path d="M14.9997973,28.3783885 C11.3251014,28.3783885 7.99206081,26.8889291 5.57179054,24.4824426 C4.60530405,23.5214291 3.78486486,22.4138615 3.1460473,21.1966318 C2.17317568,19.3430169 1.62162162,17.2349088 1.62162162,15.0002128 C1.62162162,7.62345608 7.62304054,1.62203716 14.9997973,1.62203716 C18.49875,1.62203716 21.6876689,2.97284797 24.0740878,5.1796723 C25.3113851,6.32372635 26.3331081,7.69764527 27.0698311,9.23332095 C27.9080068,10.9805169 28.377973,12.9364966 28.377973,15.0002128 C28.377973,22.3769696 22.3765541,28.3783885 14.9997973,28.3783885" id="Path" fill="#FFD237"></path>
                </g>
                <path d="M9.47368421,11.8622438 C10.3331929,11.8622438 11.0324931,12.5215668 11.0324931,13.4210526 L12.6315789,13.4210526 C12.6315789,11.622081 11.2149888,10.2631579 9.47368421,10.2631579 C7.73237966,10.2631579 6.31578947,11.622081 6.31578947,13.4210526 L7.91487533,13.4210526 C7.91487533,12.5215668 8.61427551,11.8622438 9.47368421,11.8622438" id="Fill-4" fill="#000000"></path>
                <path d="M19.7368421,11.8622438 C20.5963508,11.8622438 21.295651,12.5215668 21.295651,13.4210526 L22.8947368,13.4210526 C22.8947368,11.622081 21.4781467,10.2631579 19.7368421,10.2631579 C17.9955376,10.2631579 16.5789474,11.622081 16.5789474,13.4210526 L18.1780332,13.4210526 C18.1780332,12.5215668 18.8773335,11.8622438 19.7368421,11.8622438" id="Fill-6" fill="#000000"></path>
            </g>
            <path d="M22.8,16.8 C22.8,21.1078 19.3078,24.5998991 15,24.5998991 C10.6922,24.5998991 7.2,21.1078 7.2,16.8 L15,16.8 L22.8,16.8 Z M21.1209434,18.0409728 L14.999754,18.0409728 L8.77850105,18.0409728 C8.77850105,19.5266091 11.3080648,23.286637 14.999754,23.286637 C18.2126587,23.286637 21.1209434,19.8185169 21.1209434,18.0409728 Z" id="Combined-Shape" fill="#000000"></path>
        </g>
    </g>
</svg>