<svg id="Layer_2" data-name="Layer 2" xmlns="http://www.w3.org/2000/svg" viewBox="0 0 814.5 491.87"><defs><style>.cls-1,.cls-119{fill:#606060;}.cls-1{opacity:0.3;}.cls-2{fill:#1a93a8;}.cls-2,.cls-3,.cls-4{opacity:0.43;}.cls-3{fill:#1395a8;}.cls-4{fill:#00bc78;}.cls-5{fill:#dcabff;}.cls-5,.cls-6{opacity:0.46;}.cls-6{fill:#ffaed5;}.cls-7{fill:#6d3719;}.cls-8{fill:#8e5f3a;}.cls-9{fill:#0b3396;}.cls-10{fill:#eff0f2;}.cls-11{fill:#f8f8f8;}.cls-12{fill:#1695a9;}.cls-13{fill:#dbdce0;}.cls-14{fill:#abbcef;}.cls-15{fill:#5c4b51;}.cls-16{fill:#f8d9bb;}.cls-17{fill:#2c3550;}.cls-18{fill:#21293d;}.cls-19{fill:#1f2534;}.cls-20{fill:#353130;}.cls-21{fill:#514846;}.cls-22{fill:#ce8c62;}.cls-23{fill:#eef0f0;}.cls-24{fill:#eee;}.cls-25{fill:#fff;}.cls-26{fill:#c7c7c7;}.cls-27{fill:#f27c77;}.cls-28{fill:#f1f1f2;}.cls-29{fill:#6f6eb2;}.cls-30{fill:#299fd2;}.cls-31{fill:#7768ac;}.cls-32{fill:#f38e8b;}.cls-33{fill:#ee548d;}.cls-34{fill:#ffc953;}.cls-35{fill:#edeeef;}.cls-36{fill:#eaeae9;}.cls-37{fill:#99999a;}.cls-38{fill:#838487;}.cls-39{fill:#959595;}.cls-40{fill:#e9e9ea;}.cls-41{fill:#ececed;}.cls-42{fill:#888;}.cls-43{fill:#aeaeae;}.cls-44{fill:#0d0b0b;}.cls-45{fill:#282929;}.cls-46{fill:#3b3c3c;}.cls-47{fill:#cac9c9;}.cls-48{fill:#dcdcdb;}.cls-49{fill:#eabb8e;}.cls-50{fill:#e9be8d;}.cls-51{fill:#8f7256;}.cls-52{fill:#ffd9a4;}.cls-53{fill:#0b3d46;}.cls-54{fill:#fae6d5;}.cls-55{fill:#07262c;}.cls-56{fill:#aacccd;}.cls-57{fill:#f4b79e;}.cls-58{fill:#dfeff5;}.cls-59{fill:#efaf99;opacity:0.75;}.cls-60{fill:#403535;}.cls-61{fill:#b7b7b7;}.cls-62{fill:#f5faf9;}.cls-63{fill:#4f5150;}.cls-64{fill:none;stroke:#f5faf9;stroke-miterlimit:10;stroke-width:0.25px;}.cls-65{fill:#f3f4f5;}.cls-66{fill:#d6d8d6;}.cls-67{fill:#b8b8b8;}.cls-68{fill:#d1d1d1;}.cls-69{fill:#a2a1a0;}.cls-70{fill:#525453;}.cls-71{fill:#ffedc1;}.cls-72{fill:#555;}.cls-73{fill:#5f6060;}.cls-74{fill:#ebd7ab;}.cls-75{fill:#fdfcef;}.cls-76{fill:#0e4f83;}.cls-77{fill:#959693;}.cls-78{fill:#623215;}.cls-79{fill:#e4d0a0;}.cls-80{fill:#969593;}.cls-81{fill:#d3d4db;}.cls-82,.cls-83{fill:#65c9d9;}.cls-82{opacity:0.53;}.cls-83{opacity:0.8;}.cls-84{fill:#797979;}.cls-85{fill:#a4a4a4;}.cls-86{fill:#666467;}.cls-87{fill:#95969a;}.cls-88{fill:#424146;}.cls-89{fill:#686669;}.cls-90{fill:#bcbcbc;}.cls-91{fill:#e0e0e0;}.cls-92{fill:#6c6a6d;}.cls-93{fill:#5f5b5a;}.cls-94{fill:#0f294a;}.cls-95{fill:#bdbfc6;}.cls-96{fill:#827155;}.cls-97{fill:#dc6a67;}.cls-98{fill:#fce5c1;}.cls-99{fill:#3d3b46;}.cls-100{fill:#868686;}.cls-101{fill:#d0c3b2;}.cls-102{fill:#a19d94;}.cls-103{fill:#eec4a4;}.cls-104{fill:#2d1a12;}.cls-105{fill:#e3b18f;}.cls-106{fill:#766f64;}.cls-107{fill:#705538;}.cls-108{fill:#006da1;}.cls-109{fill:#4d4338;}.cls-110{fill:#fcf8da;}.cls-111{fill:#56b7bf;}.cls-112{fill:#3a8b83;}.cls-113{fill:#b4dbe5;}.cls-114{fill:#2e6f62;}.cls-115{fill:#00c5a4;}.cls-116{fill:#efd128;}.cls-117{fill:#ee3a2f;}.cls-118{fill:#3396d6;}.cls-120{fill:#e9d200;}</style></defs><title>f1</title><polygon class="cls-1" points="0.5 248.87 394.5 475.87 814.5 233.87 420.5 6.87 0.5 248.87"/><polygon class="cls-2" points="394.5 491.87 814.5 248.87 814.5 233.87 394.5 475.87 394.5 491.87"/><polygon class="cls-3" points="0.5 248.87 0.5 263.87 394.5 491.87 394.5 475.87 0.5 248.87"/><polyline class="cls-4" points="420.88 8.34 144 166.37 407.76 318.94 539.02 394.72 394 475.37 0 248.37"/><polygon class="cls-5" points="407.76 318.94 683.37 159.86 814 233.37 539 394.37 407.76 318.94"/><polygon class="cls-6" points="420.5 6.87 683 159.37 408 319.37 144 166.37 420.5 6.87"/><polygon class="cls-7" points="675.6 202.6 674.71 223.61 698.09 212.36 698.09 191.06 675.6 202.6"/><polygon class="cls-8" points="695.43 188.39 741 217.69 718.21 229.23 675.3 202.89 695.43 188.39"/><polygon class="cls-9" points="700.46 175.37 700.46 195.2 722.95 210 721.47 188.39 700.46 175.37"/><polygon class="cls-10" points="706.08 200.82 702.53 203.19 713.77 210 717.62 208.52 706.08 200.82"/><polygon class="cls-11" points="701.94 179.22 719.4 189.28 720.58 206.15 701.94 194.61 701.94 179.22"/><polygon class="cls-12" points="703.12 187.21 711.58 197.26 712.29 198.75 718.51 198.75 703.12 187.21"/><polygon class="cls-13" points="706.72 199.32 707.56 204.97 713.77 207.92 715.3 204.97 706.72 199.32"/><polygon class="cls-8" points="718.51 229.23 717.62 250.24 741 239 741 217.69 718.51 229.23"/><path class="cls-8" d="M903.3,529.52" transform="translate(-228 -326.63)"/><polygon class="cls-7" points="616.61 231.36 615.62 254.74 641.63 242.22 641.63 218.51 616.61 231.36"/><polygon class="cls-8" points="638.67 215.55 689.38 248.15 664.02 260.99 616.28 231.69 638.67 215.55"/><polygon class="cls-14" points="644.27 201.06 644.27 223.12 669.29 239.59 667.65 215.55 644.27 201.06"/><polygon class="cls-10" points="650.52 229.38 646.57 232.01 659.09 239.59 663.37 237.94 650.52 229.38"/><polygon class="cls-11" points="645.91 205.34 665.34 216.54 666.66 235.31 645.91 222.47 645.91 205.34"/><polygon class="cls-12" points="647.23 214.23 656.64 225.42 657.44 227.07 664.35 227.07 647.23 214.23"/><polygon class="cls-13" points="651.24 227.71 652.17 233.99 659.09 237.28 660.78 233.99 651.24 227.71"/><polygon class="cls-8" points="664.35 260.99 663.37 284.37 689.38 271.86 689.38 248.15 664.35 260.99"/><path class="cls-8" d="M844.28,558.31" transform="translate(-228 -326.63)"/><polyline class="cls-15" points="623.75 219.6 627.07 231.38 632.59 235.06 634.79 226.96 639.21 225.86 638.48 220.71 635.53 217.03 634.43 214.82 630.01 213.72"/><polygon class="cls-16" points="637.37 228.13 638.11 233.59 637.37 237.27 631.85 239.11 626.7 235.06 627.07 231.38 637.37 228.13"/><polygon class="cls-15" points="627.8 215.19 623.75 228.8 632.59 235.06 639.95 224.39 634.43 215.19 627.8 215.19"/><polygon class="cls-17" points="655.77 256.77 655.77 271.12 648.78 272.23 647.67 261.19 655.77 256.77"/><path class="cls-18" d="M871.63,583.4l7.73-3.31,4.42,3.31s-12.14,9.57-12.14,7.36Z" transform="translate(-228 -326.63)"/><polygon class="cls-19" points="627.07 231.38 622.28 231.38 618.6 236.16 641.05 250.88 643.63 256.77 643.63 242.79 637.37 237.27 631.85 238.37 627.43 233.22 627.07 231.38"/><polygon class="cls-20" points="618.6 236.16 613.45 239.11 614.19 258.24 641.42 274.44 639.95 253.46 636.27 249.41 617.5 239.84 618.6 236.16"/><polygon class="cls-21" points="618.6 236.16 641.42 250.88 643.63 256.77 643.63 269.65 643.63 272.23 641.42 274.44 639.95 253.46 636.27 249.41 617.13 239.84 618.6 236.16"/><path class="cls-21" d="M871.63,588.73c.74-.18,4.42-.91,4.42-.91v6.62l-4.42,1.84v2.58l7.73-4.78-1.1-8.1-2.94-1.1-3.68,1.35Z" transform="translate(-228 -326.63)"/><polygon class="cls-20" points="625.23 264.13 625.23 279.96 632.22 284.37 635.9 281.06 634.16 270.12 625.23 264.13"/><polygon class="cls-19" points="643.63 250.02 644.36 249.78 648.78 252.36 643.63 255.7 643.63 250.02"/><polygon class="cls-22" points="644.36 249.78 648.04 245 648.04 247.57 652.09 244.26 652.83 244.63 650.99 246.84 653.56 245 654.67 245.73 652.09 248.68 655.03 246.84 655.77 247.2 648.78 252.36 644.36 249.78"/><path class="cls-19" d="M876.78,598.86a42.39,42.39,0,0,0,2.58,4l9.57-4-5.15-1.1Z" transform="translate(-228 -326.63)"/><polygon class="cls-23" points="109.76 207.48 108.14 208.46 108.14 133.92 109.76 133.45 109.76 207.48"/><polygon class="cls-24" points="109.79 171.96 57.48 198.35 57.51 195.22 109.82 168.83 109.79 171.96"/><polygon class="cls-25" points="108.28 188.85 83.8 201.12 72.29 195.81 96.78 183.54 108.28 188.85"/><polygon class="cls-26" points="96.84 167.07 96.82 183.63 108.26 188.9 108.28 172.34 96.84 167.07"/><polygon class="cls-27" points="103.4 190.17 106.51 188.61 106.51 175.36 103.4 176.93 103.4 190.17"/><polygon class="cls-25" points="104.11 185.14 105.76 184.31 105.76 176.64 104.11 177.48 104.11 185.14"/><path class="cls-25" d="M333.49,512.79a1.11,1.11,0,0,1,.09,1.36c-.28.48-.76.64-1.09.37a1.11,1.11,0,0,1-.09-1.36C332.68,512.69,333.17,512.52,333.49,512.79Z" transform="translate(-228 -326.63)"/><polygon class="cls-27" points="103.4 190.17 99.72 188.13 99.72 174.88 103.4 176.93 103.4 190.17"/><polygon class="cls-27" points="103.4 176.95 99.72 174.9 102.83 173.3 106.51 175.36 103.4 176.95"/><polygon class="cls-28" points="103.4 176.41 99.72 174.37 101.92 173.24 105.6 175.3 103.4 176.41"/><polygon class="cls-27" points="100.17 191.9 103.28 190.34 103.28 177.09 100.17 178.66 100.17 191.9"/><polygon class="cls-25" points="100.88 186.87 102.53 186.03 102.53 178.37 100.88 179.2 100.88 186.87"/><path class="cls-25" d="M330.26,514.52a1.11,1.11,0,0,1,.09,1.36c-.28.48-.76.64-1.09.37a1.11,1.11,0,0,1-.09-1.36C329.44,514.42,329.93,514.25,330.26,514.52Z" transform="translate(-228 -326.63)"/><polygon class="cls-29" points="100.17 191.9 96.49 189.85 96.49 176.6 100.17 178.66 100.17 191.9"/><polygon class="cls-27" points="100.17 178.68 96.49 176.63 99.6 175.03 103.28 177.09 100.17 178.68"/><polygon class="cls-28" points="100.17 178.14 96.49 176.09 98.69 174.97 102.37 177.03 100.17 178.14"/><polygon class="cls-30" points="96.78 193.6 99.88 192.04 99.88 178.79 96.78 180.36 96.78 193.6"/><polygon class="cls-25" points="97.48 188.57 99.14 187.74 99.14 180.07 97.48 180.91 97.48 188.57"/><path class="cls-25" d="M326.87,516.22a1.11,1.11,0,0,1,.09,1.36c-.28.48-.76.64-1.09.37a1.11,1.11,0,0,1-.09-1.36C326.05,516.12,326.54,516,326.87,516.22Z" transform="translate(-228 -326.63)"/><polygon class="cls-30" points="96.78 193.6 93.1 191.56 93.1 178.31 96.78 180.36 96.78 193.6"/><polygon class="cls-30" points="96.78 180.38 93.1 178.34 96.2 176.73 99.88 178.79 96.78 180.38"/><polygon class="cls-28" points="96.78 179.84 93.1 177.8 95.3 176.67 98.97 178.73 96.78 179.84"/><polygon class="cls-29" points="93.2 195.46 96.31 193.9 96.31 180.65 93.2 182.22 93.2 195.46"/><polygon class="cls-25" points="93.91 190.43 95.56 189.59 95.56 181.93 93.91 182.76 93.91 190.43"/><path class="cls-25" d="M323.29,518.08a1.11,1.11,0,0,1,.09,1.36c-.28.48-.76.64-1.09.37a1.11,1.11,0,0,1-.09-1.36C322.48,518,323,517.81,323.29,518.08Z" transform="translate(-228 -326.63)"/><polygon class="cls-31" points="93.2 195.46 89.52 193.41 89.52 180.16 93.2 182.22 93.2 195.46"/><polygon class="cls-29" points="93.2 182.24 89.52 180.19 92.63 178.59 96.31 180.65 93.2 182.24"/><polygon class="cls-28" points="93.2 181.7 89.52 179.65 91.72 178.53 95.4 180.58 93.2 181.7"/><polygon class="cls-29" points="89.72 197.32 92.82 195.75 92.82 182.5 89.72 184.07 89.72 197.32"/><polygon class="cls-25" points="90.42 192.28 92.08 191.45 92.08 183.78 90.42 184.62 90.42 192.28"/><path class="cls-25" d="M319.81,519.93a1.11,1.11,0,0,1,.09,1.36c-.28.48-.76.64-1.09.37a1.11,1.11,0,0,1-.09-1.36C319,519.83,319.48,519.66,319.81,519.93Z" transform="translate(-228 -326.63)"/><polygon class="cls-31" points="89.72 197.32 86.04 195.27 86.04 182.02 89.72 184.07 89.72 197.32"/><polygon class="cls-29" points="89.72 184.09 86.04 182.05 89.14 180.44 92.82 182.5 89.72 184.09"/><polygon class="cls-28" points="89.72 183.56 86.04 181.51 88.23 180.38 91.91 182.44 89.72 183.56"/><polygon class="cls-30" points="86.22 199.15 89.32 197.59 89.32 184.34 86.22 185.91 86.22 199.15"/><polygon class="cls-25" points="86.92 194.12 88.58 193.28 88.58 185.62 86.92 186.45 86.92 194.12"/><path class="cls-25" d="M316.31,521.77a1.11,1.11,0,0,1,.09,1.36c-.28.48-.76.64-1.09.37a1.11,1.11,0,0,1-.09-1.36C315.49,521.66,316,521.5,316.31,521.77Z" transform="translate(-228 -326.63)"/><polygon class="cls-30" points="86.22 199.15 82.54 197.1 82.54 183.85 86.22 185.91 86.22 199.15"/><polygon class="cls-30" points="86.22 185.93 82.54 183.88 85.64 182.28 89.32 184.34 86.22 185.93"/><polygon class="cls-28" points="86.22 185.39 82.54 183.34 84.73 182.22 88.41 184.28 86.22 185.39"/><polygon class="cls-25" points="108.28 169.38 83.8 181.65 72.29 176.34 96.78 164.07 108.28 169.38"/><polygon class="cls-26" points="96.76 148.1 96.74 164.19 108.19 169.46 108.21 153.37 96.76 148.1"/><polygon class="cls-32" points="103.4 170.7 106.51 169.14 106.51 155.89 103.4 157.46 103.4 170.7"/><polygon class="cls-25" points="104.11 165.66 105.76 164.83 105.76 157.16 104.11 158 104.11 165.66"/><path class="cls-25" d="M333.49,493.32a1.11,1.11,0,0,1,.09,1.36c-.28.48-.76.64-1.09.37a1.11,1.11,0,0,1-.09-1.36C332.68,493.21,333.17,493,333.49,493.32Z" transform="translate(-228 -326.63)"/><polygon class="cls-32" points="103.4 170.7 99.72 168.65 99.72 155.4 103.4 157.46 103.4 170.7"/><polygon class="cls-32" points="103.4 157.48 99.72 155.43 102.83 153.83 106.51 155.89 103.4 157.48"/><polygon class="cls-28" points="103.4 156.94 99.72 154.89 101.92 153.77 105.6 155.82 103.4 156.94"/><polygon class="cls-30" points="100.17 172.43 103.28 170.87 103.28 157.62 100.17 159.19 100.17 172.43"/><polygon class="cls-25" points="100.88 167.39 102.53 166.56 102.53 158.89 100.88 159.73 100.88 167.39"/><path class="cls-25" d="M330.26,495a1.11,1.11,0,0,1,.09,1.36c-.28.48-.76.64-1.09.37a1.11,1.11,0,0,1-.09-1.36C329.44,494.94,329.93,494.77,330.26,495Z" transform="translate(-228 -326.63)"/><polygon class="cls-30" points="100.17 172.43 96.49 170.38 96.49 157.13 100.17 159.19 100.17 172.43"/><polygon class="cls-30" points="100.17 159.21 96.49 157.16 99.6 155.56 103.28 157.62 100.17 159.21"/><polygon class="cls-28" points="100.17 158.67 96.49 156.62 98.69 155.5 102.37 157.55 100.17 158.67"/><polygon class="cls-29" points="96.78 174.13 99.88 172.57 99.88 159.32 96.78 160.89 96.78 174.13"/><polygon class="cls-25" points="97.48 169.1 99.14 168.26 99.14 160.6 97.48 161.43 97.48 169.1"/><path class="cls-25" d="M326.87,496.75a1.11,1.11,0,0,1,.09,1.36c-.28.48-.76.64-1.09.37a1.11,1.11,0,0,1-.09-1.36C326.05,496.64,326.54,496.48,326.87,496.75Z" transform="translate(-228 -326.63)"/><polygon class="cls-31" points="96.78 174.13 93.1 172.09 93.1 158.83 96.78 160.89 96.78 174.13"/><polygon class="cls-29" points="96.78 160.91 93.1 158.86 96.2 157.26 99.88 159.32 96.78 160.91"/><polygon class="cls-28" points="96.78 160.37 93.1 158.32 95.3 157.2 98.97 159.25 96.78 160.37"/><polygon class="cls-33" points="90.01 176.27 93.05 175.85 97.58 163.4 94.53 163.83 90.01 176.27"/><polygon class="cls-33" points="86.46 172.51 90.02 176.29 94.54 163.84 90.98 160.06 86.46 172.51"/><polygon class="cls-33" points="90.98 160.06 94.53 163.85 97.58 163.4 94.02 159.62 90.98 160.06"/><polygon class="cls-28" points="91.55 160.1 94.67 163.42 96.8 163.1 93.68 159.79 91.55 160.1"/><polygon class="cls-25" points="92.13 172.01 93.97 171.81 96.68 164.64 94.84 164.84 92.13 172.01"/><path class="cls-25" d="M321.06,500.08a1.11,1.11,0,0,1-.4,1.3c-.43.35-.94.33-1.15,0a1.11,1.11,0,0,1,.4-1.3C320.33,499.7,320.85,499.72,321.06,500.08Z" transform="translate(-228 -326.63)"/><polygon class="cls-30" points="85.62 178.76 88.66 178.34 93.18 165.89 90.14 166.32 85.62 178.76"/><polygon class="cls-30" points="81.59 174.45 85.62 178.78 90.15 166.33 86.12 162 81.59 174.45"/><polygon class="cls-30" points="86.59 162.56 90.14 166.34 93.18 165.89 89.62 162.11 86.59 162.56"/><polygon class="cls-28" points="87.16 162.59 90.28 165.91 92.41 165.59 89.29 162.28 87.16 162.59"/><polygon class="cls-25" points="87.73 174.5 89.58 174.31 92.29 167.13 90.44 167.33 87.73 174.5"/><path class="cls-25" d="M316.67,502.57a1.11,1.11,0,0,1-.4,1.3c-.43.35-.94.33-1.15,0a1.11,1.11,0,0,1,.4-1.3C315.94,502.19,316.46,502.2,316.67,502.57Z" transform="translate(-228 -326.63)"/><polygon class="cls-25" points="81.99 201.65 57.51 213.92 46 208.61 70.48 196.34 81.99 201.65"/><polygon class="cls-26" points="70.22 180.49 70.2 196.59 81.64 201.85 81.66 185.76 70.22 180.49"/><polygon class="cls-32" points="77.11 202.97 80.22 201.41 80.22 188.15 77.11 189.73 77.11 202.97"/><polygon class="cls-25" points="77.82 197.93 79.47 197.1 79.47 189.43 77.82 190.27 77.82 197.93"/><path class="cls-25" d="M307.2,525.59a1.11,1.11,0,0,1,.09,1.36c-.28.48-.76.64-1.09.37a1.11,1.11,0,0,1-.09-1.36C306.38,525.48,306.87,525.31,307.2,525.59Z" transform="translate(-228 -326.63)"/><polygon class="cls-32" points="77.11 202.97 73.43 200.92 73.43 187.67 77.11 189.73 77.11 202.97"/><polygon class="cls-32" points="77.11 189.74 73.43 187.7 76.54 186.1 80.22 188.15 77.11 189.74"/><polygon class="cls-28" points="77.11 189.21 73.43 187.16 75.63 186.03 79.31 188.09 77.11 189.21"/><polygon class="cls-30" points="73.88 204.7 76.98 203.13 76.98 189.88 73.88 191.46 73.88 204.7"/><polygon class="cls-25" points="74.58 199.66 76.24 198.83 76.24 191.16 74.58 192 74.58 199.66"/><path class="cls-25" d="M304,527.31a1.11,1.11,0,0,1,.09,1.36c-.28.48-.76.64-1.09.37a1.11,1.11,0,0,1-.09-1.36C303.15,527.21,303.64,527,304,527.31Z" transform="translate(-228 -326.63)"/><polygon class="cls-30" points="73.88 204.7 70.2 202.65 70.2 189.4 73.88 191.46 73.88 204.7"/><polygon class="cls-30" points="73.88 191.47 70.2 189.43 73.3 187.83 76.98 189.88 73.88 191.47"/><polygon class="cls-28" points="73.88 190.94 70.2 188.89 72.39 187.76 76.07 189.82 73.88 190.94"/><polygon class="cls-29" points="70.48 206.4 73.59 204.84 73.59 191.59 70.48 193.16 70.48 206.4"/><polygon class="cls-25" points="71.19 201.36 72.84 200.53 72.84 192.86 71.19 193.7 71.19 201.36"/><path class="cls-25" d="M300.57,529a1.11,1.11,0,0,1,.09,1.36c-.28.48-.76.64-1.09.37a1.11,1.11,0,0,1-.09-1.36C299.76,528.91,300.25,528.75,300.57,529Z" transform="translate(-228 -326.63)"/><polygon class="cls-31" points="70.48 206.4 66.8 204.35 66.8 191.1 70.48 193.16 70.48 206.4"/><polygon class="cls-29" points="70.48 193.18 66.8 191.13 69.91 189.53 73.59 191.59 70.48 193.18"/><polygon class="cls-28" points="70.48 192.64 66.8 190.59 69 189.47 72.68 191.52 70.48 192.64"/><polygon class="cls-33" points="63.72 208.54 66.75 208.12 71.28 195.66 68.24 196.1 63.72 208.54"/><polygon class="cls-33" points="60.17 204.78 63.72 208.56 68.25 196.1 64.69 192.33 60.17 204.78"/><polygon class="cls-33" points="64.69 192.33 68.24 196.12 71.28 195.66 67.72 191.89 64.69 192.33"/><polygon class="cls-28" points="65.26 192.37 68.38 195.69 70.51 195.37 67.39 192.06 65.26 192.37"/><polygon class="cls-25" points="65.83 204.28 67.67 204.08 70.39 196.91 68.54 197.11 65.83 204.28"/><path class="cls-25" d="M294.76,532.35a1.11,1.11,0,0,1-.4,1.3c-.43.35-.94.33-1.15,0a1.11,1.11,0,0,1,.4-1.3C294,532,294.55,532,294.76,532.35Z" transform="translate(-228 -326.63)"/><polygon class="cls-30" points="59.32 211.03 62.36 210.61 66.89 198.15 63.85 198.59 59.32 211.03"/><polygon class="cls-30" points="55.77 207.26 59.33 211.05 63.86 198.59 60.3 194.82 55.77 207.26"/><polygon class="cls-30" points="60.3 194.82 63.85 198.61 66.89 198.15 63.33 194.38 60.3 194.82"/><polygon class="cls-28" points="60.87 194.86 63.98 198.18 66.12 197.86 63 194.55 60.87 194.86"/><polygon class="cls-25" points="61.44 206.77 63.28 206.57 66 199.4 64.15 199.6 61.44 206.77"/><path class="cls-25" d="M290.37,534.84a1.11,1.11,0,0,1-.4,1.3c-.43.35-.94.33-1.15,0a1.11,1.11,0,0,1,.4-1.3C289.65,534.46,290.16,534.47,290.37,534.84Z" transform="translate(-228 -326.63)"/><polygon class="cls-25" points="108.28 151.18 83.8 163.44 72.29 158.14 96.78 145.87 108.28 151.18"/><polygon class="cls-26" points="96.83 129.84 96.81 145.94 108.26 151.2 108.28 135.11 96.83 129.84"/><polygon class="cls-31" points="103.4 152.5 106.51 150.94 106.51 137.68 103.4 139.26 103.4 152.5"/><polygon class="cls-25" points="104.11 147.46 105.76 146.63 105.76 138.96 104.11 139.8 104.11 147.46"/><path class="cls-25" d="M333.49,475.11a1.11,1.11,0,0,1,.09,1.36c-.28.48-.76.64-1.09.37a1.11,1.11,0,0,1-.09-1.36C332.68,475,333.17,474.84,333.49,475.11Z" transform="translate(-228 -326.63)"/><polygon class="cls-31" points="103.4 152.5 99.72 150.45 99.72 137.2 103.4 139.26 103.4 152.5"/><polygon class="cls-31" points="103.4 139.27 99.72 137.23 102.83 135.63 106.51 137.68 103.4 139.27"/><polygon class="cls-28" points="103.4 138.74 99.72 136.69 101.92 135.56 105.6 137.62 103.4 138.74"/><polygon class="cls-29" points="100.17 154.22 103.28 152.66 103.28 139.41 100.17 140.99 100.17 154.22"/><polygon class="cls-25" points="100.88 149.19 102.53 148.36 102.53 140.69 100.88 141.53 100.88 149.19"/><path class="cls-25" d="M330.26,476.84a1.11,1.11,0,0,1,.09,1.36c-.28.48-.76.64-1.09.37a1.11,1.11,0,0,1-.09-1.36C329.44,476.74,329.93,476.57,330.26,476.84Z" transform="translate(-228 -326.63)"/><polygon class="cls-29" points="100.17 154.22 96.49 152.18 96.49 138.93 100.17 140.99 100.17 154.22"/><polygon class="cls-29" points="100.17 141 96.49 138.96 99.6 137.35 103.28 139.41 100.17 141"/><polygon class="cls-28" points="100.17 140.46 96.49 138.42 98.69 137.29 102.37 139.35 100.17 140.46"/><polygon class="cls-34" points="96.78 155.93 99.88 154.37 99.88 141.12 96.78 142.69 96.78 155.93"/><polygon class="cls-25" points="97.48 150.89 99.14 150.06 99.14 142.39 97.48 143.23 97.48 150.89"/><path class="cls-25" d="M326.87,478.55a1.11,1.11,0,0,1,.09,1.36c-.28.48-.76.64-1.09.37a1.11,1.11,0,0,1-.09-1.36C326.05,478.44,326.54,478.27,326.87,478.55Z" transform="translate(-228 -326.63)"/><polygon class="cls-34" points="96.78 155.93 93.1 153.88 93.1 140.63 96.78 142.69 96.78 155.93"/><polygon class="cls-34" points="96.78 142.71 93.1 140.66 96.2 139.06 99.88 141.12 96.78 142.71"/><polygon class="cls-28" points="96.78 142.17 93.1 140.12 95.3 139 98.97 141.05 96.78 142.17"/><polygon class="cls-29" points="93.2 157.78 96.31 156.22 96.31 142.97 93.2 144.54 93.2 157.78"/><polygon class="cls-25" points="93.91 152.75 95.56 151.92 95.56 144.25 93.91 145.09 93.91 152.75"/><path class="cls-25" d="M323.29,480.4a1.11,1.11,0,0,1,.09,1.36c-.28.48-.76.64-1.09.37a1.11,1.11,0,0,1-.09-1.36C322.48,480.3,323,480.13,323.29,480.4Z" transform="translate(-228 -326.63)"/><polygon class="cls-31" points="93.2 157.78 89.52 155.74 89.52 142.49 93.2 144.54 93.2 157.78"/><polygon class="cls-29" points="93.2 144.56 89.52 142.51 92.63 140.91 96.31 142.97 93.2 144.56"/><polygon class="cls-28" points="93.2 144.02 89.52 141.98 91.72 140.85 95.4 142.91 93.2 144.02"/><polygon class="cls-29" points="89.72 159.64 92.82 158.08 92.82 144.83 89.72 146.4 89.72 159.64"/><polygon class="cls-25" points="90.42 154.6 92.08 153.77 92.08 146.1 90.42 146.94 90.42 154.6"/><path class="cls-25" d="M319.81,482.26a1.11,1.11,0,0,1,.09,1.36c-.28.48-.76.64-1.09.37a1.11,1.11,0,0,1-.09-1.36C319,482.15,319.48,482,319.81,482.26Z" transform="translate(-228 -326.63)"/><polygon class="cls-31" points="89.72 159.64 86.04 157.59 86.04 144.34 89.72 146.4 89.72 159.64"/><polygon class="cls-29" points="89.72 146.42 86.04 144.37 89.14 142.77 92.82 144.83 89.72 146.42"/><polygon class="cls-28" points="89.72 145.88 86.04 143.83 88.23 142.71 91.91 144.76 89.72 145.88"/><polygon class="cls-34" points="86.22 161.47 89.32 159.91 89.32 146.66 86.22 148.23 86.22 161.47"/><polygon class="cls-25" points="86.92 156.44 88.58 155.61 88.58 147.94 86.92 148.78 86.92 156.44"/><path class="cls-25" d="M316.31,484.09a1.11,1.11,0,0,1,.09,1.36c-.28.48-.76.64-1.09.37a1.11,1.11,0,0,1-.09-1.36C315.49,484,316,483.82,316.31,484.09Z" transform="translate(-228 -326.63)"/><polygon class="cls-34" points="86.22 161.47 82.54 159.43 82.54 146.18 86.22 148.23 86.22 161.47"/><polygon class="cls-34" points="86.22 148.25 82.54 146.2 85.64 144.6 89.32 146.66 86.22 148.25"/><polygon class="cls-28" points="86.22 147.71 82.54 145.67 84.73 144.54 88.41 146.6 86.22 147.71"/><polygon class="cls-25" points="81.99 182.85 57.51 195.13 46 189.82 70.48 177.55 81.99 182.85"/><polygon class="cls-26" points="70.22 161.7 70.2 177.79 81.64 183.06 81.66 166.97 70.22 161.7"/><polygon class="cls-27" points="77.11 184.18 80.22 182.61 80.22 169.36 77.11 170.94 77.11 184.18"/><polygon class="cls-25" points="77.82 179.14 79.47 178.31 79.47 170.64 77.82 171.48 77.82 179.14"/><path class="cls-25" d="M307.2,506.79a1.11,1.11,0,0,1,.09,1.36c-.28.48-.76.64-1.09.37a1.11,1.11,0,0,1-.09-1.36C306.38,506.69,306.87,506.52,307.2,506.79Z" transform="translate(-228 -326.63)"/><polygon class="cls-27" points="77.11 184.18 73.43 182.13 73.43 168.88 77.11 170.94 77.11 184.18"/><polygon class="cls-27" points="77.11 170.95 73.43 168.91 76.54 167.31 80.22 169.36 77.11 170.95"/><polygon class="cls-28" points="77.11 170.41 73.43 168.37 75.63 167.24 79.31 169.3 77.11 170.41"/><polygon class="cls-27" points="73.88 185.91 76.98 184.34 76.98 171.09 73.88 172.66 73.88 185.91"/><polygon class="cls-25" points="74.58 180.87 76.24 180.04 76.24 172.37 74.58 173.21 74.58 180.87"/><path class="cls-25" d="M304,508.52a1.11,1.11,0,0,1,.09,1.36c-.28.48-.76.64-1.09.37a1.11,1.11,0,0,1-.09-1.36C303.15,508.42,303.64,508.25,304,508.52Z" transform="translate(-228 -326.63)"/><polygon class="cls-29" points="73.88 185.91 70.2 183.86 70.2 170.61 73.88 172.66 73.88 185.91"/><polygon class="cls-27" points="73.88 172.68 70.2 170.63 73.3 169.03 76.98 171.09 73.88 172.68"/><polygon class="cls-28" points="73.88 172.14 70.2 170.1 72.39 168.97 76.07 171.03 73.88 172.14"/><polygon class="cls-30" points="70.48 187.61 73.59 186.04 73.59 172.79 70.48 174.37 70.48 187.61"/><polygon class="cls-25" points="71.19 182.57 72.84 181.74 72.84 174.07 71.19 174.91 71.19 182.57"/><path class="cls-25" d="M300.57,510.23a1.11,1.11,0,0,1,.09,1.36c-.28.48-.76.64-1.09.37a1.11,1.11,0,0,1-.09-1.36C299.76,510.12,300.25,510,300.57,510.23Z" transform="translate(-228 -326.63)"/><polygon class="cls-30" points="70.48 187.61 66.8 185.56 66.8 172.31 70.48 174.37 70.48 187.61"/><polygon class="cls-30" points="70.48 174.38 66.8 172.34 69.91 170.74 73.59 172.79 70.48 174.38"/><polygon class="cls-28" points="70.48 173.85 66.8 171.8 69 170.67 72.68 172.73 70.48 173.85"/><polygon class="cls-29" points="66.91 189.46 70.01 187.9 70.01 174.65 66.91 176.22 66.91 189.46"/><polygon class="cls-25" points="67.62 184.43 69.27 183.59 69.27 175.93 67.62 176.77 67.62 184.43"/><path class="cls-25" d="M297,512.08a1.11,1.11,0,0,1,.09,1.36c-.28.48-.76.64-1.09.37a1.11,1.11,0,0,1-.09-1.36C296.18,512,296.67,511.81,297,512.08Z" transform="translate(-228 -326.63)"/><polygon class="cls-31" points="66.91 189.46 63.23 187.42 63.23 174.17 66.91 176.22 66.91 189.46"/><polygon class="cls-29" points="66.91 176.24 63.23 174.19 66.33 172.59 70.01 174.65 66.91 176.24"/><polygon class="cls-28" points="66.91 175.7 63.23 173.66 65.43 172.53 69.11 174.59 66.91 175.7"/><polygon class="cls-29" points="63.42 191.32 66.53 189.76 66.53 176.5 63.42 178.08 63.42 191.32"/><polygon class="cls-25" points="64.13 186.28 65.79 185.45 65.79 177.78 64.13 178.62 64.13 186.28"/><path class="cls-25" d="M293.51,513.94a1.11,1.11,0,0,1,.09,1.36c-.28.48-.76.64-1.09.37a1.11,1.11,0,0,1-.09-1.36C292.7,513.83,293.19,513.66,293.51,513.94Z" transform="translate(-228 -326.63)"/><polygon class="cls-31" points="63.42 191.32 59.74 189.27 59.74 176.02 63.42 178.08 63.42 191.32"/><polygon class="cls-29" points="63.42 178.09 59.74 176.05 62.85 174.45 66.53 176.5 63.42 178.09"/><polygon class="cls-28" points="63.42 177.56 59.74 175.51 61.94 174.38 65.62 176.44 63.42 177.56"/><polygon class="cls-30" points="59.92 193.15 63.03 191.59 63.03 178.34 59.92 179.91 59.92 193.15"/><polygon class="cls-25" points="60.63 188.12 62.28 187.29 62.28 179.62 60.63 180.46 60.63 188.12"/><path class="cls-25" d="M290,515.77a1.11,1.11,0,0,1,.09,1.36c-.28.48-.76.64-1.09.37a1.11,1.11,0,0,1-.09-1.36C289.2,515.67,289.69,515.5,290,515.77Z" transform="translate(-228 -326.63)"/><polygon class="cls-30" points="59.92 193.15 56.24 191.11 56.24 177.86 59.92 179.91 59.92 193.15"/><polygon class="cls-30" points="59.92 179.93 56.24 177.88 59.35 176.28 63.03 178.34 59.92 179.93"/><polygon class="cls-28" points="59.92 179.39 56.24 177.35 58.44 176.22 62.12 178.28 59.92 179.39"/><polygon class="cls-25" points="81.99 164.39 57.51 176.66 46 171.35 70.48 159.08 81.99 164.39"/><polygon class="cls-26" points="70.22 143.24 70.2 159.33 81.64 164.6 81.66 148.5 70.22 143.24"/><polygon class="cls-32" points="77.11 165.71 80.22 164.15 80.22 150.9 77.11 152.47 77.11 165.71"/><polygon class="cls-25" points="77.82 160.68 79.47 159.84 79.47 152.18 77.82 153.01 77.82 160.68"/><path class="cls-25" d="M307.2,488.33a1.11,1.11,0,0,1,.09,1.36c-.28.48-.76.64-1.09.37a1.11,1.11,0,0,1-.09-1.36C306.38,488.23,306.87,488.06,307.2,488.33Z" transform="translate(-228 -326.63)"/><polygon class="cls-32" points="77.11 165.71 73.43 163.66 73.43 150.41 77.11 152.47 77.11 165.71"/><polygon class="cls-32" points="77.11 152.49 73.43 150.44 76.54 148.84 80.22 150.9 77.11 152.49"/><polygon class="cls-28" points="77.11 151.95 73.43 149.9 75.63 148.78 79.31 150.84 77.11 151.95"/><polygon class="cls-30" points="73.88 167.44 76.98 165.88 76.98 152.63 73.88 154.2 73.88 167.44"/><polygon class="cls-25" points="74.58 162.4 76.24 161.57 76.24 153.91 74.58 154.74 74.58 162.4"/><path class="cls-25" d="M304,490.06a1.11,1.11,0,0,1,.09,1.36c-.28.48-.76.64-1.09.37a1.11,1.11,0,0,1-.09-1.36C303.15,490,303.64,489.79,304,490.06Z" transform="translate(-228 -326.63)"/><polygon class="cls-30" points="73.88 167.44 70.2 165.39 70.2 152.14 73.88 154.2 73.88 167.44"/><polygon class="cls-30" points="73.88 154.22 70.2 152.17 73.3 150.57 76.98 152.63 73.88 154.22"/><polygon class="cls-28" points="73.88 153.68 70.2 151.63 72.39 150.51 76.07 152.56 73.88 153.68"/><polygon class="cls-29" points="70.48 169.14 73.59 167.58 73.59 154.33 70.48 155.9 70.48 169.14"/><polygon class="cls-25" points="71.19 164.11 72.84 163.28 72.84 155.61 71.19 156.44 71.19 164.11"/><path class="cls-25" d="M300.57,491.76a1.11,1.11,0,0,1,.09,1.36c-.28.48-.76.64-1.09.37a1.11,1.11,0,0,1-.09-1.36C299.76,491.66,300.25,491.49,300.57,491.76Z" transform="translate(-228 -326.63)"/><polygon class="cls-31" points="70.48 169.14 66.8 167.1 66.8 153.84 70.48 155.9 70.48 169.14"/><polygon class="cls-29" points="70.48 155.92 66.8 153.87 69.91 152.27 73.59 154.33 70.48 155.92"/><polygon class="cls-28" points="70.48 155.38 66.8 153.34 69 152.21 72.68 154.27 70.48 155.38"/><polygon class="cls-33" points="63.72 171.28 66.75 170.86 71.28 158.41 68.24 158.84 63.72 171.28"/><polygon class="cls-33" points="60.17 167.52 63.72 171.3 68.25 158.85 64.69 155.07 60.17 167.52"/><polygon class="cls-33" points="64.69 155.08 68.24 158.86 71.28 158.41 67.72 154.63 64.69 155.08"/><polygon class="cls-28" points="65.26 155.12 68.38 158.43 70.51 158.11 67.39 154.81 65.26 155.12"/><polygon class="cls-25" points="65.83 167.02 67.67 166.83 70.39 159.66 68.54 159.85 65.83 167.02"/><path class="cls-25" d="M294.76,495.1a1.11,1.11,0,0,1-.4,1.3c-.43.35-.94.33-1.15,0a1.11,1.11,0,0,1,.4-1.3C294,494.71,294.55,494.73,294.76,495.1Z" transform="translate(-228 -326.63)"/><polygon class="cls-30" points="59.32 173.78 62.36 173.35 66.89 160.9 63.85 161.33 59.32 173.78"/><polygon class="cls-30" points="55.77 170.01 59.33 173.79 63.86 161.34 60.3 157.56 55.77 170.01"/><polygon class="cls-30" points="60.3 157.57 63.85 161.35 66.89 160.9 63.33 157.13 60.3 157.57"/><polygon class="cls-28" points="60.87 157.61 63.98 160.92 66.12 160.6 63 157.3 60.87 157.61"/><polygon class="cls-25" points="61.44 169.51 63.28 169.32 66 162.14 64.15 162.34 61.44 169.51"/><path class="cls-25" d="M290.37,497.59a1.11,1.11,0,0,1-.4,1.3c-.43.35-.94.33-1.15,0a1.11,1.11,0,0,1,.4-1.3C289.65,497.2,290.16,497.22,290.37,497.59Z" transform="translate(-228 -326.63)"/><polygon class="cls-35" points="81.67 221.9 84.68 222.88 84.68 145.78 81.67 147.06 81.67 221.9"/><polygon class="cls-26" points="46.04 153.83 46.02 228.46 57.46 234.31 57.48 159.1 46.04 153.83"/><polygon class="cls-23" points="59.11 233.38 57.48 234.35 57.48 158.72 59.11 159.19 59.11 233.38"/><polygon class="cls-36" points="109.76 132.68 57.53 159.1 46.03 153.79 98.25 127.37 109.76 132.68"/><polygon class="cls-23" points="109.76 134.17 58.86 159.93 57.48 159.17 109.76 132.71 109.76 134.17"/><polygon class="cls-24" points="109.76 153.51 57.45 179.9 57.48 176.78 109.79 150.38 109.76 153.51"/><polygon class="cls-24" points="109.71 171.69 58.31 197.9 58.34 194.78 109.75 168.56 109.71 171.69"/><polygon class="cls-24" points="109.25 195.96 57.85 222.17 57.88 213.95 109.29 187.74 109.25 195.96"/><polygon class="cls-37" points="76.14 261.86 77.55 261.19 77.41 251.71 76.14 252.41 76.14 261.86"/><polygon class="cls-38" points="76.19 261.86 75.02 261.19 75.14 251.71 76.19 252.41 76.19 261.86"/><polygon class="cls-37" points="127.18 237.6 128.59 236.94 128.45 227.45 127.18 228.15 127.18 237.6"/><polygon class="cls-38" points="127.23 237.6 126.06 236.94 126.18 227.45 127.23 228.15 127.23 237.6"/><polygon class="cls-37" points="54.7 251.21 56.11 250.55 55.96 241.06 54.7 241.76 54.7 251.21"/><polygon class="cls-38" points="54.74 251.21 53.58 250.55 53.7 241.06 54.74 241.76 54.74 251.21"/><polygon class="cls-39" points="65.08 232.87 107.73 211.18 103.71 193.94 57.16 216.95 65.08 232.87"/><polygon class="cls-40" points="76.53 239.12 79.12 237.7 63.37 229.6 60.42 231.18 76.53 239.12"/><polygon class="cls-41" points="126.81 221.47 107.73 211.18 65.08 232.87 78.9 245.35 126.81 221.47"/><polygon class="cls-39" points="78.9 247.58 126.91 223.66 126.91 229.31 79.12 253.3 78.9 247.58"/><polygon class="cls-42" points="52.89 216.6 57.04 218.67 60.4 231.13 76.53 239.12 76.53 258.45 52.57 246.47 52.89 216.6"/><polygon class="cls-43" points="78.53 252.12 126.86 227.86 126.86 233.43 78.82 257.39 78.53 252.12"/><polygon class="cls-43" points="78.9 245.35 126.89 221.39 126.89 227.04 79.12 251.07 78.9 245.35"/><polygon class="cls-40" points="126.75 214.44 129.57 213.11 113.45 204.78 110.4 206.27 126.75 214.44"/><polygon class="cls-39" points="126.93 233.88 129.82 232.52 129.55 213.09 126.77 214.46 126.93 233.88"/><polygon class="cls-39" points="76.53 258.45 79.42 257.09 79.12 237.7 76.53 239.12 76.53 258.45"/><polygon class="cls-42" points="103.03 194.9 106.58 193.22 110.4 206.27 126.71 214.47 126.81 221.47 107.73 211.18 103.03 194.9"/><polygon class="cls-41" points="52.9 216.69 57.05 218.76 109.61 192.72 105.62 190.01 52.9 216.69"/><polygon class="cls-26" points="109.6 192.63 106.69 194.01 110.4 206.27 113.45 204.78 109.6 192.63"/><polygon class="cls-26" points="57.06 218.72 60.02 217.34 63.37 229.6 60.42 231.18 57.06 218.72"/><path class="cls-44" d="M320.25,581.85c-.35.52-.61,1.22-.17,1.48s5.58,3,6.46,3,3-.35,3-1-1.31-2-2.09-2.44a14.77,14.77,0,0,1-3.14-2.36C323.83,579.93,320.25,581.85,320.25,581.85Z" transform="translate(-228 -326.63)"/><path class="cls-44" d="M335.86,580.8c.41.57-1.48,3-5.5,1.48s-4.62-1.48-4.54-2a3.27,3.27,0,0,1,.35-1.83c.52-1,2.62-1.13,3.4-.7S335.43,580.19,335.86,580.8Z" transform="translate(-228 -326.63)"/><path class="cls-45" d="M311.61,553.84s2.27-2.44,3.49-2.18,4.89,2.36,7.24,3.23,9.39,2.93,10,3.84c1,1.48-.52,13.26-1.4,16.49-.45,1.66.09,2.88-.17,3.4s-3.06,1.32-4.76,1a2.29,2.29,0,0,1-.65-.21c-1.48-.79,2.62-17.27,1.74-18.41s-15.35-3.84-16.05-4.71S311.61,553.84,311.61,553.84Z" transform="translate(-228 -326.63)"/><path class="cls-46" d="M303.5,555.07c-.44,1-1,4.45,2.18,5.5s14.83,4.19,15.88,4.45-2.62,15.44-2.44,16.58,3.05,1.31,4.19,1.13a4.65,4.65,0,0,0,2.36-1c.17-.26-.87-1.22-.79-2s4.71-15.44,4.45-17.1-2.79-2-3.93-2.36-11-4.1-11.86-4.8S303.5,555.07,303.5,555.07Z" transform="translate(-228 -326.63)"/><path class="cls-47" d="M316.16,529.73c.32-.35,1.19.83,2.38,4.46s1.62,17.85.84,19.3c-1.66-.61-5.36-1.65-5.42-2.48s.48-8.38.42-9.63S315.62,530.33,316.16,529.73Z" transform="translate(-228 -326.63)"/><path class="cls-48" d="M309,528.25s-4.58,1.13-5.94,2.56-2.5,23.12-1.84,24,3.64,4.33,13.55,1.13c.93-.61-.09-4.69,1-10.34,1-5.37,2.5-14.38,1.55-15.93-.22-.37-2.44-2.26-4.64-1.9S309,528.25,309,528.25Z" transform="translate(-228 -326.63)"/><path class="cls-49" d="M318.48,548a15.27,15.27,0,0,1,4.16-.18c.77.12,4,2.32,3.92,3.15s-.42,1.25-1.31,1.19-6.66-.59-6.84-1.07A5.49,5.49,0,0,1,318.48,548Z" transform="translate(-228 -326.63)"/><path class="cls-23" d="M303.68,531.75a3.9,3.9,0,0,1,3.33,1.43c.59,1,.36,5.53.42,6.66s.06,5,.42,5.35,8,1.43,10.16,1.37,2.08,4.76,1.72,5.05-15.57-1.37-16.23-1.9-1.9-10.34-1.9-13.2S302.37,532.05,303.68,531.75Z" transform="translate(-228 -326.63)"/><path class="cls-50" d="M308.82,528c0,.3.48,2.36,1.94,2.84s2.12.48,2.42-.06a10.45,10.45,0,0,0,1-3c.06-.85-3-3.15-3.39-3A9,9,0,0,0,308.82,528Z" transform="translate(-228 -326.63)"/><path class="cls-51" d="M309.48,526.39c.11.16.67-1.45,1.27-1.45a.81.81,0,0,1,.85.42c.12.18,7-.85,7-.85s.79-.6,1.15-1a3.86,3.86,0,0,0,1.09-3c-.24-1.27-2.24-3.39-3.93-4.17s-4.6.18-5,.36-1.39.73-1.51,1.33S309.12,525.85,309.48,526.39Z" transform="translate(-228 -326.63)"/><path class="cls-52" d="M313.2,524.28s0-1.48-.59-1.92-1.33-.59-1.33.15v4.73c0,.74,3.11,2.22,3.55,2.22a2.17,2.17,0,0,0,1.77-.59,8,8,0,0,0,1.41-3c0-.74.94-1.85,1.09-2.3s.46-1.78-.42-1.93a8.06,8.06,0,0,0-2.81.59s-1.33-.59-1.63-.15A24.21,24.21,0,0,0,313.2,524.28Z" transform="translate(-228 -326.63)"/><path class="cls-53" d="M345.16,571.26a4.58,4.58,0,0,0-.23,2.86c.31,1.17.13,2.13.3,2.45.08.16.31.1.45,0,.24-.57-.11-1.07.22-1.81s1.3,1.48,1.87,2,2.44.78,3.7.41c.85-.24-1.25-2.33-2.12-3.7-.3-.47-.72-1.07-1-1.4-.53-.7-1-.67-1.12-.92S345.16,571.26,345.16,571.26Z" transform="translate(-228 -326.63)"/><path class="cls-54" d="M345.84,571.81a3.4,3.4,0,0,0,.14.47c.08.18,1.71,2.62,2.43,2.8a2.48,2.48,0,0,0,1.71-.1c.33-.18-.75-1.14-1.26-1.89a8.81,8.81,0,0,1-.6-1.39A11,11,0,0,0,345.84,571.81Z" transform="translate(-228 -326.63)"/><path class="cls-53" d="M341.23,573.8a2.89,2.89,0,0,0-.49,2.6c.41,1.14.5,3.3.67,3.62.08.16.25.17.39,0,.24-.57-.24-1.79.08-2.52s1.38,1.22,2,1.79a4.56,4.56,0,0,0,3.82.41c1.22-.49-1.51-2.28-2.51-3.44-.36-.42-.78-.69-1-1a4.92,4.92,0,0,1-.78-1.56C343.23,573.4,341.23,573.8,341.23,573.8Z" transform="translate(-228 -326.63)"/><path class="cls-54" d="M341.11,574.14s-.18.43-.1.6,2,2.49,2.67,2.67a4.5,4.5,0,0,0,2.12,0c.38-.08-1.16-1.46-1.66-2a5.38,5.38,0,0,1-.6-1.39A11,11,0,0,0,341.11,574.14Z" transform="translate(-228 -326.63)"/><path class="cls-55" d="M333.4,547.88s1.08-1.72,2.3-1.46,4.89,2.33,7.24,3.23,6.93,3.29,7.58,4.2c1,1.48-.42,12.25-1.3,15.48-.45,1.66.43,2,.17,2.51s-1,1.08-2.68.86a4,4,0,0,1-2.25-1.21c-1.48-.79,3-14.09,2.16-15.22s-12.62-5.18-13.32-6.05S333.4,547.88,333.4,547.88Z" transform="translate(-228 -326.63)"/><path class="cls-53" d="M327,548.87c-.44,1-1,4.45,2.18,5.5S341,558,342,558.43c.61.26-1.9,13.74-1.73,14.87s1.55,1.56,2.68,1.38,1.73-.08,1.82-.86,2.34-13.48,2.59-15.13c.17-1.12.17-3.11-.26-3.55-.84-.84-9.2-5.14-10.08-5.84S327,548.87,327,548.87Z" transform="translate(-228 -326.63)"/><path class="cls-56" d="M335.77,528.26a2.37,2.37,0,0,1,1.71.89c.49.81.24,4.07.16,4.31A24.58,24.58,0,0,1,335.77,528.26Z" transform="translate(-228 -326.63)"/><path class="cls-57" d="M337.63,541.57c.15-.22,4.19,2,5,1.83a6.85,6.85,0,0,1,5.08,1.56c1.12.71-2.52,1.51-3.27,1s-6.39-1.25-6.53-1.74S337.16,542.24,337.63,541.57Z" transform="translate(-228 -326.63)"/><path class="cls-56" d="M336.67,540.13l2.11,1.14s-1,2.77-.65,3.82-2-1-2-1.71A17.21,17.21,0,0,1,336.67,540.13Z" transform="translate(-228 -326.63)"/><path class="cls-58" d="M331.27,526.88s-4.62,1.34-6,2.76c-.88.92,1.87,6.43,2.2,12,.16,2.68-1.55,5.86-2,6.59-.82,1.48,6.34,3.17,12.85-.81.93-.61-2-2-.89-7.73.59-3,1.46-3.9.73-5.86-.15-.4-2.52-7.43-4.72-7.08S331.27,526.88,331.27,526.88Z" transform="translate(-228 -326.63)"/><path class="cls-57" d="M325.61,543.71c.19-.19,3.77,2.72,4.56,2.68,2-.08,4.1,1.87,4.72,2.44,1,.89-1.11,1.18-2,.89s-7.51-2.83-7.56-3.34S325,544.29,325.61,543.71Z" transform="translate(-228 -326.63)"/><path class="cls-58" d="M326.38,528.8c.83-.08.91.4,1.5,1.41s-2.6,10.74-2.93,11.71.89.73,1.79,1.63c.36.36-.5.61-1,1.79s.11,1.09-.24,1.38-2.93-1.71-3.5-2.44-.41-6.83,1.22-9.6C324.69,532.22,324.55,529,326.38,528.8Z" transform="translate(-228 -326.63)"/><path class="cls-59" d="M330.2,527.56a8.65,8.65,0,0,0,1.12,3.37c.91,1.25,2.11,1.08,2.38.52.65-1.38-.3-2.85-.56-3.8a2.92,2.92,0,0,0-2.25-1.47C330.53,526.29,330.26,526.89,330.2,527.56Z" transform="translate(-228 -326.63)"/><path class="cls-60" d="M334.87,524.53a18.34,18.34,0,0,1,2,4.41c.26,1.56-1,7.35-1.12,7.78s.35-4.24-.78-7.44-2.08-4.24-2-4.58S334.87,524.53,334.87,524.53Z" transform="translate(-228 -326.63)"/><path class="cls-60" d="M333.06,537.68c1,0-2.33-10.72-2.33-10.72s-1.48-3.4-1.36-3.22,6.72-.84,6.72-.84.61-2.69.69-3.2a2.57,2.57,0,0,0-1-2.68c-1-.87-1.33-.77-3-1.56s-3.72.39-4.06.61a10.94,10.94,0,0,0-2.94,4.15C325.67,520.81,324,531.8,333.06,537.68Z" transform="translate(-228 -326.63)"/><path class="cls-52" d="M330.9,523.58c-.52-.17-.19-1.87-.86-2.16s-1.3-.13-1.3.61a19.89,19.89,0,0,0,1.21,3.81,3.17,3.17,0,0,0,2.33,1.9,1.65,1.65,0,0,0,1.82-.43,4.87,4.87,0,0,0,1.73-3.11,19.68,19.68,0,0,1,.26-2.51c.08-.46,0-2.1-.86-2.25S331.33,522.71,330.9,523.58Z" transform="translate(-228 -326.63)"/><path class="cls-61" d="M339.42,556.2s-8-3.85-8.28-4.17-.2.46.2.72,8.28,4,8.28,4Z" transform="translate(-228 -326.63)"/><polygon class="cls-62" points="103 225.4 111.87 220.88 119.46 224.33 111.28 229.57 103 225.4"/><polygon class="cls-63" points="107.16 226.2 116.03 221.69 120.14 223.51 111.96 228.75 107.16 226.2"/><line class="cls-64" x1="107.61" y1="227.04" x2="115.23" y2="223.09"/><line class="cls-64" x1="108.49" y1="227.63" x2="116.1" y2="223.69"/><line class="cls-64" x1="109.31" y1="228.19" x2="116.93" y2="224.24"/><line class="cls-64" x1="107.39" y1="225.39" x2="111.89" y2="227.69"/><line class="cls-64" x1="108.13" y1="224.81" x2="112.63" y2="227.11"/><line class="cls-64" x1="109.12" y1="224.37" x2="113.62" y2="226.67"/><polygon class="cls-61" points="111.07 229.83 111.65 230.09 111.65 221.47 111.13 221.21 111.07 229.83"/><polygon class="cls-65" points="123.31 214.81 111.05 221.2 111.57 221.46 124.09 215.13 123.31 214.81"/><polygon class="cls-66" points="124.09 215.2 123.89 224.07 111.63 230.07 111.57 221.52 124.09 215.2"/><polygon class="cls-37" points="155.8 241.84 154.39 241.18 154.53 231.7 155.8 232.39 155.8 241.84"/><polygon class="cls-38" points="155.75 241.84 156.92 241.18 156.8 231.7 155.75 232.39 155.75 241.84"/><polygon class="cls-37" points="177.96 252.53 176.59 251.89 176.73 242.67 177.96 243.35 177.96 252.53"/><polygon class="cls-38" points="177.91 252.53 179.05 251.89 178.93 242.67 177.91 243.35 177.91 252.53"/><polygon class="cls-37" points="198.81 242.18 197.44 241.54 197.58 232.32 198.81 232.99 198.81 242.18"/><polygon class="cls-38" points="198.77 242.18 199.9 241.54 199.78 232.32 198.77 232.99 198.77 242.18"/><polygon class="cls-67" points="188.72 224.35 169.19 214.57 173.84 199.95 196.41 208.88 188.72 224.35"/><polygon class="cls-68" points="156.73 227.18 175.28 217.18 188.72 224.35 175.28 236.49 156.73 227.18"/><polygon class="cls-39" points="175.28 238.66 156.71 229.32 156.71 234.81 175.06 244.22 175.28 238.66"/><polygon class="cls-67" points="175.64 243.06 156.74 233.41 156.74 238.83 175.35 248.19 175.64 243.06"/><polygon class="cls-67" points="175.28 236.49 156.71 227.13 156.71 232.62 175.06 242.05 175.28 236.49"/><polygon class="cls-40" points="157.2 220.3 154.46 219 170.13 210.91 173.1 212.35 157.2 220.3"/><polygon class="cls-69" points="157.02 239.71 154.13 238.36 154.4 218.93 157.18 220.29 157.02 239.71"/><polygon class="cls-39" points="180.23 201.24 176.78 199.61 173.06 212.3 157.21 220.27 157.11 227.31 175.66 217.07 180.23 201.24"/><polygon class="cls-26" points="173.34 199.95 176.38 200.43 172.77 212.35 169.81 210.91 173.34 199.95"/><polygon class="cls-26" points="196.51 210.59 193.63 209.25 190.38 221.17 193.25 222.71 196.51 210.59"/><polygon class="cls-41" points="200.56 208.61 196.52 210.63 173.34 199.95 177.22 197.31 200.56 208.61"/><path class="cls-70" d="M395.42,576.19a2.41,2.41,0,0,1-.23,2.33c-.44.26-6.84,3.53-8.47,3.53-.87,0-1-.71-1-1.53,0-.61,1.31-2,2.09-2.44a10,10,0,0,0,2.26-2.48C390.56,575,395.42,576.19,395.42,576.19Z" transform="translate(-228 -326.63)"/><path class="cls-46" d="M408.76,549.32c.44,1-.39,7.67-3.45,9.13-3.61,1.72-6.22,3.63-7.27,3.89s-2.11,12.65-2.28,13.78-2.24,1.73-3.37,1.55-3-.91-3-1.7,3.29-15.46,3.55-17.12,1.89-2,3.3-3.13c1.6-1.34,6.43-5.59,7.3-6.29S408.76,549.32,408.76,549.32Z" transform="translate(-228 -326.63)"/><path class="cls-70" d="M377.28,571.95c-.41.57,1.48,3,5.5,1.48s4.68-1.67,4.59-2.19a2.89,2.89,0,0,0-.4-1.65c-.52-1-2.62-1.13-3.4-.7S377.72,571.34,377.28,571.95Z" transform="translate(-228 -326.63)"/><path class="cls-45" d="M396,546.41c-2.36.87-9.15,4.42-9.58,5.46a110.29,110.29,0,0,0-3.65,13.58c-.43,2.48-1.35,3.79-1.09,4.31s4,1.8,5.65,1.48c.24,0,.2-.23.28-.42,1.12-2.5,3-11.73,3.53-13.36.41-1.37,8.43-4.41,9.13-5.28S398.39,545.54,396,546.41Z" transform="translate(-228 -326.63)"/><path class="cls-71" d="M386.32,533.87s-3.32-1.5-4.09-1.06,1.08,1,.77,1.52-3.63,1.09-4,1.24.46.54.93,1.16.7.94,1.47,1a14.77,14.77,0,0,0,4.79-.37C387.32,537,386.32,533.87,386.32,533.87Z" transform="translate(-228 -326.63)"/><path class="cls-72" d="M400.87,524a2,2,0,0,0-2.49.08c-.94.7-1.52,5.22-2,6.24s-1,5.56-1.42,5.75-6.21-2.19-8.24-2.5c-1,1.13-.68,3.59-.46,4s10.32,4.59,11.13,4.35,3.8-10.8,4.91-13.43S402,524.74,400.87,524Z" transform="translate(-228 -326.63)"/><path class="cls-73" d="M407.94,524.13a37,37,0,0,1,5.41,4.79c1.37,1.43-.35,21.34-1,22.24s-10.12,11.33-16.92-4c0-.57,3.19-2.23,3.05-4.05-.39-5.45-.6-17.35.35-18.9.22-.37,1.33-.61,3.39-1.45C405.27,521.46,406.38,523.09,407.94,524.13Z" transform="translate(-228 -326.63)"/><path class="cls-74" d="M406.48,524.76c0,.3-.48,2.36-1.94,2.84s-2.3,1.15-2.6.61a15.86,15.86,0,0,1-.79-3.69c-.06-.85,3-3.15,3.39-3A9,9,0,0,1,406.48,524.76Z" transform="translate(-228 -326.63)"/><path class="cls-75" d="M405.37,522.26l-3.09,6.2a22.07,22.07,0,0,1-1-3.1c-.07-.71-.84.07-.9,1.63a33.21,33.21,0,0,0-.25,4.58c.15,1.36,1.39,6,1.47,6.3s.77.42.77.42,1.51-6.12,1.89-7.57,2.09-6.16,2.75-7.79A5.1,5.1,0,0,1,405.37,522.26Z" transform="translate(-228 -326.63)"/><polygon class="cls-76" points="174.24 201.33 173.7 202.64 173.97 203.1 173.7 206.45 173.7 212.99 174.24 214.74 175.01 211.79 175.54 206.04 174.62 203.5 175.01 202.48 174.24 201.33"/><path class="cls-77" d="M399.83,524.42h1.87a2.22,2.22,0,0,0-.94.85c-.38.62-.7,4.86-.65,6.29s2.12,7.92,2.12,7.92v1.88l-2.41-6.9v-1.57l-1-2.06Z" transform="translate(-228 -326.63)"/><path class="cls-77" d="M408,523.68l-2,8.58-1.7.84,1.39,1.24-3.4,6.9v-2.13s3.09-13.88,4.25-15.43l.51-.75Z" transform="translate(-228 -326.63)"/><path class="cls-71" d="M403.63,518.81a2.86,2.86,0,0,1,.83-1c.59-.44.85,0,.85.77,0,.37-.44,2.66-.54,1.78a7.16,7.16,0,0,1,0,1.64,10.71,10.71,0,0,1-3.34,3.34c-.44,0-1.58.25-2-.34a16.05,16.05,0,0,1-1.18-3.62c-.2-.86-.83-2.19-1-2.64-.32-1.15-1-2.29,0-2.4a7.76,7.76,0,0,1,1.62,0s.51-.77,3.17,1.15C402.5,517.84,403.63,518.81,403.63,518.81Z" transform="translate(-228 -326.63)"/><path class="cls-78" d="M405.86,521.7a1.31,1.31,0,0,1-1.41-1.07c1.16-.88.92-2.8.31-2.88s-.88.9-1,1.08-2.9-2.08-4.69-2.93c-.05.55,1,.94.62.87-.61-.12-1.33-.57-2-.41-.93.2-.93.31-.93,1.55-.36-.36-1.18-.35-.94-1.62s2.88-3.31,4.58-4.1,2.67,0,3.07-.08c.77-.13,2.36,1.87,2.48,2.47S405.92,521.62,405.86,521.7Z" transform="translate(-228 -326.63)"/><path class="cls-79" d="M402.79,550.77s-4.26.28-4.61.41-.37,0-.39.45c0,.77,1.78-.08,2,.38s-3.32,2.72-3.94,2.86.77,1.85,2.78,1.62,5.41-2.76,5.72-2.85S403.92,550.74,402.79,550.77Z" transform="translate(-228 -326.63)"/><path class="cls-80" d="M412.3,528.32a2.42,2.42,0,0,0-2.71.78c-.59,1,.25,7.64.19,8.77s.82,6.75.46,7.11-6,4.12-7.88,5.14c-.54,1.75.95,4.11,1.3,4.4s10.79-7.36,11.45-7.9-.75-11.42-.75-14.27S413.61,528.61,412.3,528.32Z" transform="translate(-228 -326.63)"/><polygon class="cls-39" points="200.57 208.53 196.53 210.55 193.27 222.66 177.58 230.43 177.58 249.22 200.88 237.57 200.57 208.53"/><polygon class="cls-69" points="177.58 249.22 174.77 247.9 175.06 229.05 177.58 230.43 177.58 249.22"/><polygon class="cls-40" points="177.58 230.43 175.06 229.05 190.38 221.17 193.25 222.71 177.58 230.43"/><rect class="cls-81" x="118.67" y="256.3" width="4.99" height="15.32"/><ellipse class="cls-47" cx="121.16" cy="256.3" rx="2.49" ry="1.37"/><ellipse class="cls-81" cx="121.16" cy="271.61" rx="2.49" ry="1.37"/><rect class="cls-81" x="146.73" y="244.06" width="4.99" height="15.32"/><ellipse class="cls-47" cx="149.23" cy="244.06" rx="2.49" ry="1.37"/><ellipse class="cls-81" cx="149.23" cy="259.37" rx="2.49" ry="1.37"/><path class="cls-82" d="M394.94,564.78c.26,6.72-12.53,16.72-30.14,23.2-18.94,7-36.28,7.22-38.72.57,0-.08,0-.16-.07-.23a4.74,4.74,0,0,0,.28,1.46c2.45,6.65,19.78,6.4,38.72-.57C383.73,582.31,397,571.45,394.94,564.78Z" transform="translate(-228 -326.63)"/><ellipse class="cls-83" cx="360.57" cy="576.43" rx="36.54" ry="12.83" transform="translate(-404.83 -166.71) rotate(-20.2)"/><polyline class="cls-84" points="345.03 67.42 341.5 98.57 322.61 105.42 311.6 97.53 311.6 95.46 322.19 102.31 323.65 92.96"/><polygon class="cls-85" points="310.36 89.64 318.87 94.83 321.05 101.57 322.19 102.31 322.82 99.4 320.32 93.38 311.6 88.19 310.36 89.64"/><polygon class="cls-86" points="324.37 104.78 324.27 111.86 325.93 113.11 327.18 111.86 327.18 103.77 324.37 104.78"/><polygon class="cls-87" points="325.72 113.11 316.59 117.26 314.93 116.64 324.27 111.86 325.72 113.11"/><polygon class="cls-88" points="314.93 116.64 314.93 118.5 316.59 119.13 316.59 117.26 314.93 116.64"/><polygon class="cls-89" points="316.59 117.26 325.72 113.11 325.93 114.56 316.59 119.13 316.59 117.26"/><polygon class="cls-86" points="325.93 114.56 335.07 118.71 335.07 117.26 325.72 113.11 325.93 114.56"/><polygon class="cls-88" points="335.07 117.26 336.73 116.64 336.73 118.3 335.07 118.71 335.07 117.26"/><polygon class="cls-90" points="325.72 45 325.93 69.71 355 86.53 355 60.16 325.72 45"/><polygon class="cls-87" points="325.72 113.11 327.18 111.86 336.73 116.64 335.07 117.26 325.72 113.11"/><path class="cls-91" d="M583,386.79c-.83-.42-29.28-15.16-29.28-15.16L496,401.11l33.43,16.2Z" transform="translate(-228 -326.63)"/><polygon class="cls-87" points="327.18 111.86 336.11 107.29 335.07 106.67 327.18 110.34 327.18 111.86"/><polygon class="cls-92" points="327.18 111.86 336.11 107.29 336.11 109.16 328.69 112.62 327.18 111.86"/><polygon class="cls-87" points="324.29 110.39 317.42 107.08 317.42 108.54 324.27 111.86 324.29 110.39"/><polygon class="cls-93" points="322.82 112.6 317.42 109.99 317.42 108.54 324.27 111.86 322.82 112.6"/><polygon class="cls-94" points="310.77 84.45 314.81 85.16 323.85 91.82 323.14 96.19 314.1 97.07 308.9 92.34 310.77 84.45"/><polygon class="cls-95" points="325.72 104.29 325.72 113.11 327.18 111.86 327.18 103.76 325.72 104.29"/><polyline class="cls-96" points="314.93 62.86 312.43 62.86 311.6 64.31 310.36 61.2 310.98 57.67 313.26 56.84 314.1 55.59 317.42 55.17 322.82 58.91 322.82 69.29 317.42 70.54 315.76 67.84"/><path class="cls-97" d="M545.42,397.17l6.64,15.78-2.49.62L543.13,410l-1,5.61s4.78,4.2,5.4,3.87a36.76,36.76,0,0,1,4.35-1.06L555,400.7l-1-4.78-2.28-.62Z" transform="translate(-228 -326.63)"/><polygon class="cls-98" points="317.42 70.54 313.06 72.41 320.12 83.62 312.64 79.05 307.87 78.84 309.11 81.96 313.26 81.75 321.57 86.94 324.06 86.32 317.42 70.54"/><polygon class="cls-97" points="314.34 74.45 314.1 79.94 320.12 83.62 314.34 74.45"/><polygon class="cls-98" points="311.6 95.25 314.1 102.31 317.42 105.84 314.1 109.37 312.23 109.37 312.23 108.54 313.68 106.25 307.87 98.78 306.41 90.68 307.87 84.45 310.77 84.45 308.9 92.34 311.6 95.25"/><polygon class="cls-99" points="312.23 108.54 310.36 111.24 314.1 111.24 317.42 108.54 317.42 105.84 314.1 109.37 312.23 108.54"/><path class="cls-96" d="M539.6,390.94" transform="translate(-228 -326.63)"/><path class="cls-96" d="M545.42,397.17" transform="translate(-228 -326.63)"/><polygon class="cls-98" points="312.14 63.38 312.85 67.42 315.34 69.71 317 69.29 316.8 63.27 312.85 62.03 312.14 63.38"/><polygon class="cls-98" points="315.96 97.07 310.98 107.29 308.9 105.84 312.43 95.99 315.96 97.07"/><polygon class="cls-99" points="308.9 105.84 307.45 108.54 311.4 108.33 313.89 104.59 312.7 103.77 310.77 107.29 308.9 105.84"/><polygon class="cls-90" points="268 74.48 268 103.76 301.64 120.37 301.64 90.68 268 74.48"/><polygon class="cls-100" points="326.97 74.07 345.03 67.42 339.43 92.96 326.97 97.53 323.65 92.96 326.97 74.07"/><polyline class="cls-84" points="424.03 22.43 420.5 53.57 401.61 60.42 390.6 52.53 390.6 50.46 401.19 57.31 402.65 47.96"/><polygon class="cls-85" points="389.36 44.64 397.87 49.83 400.05 56.57 401.19 57.31 401.82 54.4 399.32 48.38 390.6 43.19 389.36 44.64"/><polygon class="cls-86" points="403.37 59.78 403.27 66.86 404.93 68.11 406.18 66.86 406.18 58.77 403.37 59.78"/><polygon class="cls-87" points="404.72 68.11 395.59 72.26 393.93 71.64 403.27 66.86 404.72 68.11"/><polygon class="cls-88" points="393.93 71.64 393.93 73.5 395.59 74.13 395.59 72.26 393.93 71.64"/><polygon class="cls-89" points="395.59 72.26 404.72 68.11 404.93 69.56 395.59 74.13 395.59 72.26"/><polygon class="cls-86" points="404.93 69.56 414.07 73.71 414.07 72.26 404.72 68.11 404.93 69.56"/><polygon class="cls-88" points="414.07 72.26 415.73 71.64 415.73 73.3 414.07 73.71 414.07 72.26"/><polygon class="cls-90" points="404.72 0 404.93 24.71 434 41.53 434 15.16 404.72 0"/><polygon class="cls-87" points="404.72 68.11 406.18 66.86 415.73 71.64 414.07 72.26 404.72 68.11"/><path class="cls-91" d="M662,341.79c-.83-.42-29.28-15.16-29.28-15.16L575,356.11l33.43,16.2Z" transform="translate(-228 -326.63)"/><polygon class="cls-87" points="406.18 66.86 415.11 62.29 414.07 61.67 406.18 65.34 406.18 66.86"/><polygon class="cls-92" points="406.18 66.86 415.11 62.29 415.11 64.16 407.69 67.62 406.18 66.86"/><polygon class="cls-87" points="403.29 65.39 396.42 62.08 396.42 63.54 403.27 66.86 403.29 65.39"/><polygon class="cls-93" points="401.82 67.6 396.42 64.99 396.42 63.54 403.27 66.86 401.82 67.6"/><polygon class="cls-94" points="389.77 39.45 393.81 40.16 402.85 46.82 402.14 51.19 393.1 52.07 387.9 47.34 389.77 39.45"/><polygon class="cls-95" points="404.72 59.29 404.72 68.11 406.18 66.86 406.18 58.76 404.72 59.29"/><polyline class="cls-96" points="393.93 17.86 391.43 17.86 390.6 19.31 389.36 16.2 389.98 12.67 392.26 11.84 393.1 10.59 396.42 10.17 401.82 13.91 401.82 24.29 396.42 25.54 394.76 22.84"/><path class="cls-97" d="M624.42,352.17l6.64,15.78-2.49.62L622.13,365l-1,5.61s4.78,4.2,5.4,3.87a36.76,36.76,0,0,1,4.35-1.06L634,355.7l-1-4.78-2.28-.62Z" transform="translate(-228 -326.63)"/><polygon class="cls-98" points="396.42 25.54 392.06 27.41 399.12 38.62 391.64 34.05 386.87 33.84 388.11 36.96 392.26 36.75 400.57 41.94 403.06 41.32 396.42 25.54"/><polygon class="cls-97" points="393.34 29.45 393.1 34.94 399.12 38.62 393.34 29.45"/><polygon class="cls-98" points="390.6 50.25 393.1 57.31 396.42 60.84 393.1 64.37 391.23 64.37 391.23 63.54 392.68 61.25 386.87 53.78 385.41 45.68 386.87 39.45 389.77 39.45 387.9 47.34 390.6 50.25"/><polygon class="cls-99" points="391.23 63.54 389.36 66.24 393.1 66.24 396.42 63.54 396.42 60.84 393.1 64.37 391.23 63.54"/><path class="cls-96" d="M618.6,345.94" transform="translate(-228 -326.63)"/><path class="cls-96" d="M624.42,352.17" transform="translate(-228 -326.63)"/><polygon class="cls-98" points="391.14 18.38 391.85 22.43 394.34 24.71 396 24.29 395.8 18.27 391.85 17.03 391.14 18.38"/><polygon class="cls-98" points="394.96 52.07 389.98 62.29 387.9 60.84 391.43 50.99 394.96 52.07"/><polygon class="cls-99" points="387.9 60.84 386.45 63.54 390.4 63.33 392.89 59.59 391.7 58.77 389.77 62.29 387.9 60.84"/><polygon class="cls-90" points="347 29.48 347 58.76 380.64 75.37 380.64 45.68 347 29.48"/><polygon class="cls-100" points="405.97 29.07 424.03 22.43 418.43 47.96 405.97 52.53 402.65 47.96 405.97 29.07"/><polyline class="cls-84" points="423.03 102.42 419.5 133.57 400.61 140.42 389.6 132.53 389.6 130.46 400.19 137.31 401.65 127.96"/><polygon class="cls-85" points="388.36 124.64 396.87 129.83 399.05 136.57 400.19 137.31 400.82 134.4 398.32 128.38 389.6 123.19 388.36 124.64"/><polygon class="cls-86" points="402.37 139.78 402.27 146.86 403.93 148.1 405.18 146.86 405.18 138.77 402.37 139.78"/><polygon class="cls-87" points="403.72 148.1 394.59 152.26 392.93 151.63 402.27 146.86 403.72 148.1"/><polygon class="cls-88" points="392.93 151.63 392.93 153.5 394.59 154.13 394.59 152.26 392.93 151.63"/><polygon class="cls-89" points="394.59 152.26 403.72 148.1 403.93 149.56 394.59 154.13 394.59 152.26"/><polygon class="cls-86" points="403.93 149.56 413.07 153.71 413.07 152.26 403.72 148.1 403.93 149.56"/><polygon class="cls-88" points="413.07 152.26 414.73 151.63 414.73 153.3 413.07 153.71 413.07 152.26"/><polygon class="cls-90" points="403.72 80 403.93 104.71 433 121.53 433 95.16 403.72 80"/><polygon class="cls-87" points="403.72 148.1 405.18 146.86 414.73 151.63 413.07 152.26 403.72 148.1"/><path class="cls-91" d="M661,421.79c-.83-.42-29.28-15.16-29.28-15.16L574,436.11l33.43,16.2Z" transform="translate(-228 -326.63)"/><polygon class="cls-87" points="405.18 146.86 414.11 142.29 413.07 141.67 405.18 145.34 405.18 146.86"/><polygon class="cls-92" points="405.18 146.86 414.11 142.29 414.11 144.16 406.69 147.62 405.18 146.86"/><polygon class="cls-87" points="402.29 145.39 395.42 142.08 395.42 143.54 402.27 146.86 402.29 145.39"/><polygon class="cls-93" points="400.82 147.6 395.42 144.99 395.42 143.54 402.27 146.86 400.82 147.6"/><polygon class="cls-94" points="388.77 119.45 392.81 120.16 401.85 126.82 401.14 131.19 392.1 132.07 386.9 127.34 388.77 119.45"/><polygon class="cls-95" points="403.72 139.29 403.72 148.1 405.18 146.86 405.18 138.76 403.72 139.29"/><polyline class="cls-96" points="392.93 97.86 390.43 97.86 389.6 99.31 388.36 96.2 388.98 92.67 391.26 91.83 392.1 90.59 395.42 90.17 400.82 93.91 400.82 104.29 395.42 105.54 393.76 102.84"/><path class="cls-97" d="M623.42,432.17l6.64,15.78-2.49.62L621.13,445l-1,5.61s4.78,4.2,5.4,3.87a36.76,36.76,0,0,1,4.35-1.06L633,435.7l-1-4.78-2.28-.62Z" transform="translate(-228 -326.63)"/><polygon class="cls-98" points="395.42 105.54 391.06 107.41 398.12 118.62 390.64 114.05 385.87 113.84 387.11 116.96 391.26 116.75 399.57 121.94 402.06 121.32 395.42 105.54"/><polygon class="cls-97" points="392.34 109.45 392.1 114.94 398.12 118.62 392.34 109.45"/><polygon class="cls-98" points="389.6 130.25 392.1 137.31 395.42 140.84 392.1 144.37 390.23 144.37 390.23 143.54 391.68 141.25 385.87 133.78 384.41 125.68 385.87 119.45 388.77 119.45 386.9 127.34 389.6 130.25"/><polygon class="cls-99" points="390.23 143.54 388.36 146.24 392.1 146.24 395.42 143.54 395.42 140.84 392.1 144.37 390.23 143.54"/><path class="cls-96" d="M617.6,425.94" transform="translate(-228 -326.63)"/><path class="cls-96" d="M623.42,432.17" transform="translate(-228 -326.63)"/><polygon class="cls-98" points="390.14 98.38 390.85 102.42 393.34 104.71 395 104.29 394.8 98.27 390.85 97.03 390.14 98.38"/><polygon class="cls-98" points="393.96 132.07 388.98 142.29 386.9 140.84 390.43 130.99 393.96 132.07"/><polygon class="cls-99" points="386.9 140.84 385.45 143.54 389.4 143.33 391.89 139.59 390.7 138.77 388.77 142.29 386.9 140.84"/><polygon class="cls-90" points="346 109.48 346 138.76 379.64 155.37 379.64 125.68 346 109.48"/><polygon class="cls-100" points="404.97 109.07 423.03 102.42 417.43 127.96 404.97 132.53 401.65 127.96 404.97 109.07"/><polyline class="cls-84" points="502.03 57.42 498.5 88.57 479.61 95.42 468.6 87.53 468.6 85.46 479.19 92.31 480.65 82.96"/><polygon class="cls-85" points="467.36 79.64 475.87 84.83 478.05 91.57 479.19 92.31 479.82 89.4 477.32 83.38 468.6 78.19 467.36 79.64"/><polygon class="cls-86" points="481.37 94.78 481.27 101.86 482.93 103.11 484.18 101.86 484.18 93.77 481.37 94.78"/><polygon class="cls-87" points="482.72 103.11 473.59 107.26 471.93 106.64 481.27 101.86 482.72 103.11"/><polygon class="cls-88" points="471.93 106.64 471.93 108.5 473.59 109.13 473.59 107.26 471.93 106.64"/><polygon class="cls-89" points="473.59 107.26 482.72 103.11 482.93 104.56 473.59 109.13 473.59 107.26"/><polygon class="cls-86" points="482.93 104.56 492.07 108.71 492.07 107.26 482.72 103.11 482.93 104.56"/><polygon class="cls-88" points="492.07 107.26 493.73 106.64 493.73 108.3 492.07 108.71 492.07 107.26"/><polygon class="cls-90" points="482.72 35 482.93 59.71 512 76.53 512 50.16 482.72 35"/><polygon class="cls-87" points="482.72 103.11 484.18 101.86 493.73 106.64 492.07 107.26 482.72 103.11"/><path class="cls-91" d="M740,376.79c-.83-.42-29.28-15.16-29.28-15.16L653,391.11l33.43,16.2Z" transform="translate(-228 -326.63)"/><polygon class="cls-87" points="484.18 101.86 493.11 97.29 492.07 96.67 484.18 100.34 484.18 101.86"/><polygon class="cls-92" points="484.18 101.86 493.11 97.29 493.11 99.16 485.69 102.62 484.18 101.86"/><polygon class="cls-87" points="481.29 100.39 474.42 97.08 474.42 98.54 481.27 101.86 481.29 100.39"/><polygon class="cls-93" points="479.82 102.6 474.42 99.99 474.42 98.54 481.27 101.86 479.82 102.6"/><polygon class="cls-94" points="467.77 74.45 471.81 75.16 480.85 81.82 480.14 86.19 471.1 87.07 465.9 82.34 467.77 74.45"/><polygon class="cls-95" points="482.72 94.29 482.72 103.11 484.18 101.86 484.18 93.76 482.72 94.29"/><polyline class="cls-96" points="471.93 52.86 469.43 52.86 468.6 54.31 467.36 51.2 467.98 47.67 470.26 46.84 471.1 45.59 474.42 45.17 479.82 48.91 479.82 59.29 474.42 60.54 472.76 57.84"/><path class="cls-97" d="M702.42,387.17l6.64,15.78-2.49.62L700.13,400l-1,5.61s4.78,4.2,5.4,3.87a36.76,36.76,0,0,1,4.35-1.06L712,390.7l-1-4.78-2.28-.62Z" transform="translate(-228 -326.63)"/><polygon class="cls-98" points="474.42 60.54 470.06 62.41 477.12 73.62 469.64 69.05 464.87 68.84 466.11 71.96 470.26 71.75 478.57 76.94 481.06 76.32 474.42 60.54"/><polygon class="cls-97" points="471.34 64.45 471.1 69.94 477.12 73.62 471.34 64.45"/><polygon class="cls-98" points="468.6 85.25 471.1 92.31 474.42 95.84 471.1 99.37 469.23 99.37 469.23 98.54 470.68 96.25 464.87 88.78 463.41 80.68 464.87 74.45 467.77 74.45 465.9 82.34 468.6 85.25"/><polygon class="cls-99" points="469.23 98.54 467.36 101.24 471.1 101.24 474.42 98.54 474.42 95.84 471.1 99.37 469.23 98.54"/><path class="cls-96" d="M696.6,380.94" transform="translate(-228 -326.63)"/><path class="cls-96" d="M702.42,387.17" transform="translate(-228 -326.63)"/><polygon class="cls-98" points="469.14 53.38 469.85 57.42 472.34 59.71 474 59.29 473.8 53.27 469.85 52.03 469.14 53.38"/><polygon class="cls-98" points="472.96 87.07 467.98 97.29 465.9 95.84 469.43 85.99 472.96 87.07"/><polygon class="cls-99" points="465.9 95.84 464.45 98.54 468.4 98.33 470.89 94.59 469.7 93.77 467.77 97.29 465.9 95.84"/><polygon class="cls-90" points="425 64.48 425 93.76 458.64 110.37 458.64 80.68 425 64.48"/><polygon class="cls-100" points="483.97 64.07 502.03 57.42 496.43 82.96 483.97 87.53 480.65 82.96 483.97 64.07"/><polyline class="cls-84" points="499.03 140.43 495.5 171.57 476.61 178.42 465.6 170.53 465.6 168.46 476.19 175.31 477.65 165.96"/><polygon class="cls-85" points="464.36 162.64 472.87 167.83 475.05 174.57 476.19 175.31 476.82 172.4 474.32 166.38 465.6 161.19 464.36 162.64"/><polygon class="cls-86" points="478.37 177.78 478.27 184.86 479.93 186.1 481.18 184.86 481.18 176.77 478.37 177.78"/><polygon class="cls-87" points="479.72 186.1 470.59 190.26 468.93 189.63 478.27 184.86 479.72 186.1"/><polygon class="cls-88" points="468.93 189.63 468.93 191.5 470.59 192.13 470.59 190.26 468.93 189.63"/><polygon class="cls-89" points="470.59 190.26 479.72 186.1 479.93 187.56 470.59 192.13 470.59 190.26"/><polygon class="cls-86" points="479.93 187.56 489.07 191.71 489.07 190.26 479.72 186.1 479.93 187.56"/><polygon class="cls-88" points="489.07 190.26 490.73 189.63 490.73 191.3 489.07 191.71 489.07 190.26"/><polygon class="cls-90" points="479.72 118 479.93 142.71 509 159.53 509 133.16 479.72 118"/><polygon class="cls-87" points="479.72 186.1 481.18 184.86 490.73 189.63 489.07 190.26 479.72 186.1"/><path class="cls-91" d="M737,459.79c-.83-.42-29.28-15.16-29.28-15.16L650,474.11l33.43,16.2Z" transform="translate(-228 -326.63)"/><polygon class="cls-87" points="481.18 184.86 490.11 180.29 489.07 179.67 481.18 183.34 481.18 184.86"/><polygon class="cls-92" points="481.18 184.86 490.11 180.29 490.11 182.16 482.69 185.62 481.18 184.86"/><polygon class="cls-87" points="478.29 183.39 471.42 180.08 471.42 181.54 478.27 184.86 478.29 183.39"/><polygon class="cls-93" points="476.82 185.6 471.42 182.99 471.42 181.54 478.27 184.86 476.82 185.6"/><polygon class="cls-94" points="464.77 157.45 468.81 158.16 477.85 164.82 477.14 169.19 468.1 170.07 462.9 165.34 464.77 157.45"/><polygon class="cls-95" points="479.72 177.29 479.72 186.1 481.18 184.86 481.18 176.76 479.72 177.29"/><polyline class="cls-96" points="468.93 135.86 466.43 135.86 465.6 137.31 464.36 134.2 464.98 130.67 467.26 129.84 468.1 128.59 471.42 128.17 476.82 131.91 476.82 142.29 471.42 143.54 469.76 140.84"/><path class="cls-97" d="M699.42,470.17l6.64,15.78-2.49.62L697.13,483l-1,5.61s4.78,4.2,5.4,3.87a36.76,36.76,0,0,1,4.35-1.06L709,473.7l-1-4.78-2.28-.62Z" transform="translate(-228 -326.63)"/><polygon class="cls-98" points="471.42 143.54 467.06 145.41 474.12 156.62 466.64 152.05 461.87 151.84 463.11 154.96 467.26 154.75 475.57 159.94 478.06 159.32 471.42 143.54"/><polygon class="cls-97" points="468.34 147.45 468.1 152.94 474.12 156.62 468.34 147.45"/><polygon class="cls-98" points="465.6 168.25 468.1 175.31 471.42 178.84 468.1 182.37 466.23 182.37 466.23 181.54 467.68 179.25 461.87 171.78 460.41 163.68 461.87 157.45 464.77 157.45 462.9 165.34 465.6 168.25"/><polygon class="cls-99" points="466.23 181.54 464.36 184.24 468.1 184.24 471.42 181.54 471.42 178.84 468.1 182.37 466.23 181.54"/><path class="cls-96" d="M693.6,463.94" transform="translate(-228 -326.63)"/><path class="cls-96" d="M699.42,470.17" transform="translate(-228 -326.63)"/><polygon class="cls-98" points="466.14 136.38 466.85 140.43 469.34 142.71 471 142.29 470.8 136.27 466.85 135.03 466.14 136.38"/><polygon class="cls-98" points="469.96 170.07 464.98 180.29 462.9 178.84 466.43 168.99 469.96 170.07"/><polygon class="cls-99" points="462.9 178.84 461.45 181.54 465.4 181.33 467.89 177.59 466.7 176.77 464.77 180.29 462.9 178.84"/><polygon class="cls-90" points="422 147.48 422 176.76 455.64 193.37 455.64 163.68 422 147.48"/><polygon class="cls-100" points="480.97 147.07 499.03 140.43 493.43 165.96 480.97 170.53 477.65 165.96 480.97 147.07"/><polyline class="cls-84" points="578.03 95.42 574.5 126.57 555.61 133.42 544.6 125.53 544.6 123.46 555.19 130.31 556.65 120.96"/><polygon class="cls-85" points="543.36 117.64 551.87 122.83 554.05 129.57 555.19 130.31 555.82 127.4 553.33 121.38 544.6 116.19 543.36 117.64"/><polygon class="cls-86" points="557.37 132.78 557.27 139.86 558.93 141.1 560.18 139.86 560.18 131.77 557.37 132.78"/><polygon class="cls-87" points="558.72 141.1 549.59 145.26 547.93 144.63 557.27 139.86 558.72 141.1"/><polygon class="cls-88" points="547.93 144.63 547.93 146.5 549.59 147.13 549.59 145.26 547.93 144.63"/><polygon class="cls-89" points="549.59 145.26 558.72 141.1 558.93 142.56 549.59 147.13 549.59 145.26"/><polygon class="cls-86" points="558.93 142.56 568.07 146.71 568.07 145.26 558.72 141.1 558.93 142.56"/><polygon class="cls-88" points="568.07 145.26 569.73 144.63 569.73 146.3 568.07 146.71 568.07 145.26"/><polygon class="cls-90" points="558.72 73 558.93 97.71 588 114.53 588 88.16 558.72 73"/><polygon class="cls-87" points="558.72 141.1 560.18 139.86 569.73 144.63 568.07 145.26 558.72 141.1"/><path class="cls-91" d="M816,414.79c-.83-.42-29.28-15.16-29.28-15.16L729,429.11l33.43,16.2Z" transform="translate(-228 -326.63)"/><polygon class="cls-87" points="560.18 139.86 569.11 135.29 568.07 134.67 560.18 138.34 560.18 139.86"/><polygon class="cls-92" points="560.18 139.86 569.11 135.29 569.11 137.16 561.69 140.62 560.18 139.86"/><polygon class="cls-87" points="557.29 138.39 550.42 135.08 550.42 136.54 557.27 139.86 557.29 138.39"/><polygon class="cls-93" points="555.82 140.6 550.42 137.99 550.42 136.54 557.27 139.86 555.82 140.6"/><polygon class="cls-94" points="543.77 112.45 547.81 113.16 556.85 119.82 556.14 124.19 547.1 125.07 541.9 120.34 543.77 112.45"/><polygon class="cls-95" points="558.72 132.29 558.72 141.1 560.18 139.86 560.18 131.76 558.72 132.29"/><polyline class="cls-96" points="547.93 90.86 545.43 90.86 544.6 92.31 543.36 89.2 543.98 85.67 546.26 84.83 547.1 83.59 550.42 83.17 555.82 86.91 555.82 97.29 550.42 98.54 548.76 95.84"/><path class="cls-97" d="M778.42,425.17l6.64,15.78-2.49.62L776.13,438l-1,5.61s4.78,4.2,5.4,3.87a36.76,36.76,0,0,1,4.35-1.06L788,428.7l-1-4.78-2.28-.62Z" transform="translate(-228 -326.63)"/><polygon class="cls-98" points="550.42 98.54 546.06 100.41 553.12 111.62 545.64 107.05 540.87 106.84 542.11 109.96 546.26 109.75 554.57 114.94 557.06 114.32 550.42 98.54"/><polygon class="cls-97" points="547.34 102.45 547.1 107.94 553.12 111.62 547.34 102.45"/><polygon class="cls-98" points="544.6 123.25 547.1 130.31 550.42 133.84 547.1 137.37 545.23 137.37 545.23 136.54 546.68 134.25 540.87 126.78 539.41 118.68 540.87 112.45 543.77 112.45 541.9 120.34 544.6 123.25"/><polygon class="cls-99" points="545.23 136.54 543.36 139.24 547.1 139.24 550.42 136.54 550.42 133.84 547.1 137.37 545.23 136.54"/><path class="cls-96" d="M772.6,418.94" transform="translate(-228 -326.63)"/><path class="cls-96" d="M778.42,425.17" transform="translate(-228 -326.63)"/><polygon class="cls-98" points="545.14 91.38 545.85 95.42 548.34 97.71 550 97.29 549.79 91.27 545.85 90.03 545.14 91.38"/><polygon class="cls-98" points="548.96 125.07 543.98 135.29 541.9 133.84 545.43 123.99 548.96 125.07"/><polygon class="cls-99" points="541.9 133.84 540.45 136.54 544.4 136.33 546.89 132.59 545.7 131.77 543.77 135.29 541.9 133.84"/><polygon class="cls-90" points="501 102.48 501 131.76 534.64 148.37 534.64 118.68 501 102.48"/><polygon class="cls-100" points="559.97 102.07 578.03 95.42 572.43 120.96 559.97 125.53 556.65 120.96 559.97 102.07"/><polyline class="cls-84" points="576.03 174.43 572.5 205.57 553.61 212.42 542.6 204.53 542.6 202.46 553.19 209.31 554.65 199.96"/><polygon class="cls-85" points="541.36 196.64 549.87 201.83 552.05 208.57 553.19 209.31 553.82 206.4 551.33 200.38 542.6 195.19 541.36 196.64"/><polygon class="cls-86" points="555.37 211.78 555.27 218.86 556.93 220.1 558.18 218.86 558.18 210.77 555.37 211.78"/><polygon class="cls-87" points="556.72 220.1 547.59 224.26 545.93 223.63 555.27 218.86 556.72 220.1"/><polygon class="cls-88" points="545.93 223.63 545.93 225.5 547.59 226.13 547.59 224.26 545.93 223.63"/><polygon class="cls-89" points="547.59 224.26 556.72 220.1 556.93 221.56 547.59 226.13 547.59 224.26"/><polygon class="cls-86" points="556.93 221.56 566.07 225.71 566.07 224.26 556.72 220.1 556.93 221.56"/><polygon class="cls-88" points="566.07 224.26 567.73 223.63 567.73 225.3 566.07 225.71 566.07 224.26"/><polygon class="cls-90" points="556.72 152 556.93 176.71 586 193.53 586 167.16 556.72 152"/><polygon class="cls-87" points="556.72 220.1 558.18 218.86 567.73 223.63 566.07 224.26 556.72 220.1"/><path class="cls-91" d="M814,493.79c-.83-.42-29.28-15.16-29.28-15.16L727,508.11l33.43,16.2Z" transform="translate(-228 -326.63)"/><polygon class="cls-87" points="558.18 218.86 567.11 214.29 566.07 213.67 558.18 217.34 558.18 218.86"/><polygon class="cls-92" points="558.18 218.86 567.11 214.29 567.11 216.16 559.69 219.62 558.18 218.86"/><polygon class="cls-87" points="555.29 217.39 548.42 214.08 548.42 215.54 555.27 218.86 555.29 217.39"/><polygon class="cls-93" points="553.82 219.6 548.42 216.99 548.42 215.54 555.27 218.86 553.82 219.6"/><polygon class="cls-94" points="541.77 191.45 545.81 192.16 554.85 198.82 554.14 203.19 545.1 204.07 539.9 199.34 541.77 191.45"/><polygon class="cls-95" points="556.72 211.29 556.72 220.1 558.18 218.86 558.18 210.76 556.72 211.29"/><polyline class="cls-96" points="545.93 169.86 543.43 169.86 542.6 171.31 541.36 168.2 541.98 164.67 544.26 163.84 545.1 162.59 548.42 162.17 553.82 165.91 553.82 176.29 548.42 177.54 546.76 174.84"/><path class="cls-97" d="M776.42,504.17l6.64,15.78-2.49.62L774.13,517l-1,5.61s4.78,4.2,5.4,3.87a36.76,36.76,0,0,1,4.35-1.06L786,507.7l-1-4.78-2.28-.62Z" transform="translate(-228 -326.63)"/><polygon class="cls-98" points="548.42 177.54 544.06 179.41 551.12 190.62 543.64 186.05 538.87 185.84 540.11 188.96 544.26 188.75 552.57 193.94 555.06 193.32 548.42 177.54"/><polygon class="cls-97" points="545.34 181.45 545.1 186.94 551.12 190.62 545.34 181.45"/><polygon class="cls-98" points="542.6 202.25 545.1 209.31 548.42 212.84 545.1 216.37 543.23 216.37 543.23 215.54 544.68 213.25 538.87 205.78 537.41 197.68 538.87 191.45 541.77 191.45 539.9 199.34 542.6 202.25"/><polygon class="cls-99" points="543.23 215.54 541.36 218.24 545.1 218.24 548.42 215.54 548.42 212.84 545.1 216.37 543.23 215.54"/><path class="cls-96" d="M770.6,497.94" transform="translate(-228 -326.63)"/><path class="cls-96" d="M776.42,504.17" transform="translate(-228 -326.63)"/><polygon class="cls-98" points="543.14 170.38 543.85 174.43 546.34 176.71 548 176.29 547.79 170.27 543.85 169.03 543.14 170.38"/><polygon class="cls-98" points="546.96 204.07 541.98 214.29 539.9 212.84 543.43 202.99 546.96 204.07"/><polygon class="cls-99" points="539.9 212.84 538.45 215.54 542.4 215.33 544.89 211.59 543.7 210.77 541.77 214.29 539.9 212.84"/><polygon class="cls-90" points="499 181.48 499 210.76 532.64 227.37 532.64 197.68 499 181.48"/><polygon class="cls-100" points="557.97 181.07 576.03 174.43 570.43 199.96 557.97 204.53 554.65 199.96 557.97 181.07"/><polyline class="cls-84" points="655.03 129.43 651.5 160.57 632.61 167.42 621.6 159.53 621.6 157.46 632.19 164.31 633.65 154.96"/><polygon class="cls-85" points="620.36 151.64 628.87 156.83 631.05 163.57 632.19 164.31 632.82 161.4 630.33 155.38 621.6 150.19 620.36 151.64"/><polygon class="cls-86" points="634.37 166.78 634.27 173.86 635.93 175.1 637.18 173.86 637.18 165.77 634.37 166.78"/><polygon class="cls-87" points="635.72 175.1 626.59 179.26 624.93 178.63 634.27 173.86 635.72 175.1"/><polygon class="cls-88" points="624.93 178.63 624.93 180.5 626.59 181.13 626.59 179.26 624.93 178.63"/><polygon class="cls-89" points="626.59 179.26 635.72 175.1 635.93 176.56 626.59 181.13 626.59 179.26"/><polygon class="cls-86" points="635.93 176.56 645.07 180.71 645.07 179.26 635.72 175.1 635.93 176.56"/><polygon class="cls-88" points="645.07 179.26 646.73 178.63 646.73 180.3 645.07 180.71 645.07 179.26"/><polygon class="cls-90" points="635.72 107 635.93 131.71 665 148.53 665 122.16 635.72 107"/><polygon class="cls-87" points="635.72 175.1 637.18 173.86 646.73 178.63 645.07 179.26 635.72 175.1"/><path class="cls-91" d="M893,448.79c-.83-.42-29.28-15.16-29.28-15.16L806,463.11l33.43,16.2Z" transform="translate(-228 -326.63)"/><polygon class="cls-87" points="637.18 173.86 646.11 169.29 645.07 168.67 637.18 172.34 637.18 173.86"/><polygon class="cls-92" points="637.18 173.86 646.11 169.29 646.11 171.16 638.69 174.62 637.18 173.86"/><polygon class="cls-87" points="634.29 172.39 627.42 169.08 627.42 170.54 634.27 173.86 634.29 172.39"/><polygon class="cls-93" points="632.82 174.6 627.42 171.99 627.42 170.54 634.27 173.86 632.82 174.6"/><polygon class="cls-94" points="620.77 146.45 624.81 147.16 633.85 153.82 633.14 158.19 624.1 159.07 618.9 154.34 620.77 146.45"/><polygon class="cls-95" points="635.72 166.29 635.72 175.1 637.18 173.86 637.18 165.76 635.72 166.29"/><polyline class="cls-96" points="624.93 124.86 622.43 124.86 621.6 126.31 620.36 123.2 620.98 119.67 623.26 118.83 624.1 117.59 627.42 117.17 632.82 120.91 632.82 131.29 627.42 132.54 625.76 129.84"/><path class="cls-97" d="M855.42,459.17l6.64,15.78-2.49.62L853.13,472l-1,5.61s4.78,4.2,5.4,3.87a36.76,36.76,0,0,1,4.35-1.06L865,462.7l-1-4.78-2.28-.62Z" transform="translate(-228 -326.63)"/><polygon class="cls-98" points="627.42 132.54 623.06 134.41 630.12 145.62 622.64 141.05 617.87 140.84 619.11 143.96 623.26 143.75 631.57 148.94 634.06 148.32 627.42 132.54"/><polygon class="cls-97" points="624.34 136.45 624.1 141.94 630.12 145.62 624.34 136.45"/><polygon class="cls-98" points="621.6 157.25 624.1 164.31 627.42 167.84 624.1 171.37 622.23 171.37 622.23 170.54 623.68 168.25 617.87 160.78 616.41 152.68 617.87 146.45 620.77 146.45 618.9 154.34 621.6 157.25"/><polygon class="cls-99" points="622.23 170.54 620.36 173.24 624.1 173.24 627.42 170.54 627.42 167.84 624.1 171.37 622.23 170.54"/><path class="cls-96" d="M849.6,452.94" transform="translate(-228 -326.63)"/><path class="cls-96" d="M855.42,459.17" transform="translate(-228 -326.63)"/><polygon class="cls-98" points="622.14 125.38 622.85 129.43 625.34 131.71 627 131.29 626.79 125.27 622.85 124.03 622.14 125.38"/><polygon class="cls-98" points="625.96 159.07 620.98 169.29 618.9 167.84 622.43 157.99 625.96 159.07"/><polygon class="cls-99" points="618.9 167.84 617.45 170.54 621.4 170.33 623.89 166.59 622.7 165.77 620.77 169.29 618.9 167.84"/><polygon class="cls-90" points="578 136.48 578 165.76 611.64 182.37 611.64 152.68 578 136.48"/><polygon class="cls-100" points="636.97 136.07 655.03 129.43 649.43 154.96 636.97 159.53 633.65 154.96 636.97 136.07"/><polygon class="cls-7" points="560.6 276.6 559.71 297.61 583.09 286.36 583.09 265.06 560.6 276.6"/><polygon class="cls-8" points="580.43 262.39 626 291.69 603.21 303.23 560.3 276.89 580.43 262.39"/><polygon class="cls-9" points="585.46 249.37 585.46 269.2 607.95 284 606.47 262.39 585.46 249.37"/><polygon class="cls-10" points="591.08 274.82 587.53 277.19 598.77 284 602.62 282.52 591.08 274.82"/><polygon class="cls-11" points="586.94 253.22 604.4 263.28 605.58 280.15 586.94 268.61 586.94 253.22"/><polygon class="cls-12" points="588.12 261.21 596.58 271.26 597.29 272.75 603.51 272.75 588.12 261.21"/><polygon class="cls-13" points="591.72 273.32 592.56 278.96 598.77 281.92 600.3 278.96 591.72 273.32"/><polygon class="cls-8" points="603.51 303.23 602.62 324.24 626 313 626 291.69 603.51 303.23"/><path class="cls-8" d="M788.3,603.52" transform="translate(-228 -326.63)"/><polygon class="cls-7" points="502.61 311.36 501.62 334.74 527.63 322.22 527.63 298.51 502.61 311.36"/><polygon class="cls-8" points="524.67 295.55 575.38 328.15 550.02 340.99 502.28 311.69 524.67 295.55"/><polygon class="cls-14" points="530.27 281.06 530.27 303.12 555.29 319.59 553.65 295.55 530.27 281.06"/><polygon class="cls-10" points="536.52 309.38 532.57 312.01 545.09 319.59 549.37 317.94 536.52 309.38"/><polygon class="cls-11" points="531.91 285.34 551.34 296.54 552.66 315.31 531.91 302.46 531.91 285.34"/><polygon class="cls-12" points="533.23 294.23 542.64 305.42 543.44 307.07 550.35 307.07 533.23 294.23"/><polygon class="cls-13" points="537.24 307.71 538.17 313.99 545.09 317.28 546.78 313.99 537.24 307.71"/><polygon class="cls-8" points="550.35 340.99 549.37 364.37 575.38 351.86 575.38 328.15 550.35 340.99"/><path class="cls-8" d="M730.28,638.31" transform="translate(-228 -326.63)"/><polyline class="cls-15" points="509.75 299.6 513.07 311.38 518.59 315.06 520.79 306.96 525.21 305.86 524.48 300.71 521.53 297.03 520.43 294.82 516.01 293.72"/><polygon class="cls-16" points="523.37 308.13 524.11 313.59 523.37 317.27 517.85 319.11 512.7 315.06 513.07 311.38 523.37 308.13"/><polygon class="cls-15" points="513.8 295.19 509.75 308.8 518.59 315.06 525.95 304.39 520.43 295.19 513.8 295.19"/><polygon class="cls-17" points="541.77 336.77 541.77 351.12 534.78 352.23 533.67 341.19 541.77 336.77"/><path class="cls-18" d="M757.63,663.4l7.73-3.31,4.42,3.31s-12.14,9.57-12.14,7.36Z" transform="translate(-228 -326.63)"/><polygon class="cls-19" points="513.07 311.38 508.28 311.38 504.6 316.16 527.05 330.88 529.63 336.77 529.63 322.79 523.37 317.27 517.85 318.37 513.43 313.22 513.07 311.38"/><polygon class="cls-20" points="504.6 316.16 499.45 319.11 500.19 338.24 527.42 354.44 525.95 333.46 522.27 329.41 503.5 319.84 504.6 316.16"/><polygon class="cls-21" points="504.6 316.16 527.42 330.88 529.63 336.77 529.63 349.65 529.63 352.23 527.42 354.44 525.95 333.46 522.27 329.41 503.13 319.84 504.6 316.16"/><path class="cls-21" d="M757.63,668.73c.74-.18,4.42-.91,4.42-.91v6.62l-4.42,1.84v2.58l7.73-4.78-1.1-8.1-2.94-1.1-3.68,1.35Z" transform="translate(-228 -326.63)"/><polygon class="cls-20" points="511.23 344.13 511.23 359.96 518.22 364.37 521.9 361.06 520.16 350.12 511.23 344.13"/><polygon class="cls-19" points="529.63 330.02 530.36 329.78 534.78 332.36 529.63 335.7 529.63 330.02"/><polygon class="cls-22" points="530.36 329.78 534.04 325 534.04 327.57 538.09 324.26 538.83 324.63 536.99 326.84 539.56 325 540.67 325.73 538.09 328.68 541.03 326.84 541.77 327.2 534.78 332.36 530.36 329.78"/><path class="cls-19" d="M762.78,678.86a42.39,42.39,0,0,0,2.58,4l9.57-4-5.15-1.1Z" transform="translate(-228 -326.63)"/><polygon class="cls-101" points="187.83 304.87 294.91 244.63 266.38 227.37 160 289.02 187.83 304.87"/><path class="cls-102" d="M411.35,628.94c-.45,1.85,4.83,30,4.83,30l3.17.35-3.87-27.83Z" transform="translate(-228 -326.63)"/><path class="cls-102" d="M388,616.42v32.33l3.52,2.11-3.45-34.45A0,0,0,0,0,388,616.42Z" transform="translate(-228 -326.63)"/><polygon class="cls-103" points="261.04 243.75 263.06 251.49 266.42 255.52 270.46 255.52 272.14 253.84 266.42 243.75 261.04 243.75"/><polygon class="cls-104" points="261.04 243.75 264.07 244.76 264.07 249.47 265.75 246.78 266.42 250.48 270.12 252.49 272.14 243.75 269.45 239.38 264.74 238.37 261.04 243.75"/><path class="cls-105" d="M479.62,596.95v-3l-3.7-4,1.68-3.7,4,5.38,1,5.38Z" transform="translate(-228 -326.63)"/><polygon class="cls-2" points="266.42 255.52 258.01 261.58 256.33 272 254.65 268.98 251.29 270.32 254.65 277.38 258.69 279.07 262.72 273.01 261.04 279.07 259.69 282.09 265.75 287.14 267.77 267.97 270.8 261.91 278.87 256.87 274.83 252.49 270.12 252.49 272.14 256.53 266.42 255.52"/><polygon class="cls-106" points="280.55 256.19 270.8 261.91 267.57 269.82 265.75 287.14 272.14 287.14 277.86 282.77 281.89 259.89 280.55 256.19"/><polygon class="cls-107" points="246.24 301.27 246.24 303.62 241.87 305.64 230.09 298.58 232.79 295.55 238.17 297.16 246.24 301.27"/><polyline class="cls-108" points="277.86 282.77 276.18 287.14 265.08 292.86 251.29 287.14 245.57 282.77 245.57 296.56 246.24 301.27 240.52 301.27 238.17 298.91 238.84 293.19 238.17 278.73 238.17 273.69 244.22 273.69 257 280.08 262.81 285.5 266.59 285.01"/><path class="cls-107" d="M477.85,612.67c-.58.76-2.6,2.78-2.26,3.12S486,623.52,486,623.52l1.35-2.69Z" transform="translate(-228 -326.63)"/><polyline class="cls-105" points="255.32 257.88 258.35 261.58 261.71 259.89 258.35 256.53 254.65 256.53"/><polygon class="cls-106" points="261.04 291.47 261.04 296.89 251.29 298.24 259.36 299.25 246.24 305.64 247.59 307.99 251.29 307.99 252.29 304.97 262.05 301.27 262.05 310.69 261.04 313.04 265.08 314.05 265.08 311.02 264.07 300.59 275.5 303.96 275.5 307.99 277.86 307.32 277.19 302.61 265.08 298.91 269.11 295.55 271.13 294.2 269.79 292.86 263.39 296.89 263.12 292.05 261.04 291.47"/><polygon class="cls-109" points="261.04 291.51 257 292.18 251.29 287.14 261.04 291.51"/><polygon class="cls-103" points="220.46 270.07 222.48 277.81 225.84 281.85 229.88 281.85 231.56 280.16 225.84 270.07 220.46 270.07"/><polygon class="cls-104" points="220.46 270.07 223.49 271.08 223.49 275.79 225.17 273.1 225.84 276.8 229.54 278.82 231.56 270.07 228.87 265.7 224.16 264.69 220.46 270.07"/><path class="cls-105" d="M439,623.27v-3l-3.7-4,1.68-3.7,4,5.38,1,5.38Z" transform="translate(-228 -326.63)"/><polygon class="cls-110" points="225.84 281.85 217.43 287.9 215.75 298.33 214.07 295.3 210.7 296.64 214.07 303.71 218.1 305.39 222.14 299.34 220.46 305.39 219.11 308.42 225.17 313.46 227.19 294.29 230.21 288.24 238.28 283.19 234.25 278.82 229.54 278.82 231.56 282.85 225.84 281.85"/><polygon class="cls-106" points="239.97 282.52 230.21 288.24 226.99 296.14 225.17 313.46 231.56 313.46 237.28 309.09 241.31 286.22 239.97 282.52"/><polygon class="cls-107" points="205.66 327.59 205.66 329.94 201.28 331.96 189.51 324.9 192.2 321.87 197.59 323.49 205.66 327.59"/><polyline class="cls-109" points="237.28 309.09 235.59 313.46 224.49 319.18 210.7 313.46 204.99 309.09 204.99 322.88 205.66 327.59 199.94 327.59 197.59 325.24 198.26 319.52 197.59 305.05 197.59 300.01 203.64 300.01 216.42 306.4 222.23 311.82 226.01 311.33"/><path class="cls-107" d="M437.26,639c-.58.76-2.6,2.78-2.26,3.12s10.43,7.74,10.43,7.74l1.35-2.69Z" transform="translate(-228 -326.63)"/><polyline class="cls-105" points="214.74 284.2 217.77 287.9 221.13 286.22 217.77 282.85 214.07 282.85"/><polygon class="cls-106" points="220.46 317.79 220.46 323.22 210.7 324.56 218.78 325.57 205.66 331.96 207 334.32 210.7 334.32 211.71 331.29 221.47 327.59 221.47 337.01 220.46 339.36 224.49 340.37 224.49 337.35 223.49 326.92 234.92 330.28 234.92 334.32 237.28 333.64 236.6 328.94 224.49 325.24 228.53 321.87 230.55 320.53 229.2 319.18 222.81 323.22 222.54 318.37 220.46 317.79"/><polygon class="cls-109" points="220.46 317.84 216.42 318.51 210.7 313.46 220.46 317.84"/><polygon class="cls-101" points="274.83 357.87 381.91 297.63 353.38 280.37 247 342.02 274.83 357.87"/><path class="cls-102" d="M498.35,681.94c-.45,1.85,4.83,30,4.83,30l3.17.35-3.87-27.83Z" transform="translate(-228 -326.63)"/><path class="cls-102" d="M475,669.42v32.33l3.52,2.11-3.45-34.45A0,0,0,0,0,475,669.42Z" transform="translate(-228 -326.63)"/><polygon class="cls-103" points="348.04 296.75 350.06 304.49 353.42 308.52 357.46 308.52 359.14 306.84 353.42 296.75 348.04 296.75"/><polygon class="cls-104" points="348.04 296.75 351.07 297.76 351.07 302.47 352.75 299.78 353.42 303.48 357.12 305.49 359.14 296.75 356.45 292.38 351.74 291.37 348.04 296.75"/><path class="cls-105" d="M566.62,649.95v-3l-3.7-4,1.68-3.7,4,5.38,1,5.38Z" transform="translate(-228 -326.63)"/><polygon class="cls-2" points="353.42 308.52 345.01 314.58 343.33 325 341.65 321.98 338.29 323.32 341.65 330.38 345.69 332.07 349.72 326.01 348.04 332.07 346.69 335.09 352.75 340.14 354.77 320.97 357.8 314.91 365.87 309.87 361.83 305.49 357.12 305.49 359.14 309.53 353.42 308.52"/><polygon class="cls-106" points="367.55 309.19 357.8 314.91 354.57 322.82 352.75 340.14 359.14 340.14 364.86 335.77 368.89 312.89 367.55 309.19"/><polygon class="cls-107" points="333.24 354.27 333.24 356.62 328.87 358.64 317.1 351.58 319.79 348.55 325.17 350.16 333.24 354.27"/><polyline class="cls-108" points="364.86 335.77 363.18 340.14 352.08 345.86 338.29 340.14 332.57 335.77 332.57 349.56 333.24 354.27 327.52 354.27 325.17 351.91 325.84 346.19 325.17 331.73 325.17 326.69 331.22 326.69 344 333.08 349.81 338.5 353.59 338.01"/><path class="cls-107" d="M564.85,665.67c-.58.76-2.6,2.78-2.26,3.12S573,676.52,573,676.52l1.35-2.69Z" transform="translate(-228 -326.63)"/><polyline class="cls-105" points="342.32 310.88 345.35 314.58 348.71 312.89 345.35 309.53 341.65 309.53"/><polygon class="cls-106" points="348.04 344.47 348.04 349.89 338.29 351.24 346.36 352.25 333.24 358.64 334.59 360.99 338.29 360.99 339.3 357.97 349.05 354.27 349.05 363.69 348.04 366.04 352.08 367.05 352.08 364.02 351.07 353.59 362.5 356.96 362.5 360.99 364.86 360.32 364.19 355.61 352.08 351.91 356.11 348.55 358.13 347.2 356.79 345.86 350.39 349.89 350.12 345.05 348.04 344.47"/><polygon class="cls-109" points="348.04 344.51 344 345.18 338.29 340.14 348.04 344.51"/><polygon class="cls-103" points="307.46 323.07 309.48 330.81 312.84 334.85 316.88 334.85 318.56 333.16 312.84 323.07 307.46 323.07"/><polygon class="cls-104" points="307.46 323.07 310.49 324.08 310.49 328.79 312.17 326.1 312.84 329.8 316.54 331.82 318.56 323.07 315.87 318.7 311.16 317.69 307.46 323.07"/><path class="cls-105" d="M526,676.27v-3l-3.7-4,1.68-3.7,4,5.38,1,5.38Z" transform="translate(-228 -326.63)"/><polygon class="cls-110" points="312.84 334.85 304.43 340.9 302.75 351.33 301.07 348.3 297.7 349.64 301.07 356.71 305.1 358.39 309.14 352.34 307.46 358.39 306.11 361.42 312.17 366.46 314.19 347.29 317.21 341.24 325.29 336.19 321.25 331.82 316.54 331.82 318.56 335.85 312.84 334.85"/><polygon class="cls-106" points="326.97 335.52 317.21 341.24 313.99 349.14 312.17 366.46 318.56 366.46 324.28 362.09 328.31 339.22 326.97 335.52"/><polygon class="cls-107" points="292.66 380.59 292.66 382.94 288.29 384.96 276.51 377.9 279.2 374.87 284.58 376.49 292.66 380.59"/><polyline class="cls-109" points="324.28 362.09 322.59 366.46 311.49 372.18 297.7 366.46 291.99 362.09 291.99 375.88 292.66 380.59 286.94 380.59 284.58 378.24 285.26 372.52 284.58 358.05 284.58 353.01 290.64 353.01 303.42 359.4 309.23 364.82 313.01 364.33"/><path class="cls-107" d="M524.26,692c-.58.76-2.6,2.78-2.26,3.12s10.43,7.74,10.43,7.74l1.35-2.69Z" transform="translate(-228 -326.63)"/><polyline class="cls-105" points="301.74 337.2 304.77 340.9 308.13 339.22 304.77 335.85 301.07 335.85"/><polygon class="cls-106" points="307.46 370.79 307.46 376.22 297.7 377.56 305.78 378.57 292.66 384.96 294 387.32 297.7 387.32 298.71 384.29 308.47 380.59 308.47 390.01 307.46 392.36 311.49 393.37 311.49 390.35 310.49 379.92 321.92 383.28 321.92 387.32 324.28 386.64 323.6 381.94 311.49 378.24 315.53 374.87 317.55 373.53 316.2 372.18 309.81 376.22 309.54 371.37 307.46 370.79"/><polygon class="cls-109" points="307.46 370.84 303.42 371.51 297.7 366.46 307.46 370.84"/><polygon class="cls-101" points="362.83 406.87 469.91 346.63 441.38 329.37 335 391.02 362.83 406.87"/><path class="cls-102" d="M586.35,730.94c-.45,1.85,4.83,30,4.83,30l3.17.35-3.87-27.83Z" transform="translate(-228 -326.63)"/><path class="cls-102" d="M563,718.42v32.33l3.52,2.11-3.45-34.45A0,0,0,0,0,563,718.42Z" transform="translate(-228 -326.63)"/><polygon class="cls-103" points="436.04 345.75 438.06 353.49 441.42 357.52 445.46 357.52 447.14 355.84 441.42 345.75 436.04 345.75"/><polygon class="cls-104" points="436.04 345.75 439.07 346.76 439.07 351.47 440.75 348.78 441.42 352.48 445.12 354.49 447.14 345.75 444.45 341.38 439.74 340.37 436.04 345.75"/><path class="cls-105" d="M654.62,698.95v-3l-3.7-4,1.68-3.7,4,5.38,1,5.38Z" transform="translate(-228 -326.63)"/><polygon class="cls-2" points="441.42 357.52 433.01 363.58 431.33 374 429.65 370.98 426.29 372.32 429.65 379.38 433.69 381.07 437.72 375.01 436.04 381.07 434.69 384.09 440.75 389.14 442.77 369.97 445.8 363.91 453.87 358.87 449.83 354.49 445.12 354.49 447.14 358.53 441.42 357.52"/><polygon class="cls-106" points="455.55 358.19 445.8 363.91 442.57 371.82 440.75 389.14 447.14 389.14 452.86 384.77 456.89 361.89 455.55 358.19"/><polygon class="cls-107" points="421.24 403.27 421.24 405.62 416.87 407.64 405.1 400.58 407.79 397.55 413.17 399.16 421.24 403.27"/><polyline class="cls-108" points="452.86 384.77 451.18 389.14 440.08 394.86 426.29 389.14 420.57 384.77 420.57 398.56 421.24 403.27 415.52 403.27 413.17 400.91 413.84 395.19 413.17 380.73 413.17 375.69 419.22 375.69 432 382.08 437.81 387.5 441.59 387.01"/><path class="cls-107" d="M652.85,714.67c-.58.76-2.6,2.78-2.26,3.12S661,725.52,661,725.52l1.35-2.69Z" transform="translate(-228 -326.63)"/><polyline class="cls-105" points="430.32 359.88 433.35 363.58 436.71 361.89 433.35 358.53 429.65 358.53"/><polygon class="cls-106" points="436.04 393.47 436.04 398.89 426.29 400.24 434.36 401.25 421.24 407.64 422.59 409.99 426.29 409.99 427.3 406.97 437.05 403.27 437.05 412.69 436.04 415.04 440.08 416.05 440.08 413.02 439.07 402.59 450.5 405.96 450.5 409.99 452.86 409.32 452.19 404.61 440.08 400.91 444.11 397.55 446.13 396.2 444.79 394.86 438.39 398.89 438.12 394.05 436.04 393.47"/><polygon class="cls-109" points="436.04 393.51 432 394.18 426.29 389.14 436.04 393.51"/><polygon class="cls-103" points="395.46 372.07 397.48 379.81 400.84 383.85 404.88 383.85 406.56 382.16 400.84 372.07 395.46 372.07"/><polygon class="cls-104" points="395.46 372.07 398.49 373.08 398.49 377.79 400.17 375.1 400.84 378.8 404.54 380.82 406.56 372.07 403.87 367.7 399.16 366.69 395.46 372.07"/><path class="cls-105" d="M614,725.27v-3l-3.7-4,1.68-3.7,4,5.38,1,5.38Z" transform="translate(-228 -326.63)"/><polygon class="cls-110" points="400.84 383.85 392.43 389.9 390.75 400.33 389.07 397.3 385.7 398.64 389.07 405.71 393.1 407.39 397.14 401.34 395.46 407.39 394.11 410.42 400.17 415.46 402.19 396.29 405.21 390.24 413.29 385.19 409.25 380.82 404.54 380.82 406.56 384.85 400.84 383.85"/><polygon class="cls-106" points="414.97 384.52 405.21 390.24 401.99 398.14 400.17 415.46 406.56 415.46 412.28 411.09 416.31 388.22 414.97 384.52"/><polygon class="cls-107" points="380.66 429.59 380.66 431.94 376.29 433.96 364.51 426.9 367.2 423.87 372.58 425.49 380.66 429.59"/><polyline class="cls-109" points="412.28 411.09 410.59 415.46 399.49 421.18 385.7 415.46 379.99 411.09 379.99 424.88 380.66 429.59 374.94 429.59 372.58 427.24 373.26 421.52 372.58 407.05 372.58 402.01 378.64 402.01 391.42 408.4 397.23 413.82 401.01 413.33"/><path class="cls-107" d="M612.26,741c-.58.76-2.6,2.78-2.26,3.12s10.43,7.74,10.43,7.74l1.35-2.69Z" transform="translate(-228 -326.63)"/><polyline class="cls-105" points="389.74 386.2 392.77 389.9 396.13 388.22 392.77 384.85 389.07 384.85"/><polygon class="cls-106" points="395.46 419.79 395.46 425.22 385.7 426.56 393.78 427.57 380.66 433.96 382 436.32 385.7 436.32 386.71 433.29 396.47 429.59 396.47 439.01 395.46 441.36 399.49 442.37 399.49 439.35 398.49 428.92 409.92 432.28 409.92 436.32 412.28 435.64 411.6 430.94 399.49 427.24 403.53 423.87 405.55 422.53 404.2 421.18 397.81 425.22 397.54 420.37 395.46 419.79"/><polygon class="cls-109" points="395.46 419.84 391.42 420.51 385.7 415.46 395.46 419.84"/><path class="cls-111" d="M485.78,457.19v26l1.68.84V458Z" transform="translate(-228 -326.63)"/><polygon class="cls-112" points="261.13 132.24 261.13 156.53 259.46 157.37 259.46 131.4 261.13 132.24"/><polygon class="cls-113" points="240.19 73.59 267 89.51 265.32 134.75 237.68 119.67 240.19 73.59"/><polygon class="cls-114" points="242.7 76.94 266.16 90.34 265.32 94.53 241.03 80.29 241.87 77.78 242.7 76.94"/><path class="cls-25" d="M469,406.92s-1.68,14.24-1.68,17.59.84,9.22.84,10.89-4.19,6.7-4.19,6.7l25.14,14.24s3.35-10.89,2.51-12.57-.84-12.57-.84-12.57l2.51-10.05Z" transform="translate(-228 -326.63)"/><path class="cls-111" d="M468.19,448v26l1.68.84v-26Z" transform="translate(-228 -326.63)"/><polygon class="cls-112" points="243.54 123.02 243.54 147.32 241.87 148.16 241.87 122.18 243.54 123.02"/><ellipse class="cls-115" cx="244.28" cy="93.28" rx="3.26" ry="3.77"/><polygon class="cls-116" points="248.57 116.32 248.57 112.97 251.08 114.64 251.08 117.99 248.57 116.32"/><polygon class="cls-117" points="251.92 118.83 251.92 112.13 254.43 113.81 254.43 120.51 251.92 118.83"/><polygon class="cls-118" points="255.27 121.34 255.27 118.83 257.78 120.51 257.78 123.02 255.27 121.34"/><polygon class="cls-119" points="246.89 115.48 257.78 123.02 257.78 123.86 246.05 116.32 246.89 115.48"/><polygon class="cls-119" points="253.59 104.59 261.13 108.78 261.13 109.62 253.59 105.43 253.59 104.59"/><polygon class="cls-119" points="255.27 103.75 261.13 107.1 261.13 107.94 255.27 104.59 255.27 103.75"/><polygon class="cls-119" points="255.27 102.08 261.13 105.43 261.13 106.26 255.27 102.91 255.27 102.08"/><polygon class="cls-119" points="255.27 100.4 261.13 103.75 261.13 104.59 255.27 101.24 255.27 100.4"/><ellipse class="cls-120" cx="250.99" cy="97.47" rx="3.26" ry="3.77"/><path class="cls-111" d="M520.78,478.19v26l1.68.84V479Z" transform="translate(-228 -326.63)"/><polygon class="cls-112" points="296.13 153.24 296.13 177.53 294.46 178.37 294.46 152.4 296.13 153.24"/><polygon class="cls-113" points="275.19 94.59 302 110.51 300.32 155.75 272.68 140.67 275.19 94.59"/><polygon class="cls-114" points="277.7 97.94 301.16 111.34 300.32 115.53 276.03 101.29 276.87 98.78 277.7 97.94"/><path class="cls-25" d="M504,427.92s-1.68,14.24-1.68,17.59.84,9.22.84,10.89-4.19,6.7-4.19,6.7l25.14,14.24s3.35-10.89,2.51-12.57-.84-12.57-.84-12.57l2.51-10.05Z" transform="translate(-228 -326.63)"/><path class="cls-111" d="M503.19,469v26l1.68.84v-26Z" transform="translate(-228 -326.63)"/><polygon class="cls-112" points="278.54 144.02 278.54 168.32 276.87 169.16 276.87 143.18 278.54 144.02"/><line class="cls-117" x1="286.92" y1="139.83" x2="286.92" y2="133.13"/><line class="cls-119" x1="281.05" y1="137.32" x2="281.89" y2="136.48"/><line class="cls-119" x1="292.78" y1="144.02" x2="292.78" y2="144.86"/><polygon class="cls-119" points="288.6 125.59 296.13 129.78 296.13 130.62 288.6 126.43 288.6 125.59"/><polygon class="cls-119" points="290.27 124.75 296.13 128.1 296.13 128.94 290.27 125.59 290.27 124.75"/><polygon class="cls-119" points="290.27 123.08 296.13 126.43 296.13 127.26 290.27 123.91 290.27 123.08"/><polygon class="cls-119" points="290.27 121.4 296.13 124.75 296.13 125.59 290.27 122.24 290.27 121.4"/><path class="cls-111" d="M562.78,502.19v26l1.68.84V503Z" transform="translate(-228 -326.63)"/><polygon class="cls-112" points="338.13 177.24 338.13 201.53 336.46 202.37 336.46 176.4 338.13 177.24"/><polygon class="cls-113" points="317.19 118.59 344 134.51 342.32 179.75 314.68 164.67 317.19 118.59"/><polygon class="cls-114" points="319.7 121.94 343.16 135.34 342.32 139.53 318.03 125.29 318.87 122.78 319.7 121.94"/><path class="cls-25" d="M546,451.92s-1.68,14.24-1.68,17.59.84,9.22.84,10.89-4.19,6.7-4.19,6.7l25.14,14.24s3.35-10.89,2.51-12.57-.84-12.57-.84-12.57l2.51-10.05Z" transform="translate(-228 -326.63)"/><path class="cls-111" d="M545.19,493v26l1.68.84v-26Z" transform="translate(-228 -326.63)"/><polygon class="cls-112" points="320.54 168.02 320.54 192.32 318.87 193.16 318.87 167.18 320.54 168.02"/><ellipse class="cls-115" cx="321.28" cy="138.28" rx="3.26" ry="3.77"/><polygon class="cls-116" points="325.57 161.32 325.57 157.97 328.08 159.64 328.08 162.99 325.57 161.32"/><polygon class="cls-117" points="328.92 163.83 328.92 157.13 331.43 158.81 331.43 165.51 328.92 163.83"/><polygon class="cls-118" points="332.27 166.34 332.27 163.83 334.78 165.51 334.78 168.02 332.27 166.34"/><polygon class="cls-119" points="323.89 160.48 334.78 168.02 334.78 168.86 323.05 161.32 323.89 160.48"/><polygon class="cls-119" points="330.6 149.59 338.13 153.78 338.13 154.62 330.6 150.43 330.6 149.59"/><polygon class="cls-119" points="332.27 148.75 338.13 152.1 338.13 152.94 332.27 149.59 332.27 148.75"/><polygon class="cls-119" points="332.27 147.07 338.13 150.43 338.13 151.26 332.27 147.91 332.27 147.07"/><polygon class="cls-119" points="332.27 145.4 338.13 148.75 338.13 149.59 332.27 146.24 332.27 145.4"/><ellipse class="cls-120" cx="327.99" cy="142.47" rx="3.26" ry="3.77"/><path class="cls-111" d="M597.78,523.19v26l1.68.84V524Z" transform="translate(-228 -326.63)"/><polygon class="cls-112" points="373.13 198.24 373.13 222.53 371.46 223.37 371.46 197.4 373.13 198.24"/><polygon class="cls-113" points="352.19 139.59 379 155.51 377.32 200.75 349.68 185.67 352.19 139.59"/><polygon class="cls-114" points="354.7 142.94 378.16 156.34 377.32 160.53 353.03 146.29 353.87 143.78 354.7 142.94"/><path class="cls-25" d="M581,472.92s-1.68,14.24-1.68,17.59.84,9.22.84,10.89-4.19,6.7-4.19,6.7l25.14,14.24s3.35-10.89,2.51-12.57-.84-12.57-.84-12.57l2.51-10.05Z" transform="translate(-228 -326.63)"/><path class="cls-111" d="M580.19,514v26l1.68.84v-26Z" transform="translate(-228 -326.63)"/><polygon class="cls-112" points="355.54 189.02 355.54 213.32 353.87 214.16 353.87 188.18 355.54 189.02"/><line class="cls-117" x1="363.92" y1="184.83" x2="363.92" y2="178.13"/><line class="cls-119" x1="358.05" y1="182.32" x2="358.89" y2="181.48"/><line class="cls-119" x1="369.78" y1="189.02" x2="369.78" y2="189.86"/><polygon class="cls-119" points="365.6 170.59 373.13 174.78 373.13 175.62 365.6 171.43 365.6 170.59"/><polygon class="cls-119" points="367.27 169.75 373.13 173.1 373.13 173.94 367.27 170.59 367.27 169.75"/><polygon class="cls-119" points="367.27 168.07 373.13 171.43 373.13 172.26 367.27 168.91 367.27 168.07"/><polygon class="cls-119" points="367.27 166.4 373.13 169.75 373.13 170.59 367.27 167.24 367.27 166.4"/></svg>