<svg id="Layer_3" data-name="Layer 3" xmlns="http://www.w3.org/2000/svg" viewBox="0 0 815 409.5"><defs><style>.cls-1{fill:#abbcef;}.cls-2{fill:#f9e99d;}.cls-3{fill:#aaa42e;}.cls-4{fill:none;stroke:#0028aa;}.cls-36,.cls-5{fill:#fff;}.cls-5{opacity:0.84;}.cls-6{fill:#ffc0a9;}.cls-7{fill:#ebebeb;}.cls-8{fill:#d6d6d6;}.cls-9{fill:#979797;}.cls-10{fill:#b2b2b2;}.cls-11{fill:#adadad;}.cls-12{fill:#888;}.cls-13{fill:#e8aa95;}.cls-14{fill:#cacaca;}.cls-15{fill:#44170a;}.cls-16{fill:#002229;}.cls-17{fill:#e5f0f2;}.cls-18{fill:#003d46;}.cls-19{fill:#cec1b0;}.cls-20{fill:#7e7a6f;}.cls-21{fill:#8f8b7f;}.cls-22{fill:#1a93a8;opacity:0.43;}.cls-23{fill:#ccc;}.cls-24{fill:#797979;}.cls-25{fill:#e0e2d5;}.cls-26{fill:#d0c3b2;}.cls-27{fill:#a19d94;}.cls-28{fill:#eec4a4;}.cls-29{fill:#2d1a12;}.cls-30{fill:#e3b18f;}.cls-31{fill:#766f64;}.cls-32{fill:#705538;}.cls-33{fill:#006da1;}.cls-34{fill:#4d4338;}.cls-35{fill:#fcf8da;}.cls-37{fill:#4b2608;}.cls-38{fill:#ecb48a;}.cls-39{fill:#4c4c4c;}.cls-40{fill:#282828;}.cls-41{fill:#361409;}.cls-42{fill:#e9bf9f;}.cls-43{fill:#f7bb8d;}.cls-44{fill:#415477;}.cls-45{fill:#0e4578;}.cls-46{fill:#787f7d;}.cls-47{fill:#71b596;}.cls-48{fill:#98edc9;}.cls-49{fill:#3f3f3f;}.cls-50{fill:#908581;}.cls-51{fill:#afb8b5;}.cls-52{fill:#95908d;}.cls-53{fill:#414141;}.cls-54{fill:#757575;}.cls-55{fill:#3a3635;}.cls-56{fill:#a9c7f7;}.cls-57{fill:#93bcf9;}.cls-58{fill:#9aca4a;}.cls-59{fill:#693400;}.cls-60{fill:#f4c8a3;}.cls-61{fill:#ffdcfd;}.cls-62{fill:#ddb79b;}.cls-63{fill:#f9afda;}.cls-64{fill:#e6b083;}.cls-65{fill:#f4bb90;}.cls-66{fill:#a19a94;}.cls-67{fill:#606060;opacity:0;}.cls-68{fill:#24070e;}.cls-69{fill:#ae997e;}.cls-70{fill:#19141d;}.cls-71{fill:#ffeded;}.cls-72{fill:#5d4f4c;}</style></defs><title>f2</title><polygon class="cls-1" points="0.5 242.5 119.1 310.83 184.5 272.5 420.5 409.5 657.5 272.5 696.5 295.5 814.5 227.5 420.5 0.5 0.5 242.5"/><polygon class="cls-2" points="301 69 697 295 815 227 421 0 301 69"/><polygon class="cls-3" points="422 139 301 69 0 243 119 311 422 139"/><path class="cls-4" d="M346.5,646.5" transform="translate(-227 -336)"/><path class="cls-4" d="M411.5,608.5" transform="translate(-227 -336)"/><polygon class="cls-5" points="0 243 119 311 423 139 301 69 0 243"/><path class="cls-4" d="M923.5,647.5" transform="translate(-227 -336)"/><path class="cls-4" d="M884.5,608.5" transform="translate(-227 -336)"/><path class="cls-4" d="M923.5,647.5" transform="translate(-227 -336)"/><path class="cls-4" d="M884.5,624.5" transform="translate(-227 -336)"/><polyline class="cls-6" points="82.52 203.64 88.61 203.52 91.22 207.87 82.52 207.87 82.52 203.64"/><polygon class="cls-7" points="44.26 201.78 103.39 173.09 103.39 194.83 55.56 216.56 50.35 213.09 44.26 201.78"/><polygon class="cls-8" points="55.56 216.56 103.39 194.83 122.52 205.26 71.22 231.35 55.56 216.56"/><polygon class="cls-9" points="39.04 200.04 39.04 233.96 66.87 247 66 225.26 46.87 216.56 44.26 201.78 39.04 200.04"/><polygon class="cls-10" points="39.04 200.04 97.3 169.61 103.39 173.09 44.26 201.78 39.04 200.04"/><polygon class="cls-11" points="44.26 201.78 46.96 200.47 52.04 214.21 46.87 216.56 44.26 201.78"/><polygon class="cls-11" points="46.87 216.56 66 225.26 70.35 223.52 52.09 213.96 46.87 216.56"/><polygon class="cls-7" points="70.35 223.52 70.35 245.26 66.87 247 66 225.26 70.35 223.52"/><polygon class="cls-10" points="103.39 173.09 108.61 187 103.39 189.8 103.39 173.09"/><polygon class="cls-11" points="69.48 230.48 70.35 240.91 122.52 213.09 122.52 205.26 69.48 230.48"/><polygon class="cls-7" points="103.39 189.61 122.52 197.44 126 194.83 108.61 186.13 103.39 189.61"/><polygon class="cls-12" points="122.52 197.44 122.52 217.44 126 216.56 126 194.83 122.52 197.44"/><polygon class="cls-10" points="103.39 189.61 122.52 197.44 122.52 205.26 103.39 194.83 103.39 189.61"/><polyline class="cls-13" points="71.22 179.17 72.09 184.39 75.56 185.26 77.3 183.52 74.7 177.44 71.22 179.17"/><polygon class="cls-14" points="70.35 181.35 62.52 185.26 60.78 211.35 66.87 213.09 77.3 213.09 79.91 185.26 76.44 183.52 70.35 181.35"/><polyline class="cls-15" points="72.96 178.03 71.22 179.17 72.09 168.74 78.17 167 84.26 172.22 82.52 176.88 72.96 178.03"/><polygon class="cls-6" points="72.96 174.83 73.83 180.04 79.04 183.52 82.52 174.83 78.17 174.83 75.56 176.56 74.7 174.83 72.96 174.83"/><polygon class="cls-16" points="78.17 207.87 98.17 215.7 96.44 238.3 90.71 239.45 92.09 220.04 77.3 212.22 78.17 207.87"/><path class="cls-17" d="M289.52,522.13c0,1.74,2.61,18.26,2.61,18.26l17.39,3.48-.87-6.09L293.87,536l2.61-12.17L293,521.26Z" transform="translate(-227 -336)"/><polygon class="cls-18" points="62.52 212.22 64.26 216.56 83.39 221.78 80.78 240.04 88.61 240.91 92.09 218.3 75.56 211.35 62.52 212.22"/><polygon class="cls-6" points="82.52 203.64 86.87 203.56 86.87 206.13 82.27 206.13 82.52 203.64"/><polygon class="cls-16" points="83.57 240.35 83.39 243.52 89.48 247 88.61 243.52 86.44 240.67 83.57 240.35"/><polygon class="cls-18" points="93.37 238.92 92.96 243.52 99.91 242.65 95.56 240.91 94.7 239.17 93.37 238.92"/><polygon class="cls-19" points="234.74 264.41 314.85 313.94 360 289.17 268.24 230.91 226 258.59 234.74 264.41"/><polyline class="cls-20" points="233.16 272.07 240.72 280.58 253.73 277.26 255.05 272.85 243.17 265.93 237.6 274.12"/><polyline class="cls-20" points="246.5 279.1 246.95 293.5 248.41 293.45 249.86 293.41"/><path class="cls-20" d="M475,615.06" transform="translate(-227 -336)"/><polygon class="cls-20" points="236.58 288 246.59 282.05 239.53 289.36 236.58 288"/><polyline class="cls-20" points="248.09 283.26 257 288.81 258.37 285.86 246.59 281.85"/><polygon class="cls-21" points="232 258.27 232.46 272.82 242.74 275.42 242.47 266.68 237.82 258.08 232 258.27"/><polyline class="cls-20" points="259.38 288.1 266.93 296.6 279.94 293.28 281.26 288.87 269.39 281.95 263.82 290.14"/><polyline class="cls-20" points="272.72 295.13 273.17 309.52 274.62 309.48 276.08 309.43"/><path class="cls-20" d="M501.17,631.08" transform="translate(-227 -336)"/><polygon class="cls-20" points="262.8 304.02 272.81 298.07 265.75 305.38 262.8 304.02"/><polyline class="cls-20" points="274.3 299.29 283.22 304.83 284.59 301.88 272.8 297.88"/><polygon class="cls-21" points="258.22 274.29 258.68 288.85 268.96 291.44 268.68 282.7 264.04 274.11 258.22 274.29"/><polyline class="cls-20" points="287.05 304.12 294.61 312.62 307.62 309.3 308.94 304.89 297.06 297.98 291.49 306.17"/><polyline class="cls-20" points="300.39 311.15 300.84 325.54 302.3 325.5 303.75 325.45"/><path class="cls-20" d="M528.85,647.1" transform="translate(-227 -336)"/><polygon class="cls-20" points="290.47 320.04 300.48 314.09 293.43 321.4 290.47 320.04"/><polyline class="cls-20" points="301.98 315.31 310.89 320.86 312.26 317.9 300.48 313.9"/><polygon class="cls-21" points="285.89 290.31 286.35 304.87 296.63 307.46 296.36 298.73 291.71 290.13 285.89 290.31"/><polygon class="cls-21" points="278.69 237.55 281.35 228 291.54 235.28 287.05 242.86 278.69 237.55"/><polygon class="cls-21" points="294.72 247.75 297.37 238.2 307.56 245.48 303.08 253.06 294.72 247.75"/><polygon class="cls-21" points="310.74 257.94 313.39 248.39 323.59 255.67 319.1 263.25 310.74 257.94"/><polygon class="cls-21" points="326.76 268.14 329.41 258.59 339.61 265.87 335.12 273.45 326.76 268.14"/><polygon class="cls-21" points="360 289.17 360 300.83 357.52 291.44 360 289.17"/><polygon class="cls-21" points="317.76 312.48 317.76 324.13 315.28 314.74 317.76 312.48"/><polygon class="cls-19" points="358.74 321.41 438.85 370.94 484 346.17 392.24 287.91 350 315.59 358.74 321.41"/><polyline class="cls-20" points="357.16 329.07 364.72 337.58 377.73 334.26 379.05 329.85 367.17 322.93 361.6 331.12"/><polyline class="cls-20" points="370.5 336.1 370.95 350.5 372.41 350.45 373.86 350.41"/><path class="cls-20" d="M599,672.06" transform="translate(-227 -336)"/><polygon class="cls-20" points="360.58 345 370.59 339.05 363.53 346.36 360.58 345"/><polyline class="cls-20" points="372.09 340.26 381 345.81 382.37 342.86 370.58 338.85"/><polygon class="cls-21" points="356 315.27 356.46 329.82 366.74 332.42 366.47 323.68 361.82 315.08 356 315.27"/><polyline class="cls-20" points="383.38 345.1 390.93 353.6 403.94 350.28 405.26 345.87 393.39 338.95 387.82 347.14"/><polyline class="cls-20" points="396.72 352.13 397.17 366.52 398.62 366.48 400.08 366.43"/><path class="cls-20" d="M625.17,688.08" transform="translate(-227 -336)"/><polygon class="cls-20" points="386.8 361.02 396.81 355.07 389.75 362.38 386.8 361.02"/><polyline class="cls-20" points="398.3 356.29 407.22 361.83 408.59 358.88 396.8 354.88"/><polygon class="cls-21" points="382.22 331.29 382.68 345.85 392.96 348.44 392.68 339.7 388.04 331.11 382.22 331.29"/><polyline class="cls-20" points="411.05 361.12 418.61 369.62 431.62 366.3 432.94 361.89 421.06 354.98 415.49 363.17"/><polyline class="cls-20" points="424.39 368.15 424.84 382.54 426.3 382.5 427.75 382.45"/><path class="cls-20" d="M652.85,704.1" transform="translate(-227 -336)"/><polygon class="cls-20" points="414.47 377.04 424.48 371.09 417.43 378.4 414.47 377.04"/><polyline class="cls-20" points="425.98 372.31 434.89 377.86 436.26 374.9 424.48 370.9"/><polygon class="cls-21" points="409.89 347.31 410.35 361.87 420.63 364.46 420.36 355.73 415.71 347.13 409.89 347.31"/><polygon class="cls-21" points="402.69 294.55 405.35 285 415.54 292.28 411.05 299.86 402.69 294.55"/><polygon class="cls-21" points="418.72 304.75 421.37 295.2 431.56 302.48 427.08 310.06 418.72 304.75"/><polygon class="cls-21" points="434.74 314.94 437.39 305.39 447.59 312.67 443.1 320.25 434.74 314.94"/><polygon class="cls-21" points="450.76 325.14 453.41 315.59 463.61 322.87 459.12 330.45 450.76 325.14"/><polygon class="cls-21" points="484 346.17 484 357.83 481.52 348.44 484 346.17"/><polygon class="cls-21" points="441.76 369.48 441.76 381.13 439.28 371.74 441.76 369.48"/><path class="cls-22" d="M416.29,538.61c1.24-.89.83-2.1.61-3.26-.47-2.48-.92-5-1.47-7.43-.27-1.22.26-1.56,1.32-1.59,3.05-.1,6.11-.2,9.16-.32.85,0,1,.4,1,1.12,0,2.28,0,4.56,0,6.85,0,.46,0,.91.06,1.41a28.1,28.1,0,0,1,3.81-.3c3.34.18,6.66.52,10,.72.29,0,.84-.51.9-.84.24-1.48.34-3,.48-4.48.1-1,.21-2,.29-3.07.07-.82.4-1.09,1.27-.93,2.74.48,5.5.89,8.25,1.28,1.24.18,1.34.38,1,1.58-.79,2.88-1.55,5.77-2.22,8.68a2,2,0,0,0,.59,1.52c.69.74,1.59,1.3,2.32,2,1.64,1.62,1.66,3.69,1.33,5.76-.3,1.84-.8,3.6-2.54,4.74a2.6,2.6,0,0,0-.7,1.47c-.44,1.74-.89,3.48-1.19,5.25a5.79,5.79,0,0,0,.2,2.25c.74,3.07,1.53,6.13,2.3,9.19,0,.07-.06.15-.16.4-.23-.16-.56-.26-.6-.43-.58-2.36-1.1-4.74-1.67-7.1-.3-1.23-.65-2.45-1-3.79-1.4.76-2.67,1.37-3.85,2.13a2.35,2.35,0,0,0-.84,1.31,17,17,0,0,1-.88,3.1v-3.38c-1.15.4-1.61.9-1.55,2,.2,3.65.27,7.31.39,11,0,.45,0,.91,0,1.36l-.45.09a6,6,0,0,1-.31-1.26c-.11-3.83-.21-7.66-.24-11.49a1.79,1.79,0,0,0-1.09-1.82c-1.28-.65-2.51-1.42-4.06-2.31-.39,2-.77,3.8-1,5.59a1.72,1.72,0,0,0,.53,1.1c.64.73.39,1.3-.17,1.92s-1.24,1.45-1.85,2.17l-.21-.94h-7.07v1.77l-.46.08-3.25-13.27c-1.54,1.45-2.83,2.62-4,3.87a1.94,1.94,0,0,0-.3,1.2c-.1,4-.18,8.09-.26,12.13,0,.36-.07.71-.1,1.07h-.35c-.06-.8-.18-1.6-.18-2.4,0-3.4,0-6.8.13-10.2,0-1.06-.32-1.62-1.39-1.76a14.56,14.56,0,0,1-1.86-.54l.55,3.26-.29.18a5.45,5.45,0,0,1-.59-.95,5.9,5.9,0,0,1-.07-.9c-.21-1-.39-2.12-1.75-2.31-.25,0-.48-.2-.72-.25-.91-.18-2-.7-2.67-.39-.49.22-.51,1.57-.67,2.42-.48,2.48-.93,5-1.41,7.45a3.44,3.44,0,0,1-.43.85l-.36-.13c.19-1.11.36-2.22.57-3.32.42-2.27,1-4.51,1.22-6.8a16.45,16.45,0,0,0-.57-4.43c-.6-3.06-1.27-6.1-1.92-9.15-.22-1-.47-2.09-.7-3.13s.23-1.26,1.12-.94l3.57,1.31c1.17-1.52,2.18-3,3.34-4.26a4.33,4.33,0,0,1,3.27-1.76c-.32.33-.58.78-1,1a10.71,10.71,0,0,0-4.12,3.77c-.65,1-.51,1.64.56,2.05,1.85.72,3.72,1.39,5.57,2.09.81.31,1.41.73,1.26,1.78a11.41,11.41,0,0,0-.07,2.32c0,.33.19.84.43.95a9.49,9.49,0,0,0,2.09.56c2.61.46,5.21,1,7.84,1.32a38.11,38.11,0,0,0,12.8-.79,1.16,1.16,0,0,0,.66-.84c.11-1.06,0-2.16.16-3.2a2.35,2.35,0,0,1,1-1.55c2.83-1.4,5.73-2.66,8.61-4,1.8-.82,1.89-1.29.51-2.72a5.47,5.47,0,0,0-1.33-1c-1.28-.68-2.57-1.35-3.89-1.94A27.54,27.54,0,0,0,436.75,536a77.7,77.7,0,0,0-8.5,0,66.07,66.07,0,0,0-7.8,1.36C419,537.71,417.68,538.21,416.29,538.61Zm25.82,15.92c-7.86,1.15-15.67,1.27-23.36-1.34-.28,1.14,0,1.93,1.19,2.22,2.46.56,4.89,1.35,7.38,1.67a42.73,42.73,0,0,0,13.46-.44C442.29,556.35,442.41,556.24,442.12,554.53ZM426,566a17.34,17.34,0,0,0,2.54-.77,1.69,1.69,0,0,0,.9-1.11,44.88,44.88,0,0,0,0-5,1.36,1.36,0,0,0-.8-1,33.69,33.69,0,0,0-3.93-.57c-.78-.08-.91.36-.71,1.08.34,1.18.56,2.39.88,3.58S425.6,564.71,426,566Zm11.28-7.73c-1.52,0-2.8-.06-4.07,0-.36,0-1,.49-1,.77a38.56,38.56,0,0,0,0,5.28c.1,1.19,1.34,1,2.14,1.15s.77-.53.83-1.09.19-.92.27-1.38c.21-1.34.41-2.69.64-4.18ZM453,548.1a3,3,0,0,0,.94-4.26Z" transform="translate(-227 -336)"/><path class="cls-23" d="M416.29,538.61c1.38-.4,2.75-.89,4.16-1.18a66.07,66.07,0,0,1,7.8-1.36,77.7,77.7,0,0,1,8.5,0,27.54,27.54,0,0,1,10.71,2.31c1.32.6,2.61,1.26,3.89,1.94a5.47,5.47,0,0,1,1.33,1c1.38,1.43,1.29,1.9-.51,2.72-2.87,1.32-5.77,2.58-8.61,4a2.35,2.35,0,0,0-1,1.55c-.18,1,0,2.14-.16,3.2a1.16,1.16,0,0,1-.66.84,38.11,38.11,0,0,1-12.8.79c-2.62-.35-5.23-.86-7.84-1.32a9.49,9.49,0,0,1-2.09-.56c-.24-.1-.42-.61-.43-.95a11.41,11.41,0,0,1,.07-2.32c.16-1-.45-1.47-1.26-1.78-1.86-.7-3.72-1.37-5.57-2.09-1.08-.42-1.22-1.08-.56-2.05a10.71,10.71,0,0,1,4.12-3.77c.39-.19.65-.64,1-1Z" transform="translate(-227 -336)"/><path class="cls-24" d="M442.12,554.53c.29,1.72.17,1.83-1.32,2.11a42.73,42.73,0,0,1-13.46.44c-2.49-.32-4.92-1.11-7.38-1.67-1.24-.29-1.48-1.08-1.19-2.22C426.44,555.79,434.26,555.68,442.12,554.53Z" transform="translate(-227 -336)"/><path class="cls-25" d="M453,548.1l.94-4.26A3,3,0,0,1,453,548.1Z" transform="translate(-227 -336)"/><path class="cls-22" d="M494.29,424.61c1.24-.89.83-2.1.61-3.26-.47-2.48-.92-5-1.47-7.43-.27-1.22.26-1.56,1.32-1.59,3.05-.1,6.11-.2,9.16-.32.85,0,1,.4,1,1.12,0,2.28,0,4.56,0,6.85,0,.46,0,.91.06,1.41a28.1,28.1,0,0,1,3.81-.3c3.34.18,6.66.52,10,.72.29,0,.84-.51.9-.84.24-1.48.34-3,.48-4.48.1-1,.21-2,.29-3.07.07-.82.4-1.09,1.27-.93,2.74.48,5.5.89,8.25,1.28,1.24.18,1.34.38,1,1.58-.79,2.88-1.55,5.77-2.22,8.68a2,2,0,0,0,.59,1.52c.69.74,1.59,1.3,2.32,2,1.64,1.62,1.66,3.69,1.33,5.76-.3,1.84-.8,3.6-2.54,4.74a2.6,2.6,0,0,0-.7,1.47c-.44,1.74-.89,3.48-1.19,5.25a5.79,5.79,0,0,0,.2,2.25c.74,3.07,1.53,6.13,2.3,9.19,0,.07-.06.15-.16.4-.23-.16-.56-.26-.6-.43-.58-2.36-1.1-4.74-1.67-7.1-.3-1.23-.65-2.45-1-3.79-1.4.76-2.67,1.37-3.85,2.13a2.35,2.35,0,0,0-.84,1.31,17,17,0,0,1-.88,3.1v-3.38c-1.15.4-1.61.9-1.55,2,.2,3.65.27,7.31.39,11,0,.45,0,.91,0,1.36l-.45.09a6,6,0,0,1-.31-1.26c-.11-3.83-.21-7.66-.24-11.49a1.79,1.79,0,0,0-1.09-1.82c-1.28-.65-2.51-1.42-4.06-2.31-.39,2-.77,3.8-1,5.59a1.72,1.72,0,0,0,.53,1.1c.64.73.39,1.3-.17,1.92s-1.24,1.45-1.85,2.17l-.21-.94h-7.07v1.77l-.46.08-3.25-13.27c-1.54,1.45-2.83,2.62-4,3.87a1.94,1.94,0,0,0-.3,1.2c-.1,4-.18,8.09-.26,12.13,0,.36-.07.71-.1,1.07h-.35c-.06-.8-.18-1.6-.18-2.4,0-3.4,0-6.8.13-10.2,0-1.06-.32-1.62-1.39-1.76a14.56,14.56,0,0,1-1.86-.54l.55,3.26-.29.18a5.45,5.45,0,0,1-.59-.95,5.9,5.9,0,0,1-.07-.9c-.21-1-.39-2.12-1.75-2.31-.25,0-.48-.2-.72-.25-.91-.18-2-.7-2.67-.39-.49.22-.51,1.57-.67,2.42-.48,2.48-.93,5-1.41,7.45a3.44,3.44,0,0,1-.43.85l-.36-.13c.19-1.11.36-2.22.57-3.32.42-2.27,1-4.51,1.22-6.8a16.45,16.45,0,0,0-.57-4.43c-.6-3.06-1.27-6.1-1.92-9.15-.22-1-.47-2.09-.7-3.13s.23-1.26,1.12-.94l3.57,1.31c1.17-1.52,2.18-3,3.34-4.26a4.33,4.33,0,0,1,3.27-1.76c-.32.33-.58.78-1,1a10.71,10.71,0,0,0-4.12,3.77c-.65,1-.51,1.64.56,2.05,1.85.72,3.72,1.39,5.57,2.09.81.31,1.41.73,1.26,1.78a11.41,11.41,0,0,0-.07,2.32c0,.33.19.84.43.95a9.49,9.49,0,0,0,2.09.56c2.61.46,5.21,1,7.84,1.32a38.11,38.11,0,0,0,12.8-.79,1.16,1.16,0,0,0,.66-.84c.11-1.06,0-2.16.16-3.2a2.35,2.35,0,0,1,1-1.55c2.83-1.4,5.73-2.66,8.61-4,1.8-.82,1.89-1.29.51-2.72a5.47,5.47,0,0,0-1.33-1c-1.28-.68-2.57-1.35-3.89-1.94A27.54,27.54,0,0,0,514.75,422a77.7,77.7,0,0,0-8.5,0,66.07,66.07,0,0,0-7.8,1.36C497,423.71,495.68,424.21,494.29,424.61Zm25.82,15.92c-7.86,1.15-15.67,1.27-23.36-1.34-.28,1.14,0,1.93,1.19,2.22,2.46.56,4.89,1.35,7.38,1.67a42.73,42.73,0,0,0,13.46-.44C520.29,442.35,520.41,442.24,520.12,440.53ZM504,452a17.34,17.34,0,0,0,2.54-.77,1.69,1.69,0,0,0,.9-1.11,44.88,44.88,0,0,0,0-5,1.36,1.36,0,0,0-.8-1,33.69,33.69,0,0,0-3.93-.57c-.78-.08-.91.36-.71,1.08.34,1.18.56,2.39.88,3.58S503.6,450.71,504,452Zm11.28-7.73c-1.52,0-2.8-.06-4.07,0-.36,0-1,.49-1,.77a38.56,38.56,0,0,0,0,5.28c.1,1.19,1.34,1,2.14,1.15s.77-.53.83-1.09.19-.92.27-1.38c.21-1.34.41-2.69.64-4.18ZM531,434.1a3,3,0,0,0,.94-4.26Z" transform="translate(-227 -336)"/><path class="cls-23" d="M494.29,424.61c1.38-.4,2.75-.89,4.16-1.18a66.07,66.07,0,0,1,7.8-1.36,77.7,77.7,0,0,1,8.5,0,27.54,27.54,0,0,1,10.71,2.31c1.32.6,2.61,1.26,3.89,1.94a5.47,5.47,0,0,1,1.33,1c1.38,1.43,1.29,1.9-.51,2.72-2.87,1.32-5.77,2.58-8.61,4a2.35,2.35,0,0,0-1,1.55c-.18,1,0,2.14-.16,3.2a1.16,1.16,0,0,1-.66.84,38.11,38.11,0,0,1-12.8.79c-2.62-.35-5.23-.86-7.84-1.32a9.49,9.49,0,0,1-2.09-.56c-.24-.1-.42-.61-.43-.95a11.41,11.41,0,0,1,.07-2.32c.16-1-.45-1.47-1.26-1.78-1.86-.7-3.72-1.37-5.57-2.09-1.08-.42-1.22-1.08-.56-2.05a10.71,10.71,0,0,1,4.12-3.77c.39-.19.65-.64,1-1Z" transform="translate(-227 -336)"/><path class="cls-24" d="M520.12,440.53c.29,1.72.17,1.83-1.32,2.11a42.73,42.73,0,0,1-13.46.44c-2.49-.32-4.92-1.11-7.38-1.67-1.24-.29-1.48-1.08-1.19-2.22C504.44,441.79,512.26,441.68,520.12,440.53Z" transform="translate(-227 -336)"/><path class="cls-25" d="M531,434.1l.94-4.26A3,3,0,0,1,531,434.1Z" transform="translate(-227 -336)"/><polygon class="cls-26" points="493.37 295.63 591 240.71 564.99 224.98 468 281.18 493.37 295.63"/><path class="cls-27" d="M716.29,629.3c-.41,1.68,4.41,27.38,4.41,27.38l2.89.32L720,631.63Z" transform="translate(-227 -336)"/><path class="cls-27" d="M695,617.89v29.48l3.21,1.93-3.14-31.41A0,0,0,0,0,695,617.89Z" transform="translate(-227 -336)"/><polygon class="cls-28" points="560.12 239.91 561.96 246.96 565.03 250.64 568.71 250.64 570.24 249.11 565.03 239.91 560.12 239.91"/><polygon class="cls-29" points="560.12 239.91 562.88 240.83 562.88 245.12 564.41 242.67 565.03 246.04 568.4 247.88 570.24 239.91 567.79 235.92 563.49 235 560.12 239.91"/><path class="cls-30" d="M778.53,600.13v-2.76l-3.37-3.68,1.53-3.37,3.68,4.91.92,4.91Z" transform="translate(-227 -336)"/><polygon class="cls-22" points="565.03 250.64 557.36 256.16 555.83 265.67 554.29 262.91 551.23 264.13 554.29 270.57 557.97 272.11 561.65 266.59 560.12 272.11 558.89 274.87 564.41 279.47 566.25 261.99 569.01 256.47 576.37 251.87 572.69 247.88 568.4 247.88 570.24 251.56 565.03 250.64"/><polygon class="cls-31" points="577.91 251.25 569.01 256.47 566.08 263.67 564.41 279.47 570.24 279.47 575.45 275.48 579.13 254.63 577.91 251.25"/><polygon class="cls-32" points="546.63 292.35 546.63 294.49 542.64 296.33 531.91 289.89 534.36 287.13 539.27 288.61 546.63 292.35"/><polyline class="cls-33" points="575.45 275.48 573.92 279.47 563.8 284.68 551.23 279.47 546.01 275.48 546.01 288.05 546.63 292.35 541.41 292.35 539.27 290.2 539.88 284.99 539.27 271.8 539.27 267.2 544.79 267.2 556.44 273.03 561.74 277.97 565.18 277.52"/><path class="cls-32" d="M776.91,614.46c-.53.7-2.37,2.54-2.06,2.84s9.51,7.05,9.51,7.05l1.23-2.45Z" transform="translate(-227 -336)"/><polyline class="cls-30" points="554.91 252.79 557.67 256.16 560.73 254.63 557.67 251.56 554.29 251.56"/><polygon class="cls-31" points="560.12 283.41 560.12 288.36 551.23 289.59 558.59 290.51 546.63 296.33 547.85 298.48 551.23 298.48 552.15 295.72 561.04 292.35 561.04 300.93 560.12 303.08 563.8 304 563.8 301.24 562.88 291.73 573.31 294.8 573.31 298.48 575.45 297.87 574.84 293.57 563.8 290.2 567.48 287.13 569.32 285.91 568.09 284.68 562.27 288.36 562.02 283.94 560.12 283.41"/><polygon class="cls-34" points="560.12 283.45 556.44 284.06 551.23 279.47 560.12 283.45"/><polygon class="cls-28" points="523.12 263.91 524.96 270.96 528.03 274.64 531.71 274.64 533.24 273.11 528.03 263.91 523.12 263.91"/><polygon class="cls-29" points="523.12 263.91 525.88 264.83 525.88 269.12 527.41 266.67 528.03 270.04 531.4 271.88 533.24 263.91 530.79 259.92 526.49 259 523.12 263.91"/><path class="cls-30" d="M741.53,624.13v-2.76l-3.37-3.68,1.53-3.37,3.68,4.91.92,4.91Z" transform="translate(-227 -336)"/><polygon class="cls-35" points="528.03 274.64 520.36 280.16 518.83 289.67 517.29 286.91 514.23 288.13 517.29 294.57 520.97 296.11 524.65 290.59 523.12 296.11 521.89 298.87 527.41 303.47 529.25 285.99 532.01 280.47 539.37 275.87 535.69 271.88 531.4 271.88 533.24 275.56 528.03 274.64"/><polygon class="cls-31" points="540.91 275.25 532.01 280.47 529.08 287.67 527.41 303.47 533.24 303.47 538.45 299.48 542.13 278.63 540.91 275.25"/><polygon class="cls-32" points="509.63 316.35 509.63 318.49 505.64 320.33 494.91 313.89 497.36 311.13 502.27 312.61 509.63 316.35"/><polyline class="cls-34" points="538.45 299.48 536.92 303.47 526.8 308.68 514.23 303.47 509.01 299.48 509.01 312.05 509.63 316.35 504.41 316.35 502.27 314.2 502.88 308.99 502.27 295.8 502.27 291.2 507.79 291.2 519.44 297.03 524.74 301.97 528.18 301.52"/><path class="cls-32" d="M739.91,638.46c-.53.7-2.37,2.54-2.06,2.84s9.51,7.05,9.51,7.05l1.23-2.45Z" transform="translate(-227 -336)"/><polyline class="cls-30" points="517.91 276.79 520.67 280.16 523.73 278.63 520.67 275.56 517.29 275.56"/><polygon class="cls-31" points="523.12 307.41 523.12 312.36 514.23 313.59 521.59 314.51 509.63 320.33 510.85 322.48 514.23 322.48 515.15 319.72 524.04 316.35 524.04 324.93 523.12 327.08 526.8 328 526.8 325.24 525.88 315.73 536.31 318.8 536.31 322.48 538.45 321.87 537.84 317.57 526.8 314.2 530.48 311.13 532.32 309.91 531.09 308.68 525.27 312.36 525.02 307.94 523.12 307.41"/><polygon class="cls-34" points="523.12 307.45 519.44 308.06 514.23 303.47 523.12 307.45"/><polygon class="cls-26" points="499.37 159.63 597 104.71 570.99 88.98 474 145.18 499.37 159.63"/><path class="cls-27" d="M722.29,493.3c-.41,1.68,4.41,27.38,4.41,27.38l2.89.32L726,495.63Z" transform="translate(-227 -336)"/><path class="cls-27" d="M701,481.89v29.48l3.21,1.93-3.14-31.41A0,0,0,0,0,701,481.89Z" transform="translate(-227 -336)"/><polygon class="cls-28" points="566.12 103.91 567.96 110.96 571.03 114.64 574.71 114.64 576.24 113.11 571.03 103.91 566.12 103.91"/><polygon class="cls-29" points="566.12 103.91 568.88 104.83 568.88 109.12 570.41 106.67 571.03 110.04 574.4 111.88 576.24 103.91 573.79 99.92 569.49 99 566.12 103.91"/><path class="cls-30" d="M784.53,464.13v-2.76l-3.37-3.68,1.53-3.37,3.68,4.91.92,4.91Z" transform="translate(-227 -336)"/><polygon class="cls-22" points="571.03 114.64 563.36 120.16 561.83 129.67 560.29 126.91 557.23 128.13 560.29 134.57 563.97 136.11 567.65 130.59 566.12 136.11 564.89 138.87 570.41 143.47 572.25 125.99 575.01 120.47 582.37 115.87 578.69 111.88 574.4 111.88 576.24 115.56 571.03 114.64"/><polygon class="cls-31" points="583.91 115.25 575.01 120.47 572.08 127.67 570.41 143.47 576.24 143.47 581.45 139.48 585.13 118.63 583.91 115.25"/><polygon class="cls-32" points="552.63 156.35 552.63 158.49 548.64 160.33 537.91 153.89 540.36 151.13 545.27 152.6 552.63 156.35"/><polyline class="cls-33" points="581.45 139.48 579.92 143.47 569.8 148.68 557.23 143.47 552.01 139.48 552.01 152.05 552.63 156.35 547.41 156.35 545.27 154.2 545.88 148.99 545.27 135.8 545.27 131.2 550.79 131.2 562.44 137.03 567.74 141.97 571.18 141.52"/><path class="cls-32" d="M782.91,478.46c-.53.7-2.37,2.54-2.06,2.84s9.51,7.05,9.51,7.05l1.23-2.45Z" transform="translate(-227 -336)"/><polyline class="cls-30" points="560.91 116.79 563.67 120.16 566.73 118.63 563.67 115.56 560.29 115.56"/><polygon class="cls-31" points="566.12 147.41 566.12 152.36 557.23 153.59 564.59 154.51 552.63 160.33 553.85 162.48 557.23 162.48 558.15 159.72 567.04 156.35 567.04 164.93 566.12 167.08 569.8 168 569.8 165.24 568.88 155.73 579.31 158.8 579.31 162.48 581.45 161.87 580.84 157.57 569.8 154.2 573.48 151.13 575.32 149.91 574.09 148.68 568.27 152.36 568.02 147.94 566.12 147.41"/><polygon class="cls-34" points="566.12 147.45 562.44 148.06 557.23 143.47 566.12 147.45"/><polygon class="cls-28" points="529.12 127.91 530.96 134.96 534.03 138.64 537.71 138.64 539.24 137.11 534.03 127.91 529.12 127.91"/><polygon class="cls-29" points="529.12 127.91 531.88 128.83 531.88 133.12 533.41 130.67 534.03 134.04 537.4 135.88 539.24 127.91 536.79 123.92 532.49 123 529.12 127.91"/><path class="cls-30" d="M747.53,488.13v-2.76l-3.37-3.68,1.53-3.37,3.68,4.91.92,4.91Z" transform="translate(-227 -336)"/><polygon class="cls-35" points="534.03 138.64 526.36 144.16 524.83 153.67 523.29 150.91 520.23 152.13 523.29 158.57 526.97 160.11 530.65 154.59 529.12 160.11 527.89 162.87 533.41 167.47 535.25 149.99 538.01 144.47 545.37 139.87 541.69 135.88 537.4 135.88 539.24 139.56 534.03 138.64"/><polygon class="cls-31" points="546.91 139.25 538.01 144.47 535.08 151.67 533.41 167.47 539.24 167.47 544.45 163.48 548.13 142.63 546.91 139.25"/><polygon class="cls-32" points="515.63 180.35 515.63 182.49 511.64 184.33 500.91 177.89 503.36 175.13 508.27 176.6 515.63 180.35"/><polyline class="cls-34" points="544.45 163.48 542.92 167.47 532.8 172.68 520.23 167.47 515.01 163.48 515.01 176.05 515.63 180.35 510.41 180.35 508.27 178.2 508.88 172.99 508.27 159.8 508.27 155.2 513.79 155.2 525.44 161.03 530.74 165.97 534.18 165.52"/><path class="cls-32" d="M745.91,502.46c-.53.7-2.37,2.54-2.06,2.84s9.51,7.05,9.51,7.05l1.23-2.45Z" transform="translate(-227 -336)"/><polyline class="cls-30" points="523.91 140.79 526.67 144.16 529.73 142.63 526.67 139.56 523.29 139.56"/><polygon class="cls-31" points="529.12 171.41 529.12 176.36 520.23 177.59 527.59 178.51 515.63 184.33 516.85 186.48 520.23 186.48 521.15 183.72 530.04 180.35 530.04 188.93 529.12 191.08 532.8 192 532.8 189.24 531.88 179.73 542.31 182.8 542.31 186.48 544.45 185.87 543.84 181.57 532.8 178.2 536.48 175.13 538.32 173.91 537.09 172.68 531.27 176.36 531.02 171.94 529.12 171.41"/><polygon class="cls-34" points="529.12 171.45 525.44 172.06 520.23 167.47 529.12 171.45"/><path class="cls-36" d="M920.25,554.5c0,.88,2.63,27.13,2.63,27.13l8.75,3.5,3.5-1.75.88-3.5V575.5l-4.37-7.87,2.63-11.37,2.63-1.75-10.5-3.5Z" transform="translate(-227 -336)"/><polygon class="cls-37" points="693.25 205.38 696.75 227.25 698.5 218.5 699.38 230.75 703.9 233.38 702.19 225.9 708.13 210.63 706.79 201.2 698.5 199.25 693.25 205.38"/><polygon class="cls-38" points="693.25 218.5 689.75 222 690.63 233.38 686.25 239.5 681 243 685.38 243.88 691.5 239.5 694.66 233.38 693.25 218.5"/><polyline class="cls-33" points="695 245.63 695.88 257.88 695.88 274.5 700.25 274.5 701.13 264 701.77 249.13 695 245.63"/><path class="cls-38" d="M936.88,554.5l-1.75,12.25,2.63,9.63s1.75,5.25,0,4.38-2.62,1.1-2.62,1.1l.88-6.35-4.37-7.87,2.63-11.37,2.63-1.75" transform="translate(-227 -336)"/><path class="cls-33" d="M929,585.13c2.63,0,8.75,8.75,7.88,9.63s-7,7.88-7,8.75-.87,5.25-.87,5.25l2.63,1.75L943,595.63l-7-15.75Z" transform="translate(-227 -336)"/><polygon class="cls-39" points="695.88 274.5 695 278 695.88 284.13 696.75 280.63 702 285 701.13 274.5 695.88 274.5"/><path class="cls-40" d="M929,608.75a25.17,25.17,0,0,0-3.5,5.25l4.38,7h3.5v-2.62l-2.62-3.5.88-4.37L929,608.75" transform="translate(-227 -336)"/><polygon class="cls-41" points="391.95 21.1 388.91 21.75 389.66 15.78 391.15 12.79 395.64 10.55 401.61 14.28 403.11 16.52 400.12 17.27 394.14 19.51 392.65 18.76 391.95 21.1"/><polygon class="cls-42" points="391.15 19.51 394.14 25.48 396.38 26.23 399.37 23.24 400.12 17.27 395.64 17.27 394.14 19.51 392.65 18.76 391.15 19.51"/><polygon class="cls-43" points="389.42 21.75 388.17 23.24 389.66 26.23 393.39 27.73 394.14 25.48 391.9 21 389.42 21.75"/><polygon class="cls-44" points="376.22 53.12 385.93 58.35 387.05 56.92 377.71 51.63 379.2 50.13 397.9 39.89 385.01 24.36 378.46 25.48 370.99 30.71 368 44.91 368 60.59 370.99 61.34 373.23 59.84 376.22 58.35 376.22 53.12"/><polygon class="cls-45" points="391.15 27.73 392.65 26.98 393.39 27.73 393.39 29.97 392.65 30.71 391.79 29.85 391.15 29.22 391.15 27.73"/><polygon class="cls-46" points="376.22 53.12 385.93 58.35 403.85 44.91 391.15 37.44 376.22 48.64 376.22 53.12"/><polygon class="cls-47" points="388.91 21.75 381.44 26.98 377.71 43.41 382.19 45.65 389.66 42.66 382.94 35.94 382.19 28.47 385.93 27.73 389.66 33.7 391.15 37.44 391.9 28.47 392.31 27.29 388.91 21.75"/><polygon class="cls-45" points="391.15 36.33 391.9 37.44 393.39 35.94 392.65 30.71 391.9 29.97 391.15 36.33"/><polygon class="cls-48" points="382.19 28.47 385.93 27.73 389.66 33.7 391.15 37.44 391.9 37.44 397.13 30.71 400.12 33.7 393.39 44.16 391.15 44.16 382.94 35.94 382.19 28.47"/><polygon class="cls-49" points="389.66 42.66 380.7 44.91 377.71 43.41 379.2 50.88 391.15 44.16 389.66 42.66 389.66 42.66 389.66 42.66"/><polygon class="cls-42" points="397.13 30.71 400.12 29.97 402.36 27.73 404.6 28.47 403.85 32.95 401.61 32.95 400.12 33.7 397.13 30.71"/><polygon class="cls-50" points="377.71 51.63 405.35 67.31 458.38 33.7 432.98 19.51 377.71 51.63"/><path class="cls-50" d="M604.71,387.63" transform="translate(-227 -336)"/><path class="cls-49" d="M628.66,401.22c0,.6.7,23,.7,23l2.24.75-.35-22.28Z" transform="translate(-227 -336)"/><polygon class="cls-51" points="370.99 61.34 370.99 65.82 386.67 76.28 388.91 75.53 385.93 58.35 385.93 58.35 387.42 74.78 385.93 74.78 371.74 65.07 371.74 61.34 370.99 61.34"/><polygon class="cls-49" points="382.19 54.17 382.19 76.28 384.43 77.02 385.01 55.77 382.19 54.17"/><polygon class="cls-52" points="402.36 55.36 392.65 49.39 406.09 41.92 416.55 47.89 402.36 55.36"/><polygon class="cls-53" points="397.13 50.13 409.08 44.91 412.07 47.15 401.61 53.12 397.13 50.13"/><polygon class="cls-54" points="403.11 44.91 415.8 37.44 416.55 47.15 403.11 54.62 403.11 44.91"/><polygon class="cls-55" points="403.11 54.62 402.36 55.36 403.11 55.36 416.55 47.89 416.55 47.15 403.11 54.62"/><path class="cls-49" d="M683.14,371.2c0,.6.75,20.17.75,20.17l2.24.75-.75-22.41Z" transform="translate(-227 -336)"/><polygon class="cls-41" points="456.95 54.1 453.91 54.75 454.66 48.77 456.15 45.79 460.64 43.55 466.61 47.28 468.11 49.52 465.12 50.27 459.14 52.51 457.65 51.76 456.95 54.1"/><polygon class="cls-42" points="456.15 52.51 459.14 58.48 461.38 59.23 464.37 56.24 465.12 50.27 460.64 50.27 459.14 52.51 457.65 51.76 456.15 52.51"/><polygon class="cls-43" points="454.42 54.75 453.17 56.24 454.66 59.23 458.39 60.73 459.14 58.48 456.9 54 454.42 54.75"/><polygon class="cls-44" points="441.22 86.12 450.93 91.35 452.05 89.92 442.71 84.63 444.2 83.13 462.9 72.89 450.01 57.37 443.46 58.48 435.99 63.71 433 77.91 433 93.59 435.99 94.34 438.23 92.84 441.22 91.35 441.22 86.12"/><polygon class="cls-45" points="456.15 60.73 457.65 59.98 458.39 60.73 458.39 62.97 457.65 63.71 456.79 62.85 456.15 62.22 456.15 60.73"/><polygon class="cls-46" points="441.22 86.12 450.93 91.35 468.85 77.91 456.15 70.44 441.22 81.64 441.22 86.12"/><polygon class="cls-56" points="453.91 54.75 446.44 59.98 442.71 76.41 447.19 78.65 454.66 75.66 447.94 68.94 447.19 61.47 450.93 60.73 454.66 66.7 456.15 70.44 456.9 61.47 457.31 60.29 453.91 54.75"/><polygon class="cls-45" points="456.15 69.33 456.9 70.44 458.39 68.94 457.65 63.71 456.9 62.97 456.15 69.33"/><polygon class="cls-57" points="447.19 61.47 450.93 60.73 454.66 66.7 456.15 70.44 456.9 70.44 462.13 63.71 465.12 66.7 458.39 77.16 456.15 77.16 447.94 68.94 447.19 61.47"/><polygon class="cls-49" points="454.66 75.66 445.7 77.91 442.71 76.41 444.2 83.88 456.15 77.16 454.66 75.66 454.66 75.66 454.66 75.66"/><polygon class="cls-58" points="468.85 62.97 471.84 61.47 472.59 62.97 468.85 64.22 468.85 62.97"/><polygon class="cls-55" points="471.84 61.47 473.33 61.47 472.59 62.97 471.84 61.47"/><polygon class="cls-42" points="462.13 63.71 465.12 62.97 467.36 60.73 469.6 61.47 468.85 65.95 466.61 65.95 465.12 66.7 462.13 63.71"/><polygon class="cls-50" points="442.71 84.63 470.35 100.31 523.38 66.7 497.98 52.51 442.71 84.63"/><path class="cls-59" d="M710,372.82l2.24-.75s3.73,6,3.73,5.23,1.49-.75,1.49-.75l-.75,3.73-1.49,1.49,1.49.75L719,381V378.8l.75-6.72-3.73-3-4.48.75-2.24,2.24-3,4.48,2.24,3,.75-.75Z" transform="translate(-227 -336)"/><polygon class="cls-60" points="482.3 42.8 484.54 45.79 488.27 45.79 489.02 41.31 485.28 36.08 483.04 36.83 482.3 42.8"/><path class="cls-46" d="M707.08,380.46l-7.49,4.31-.75,10.46,4.48,6s3.83-2.24,4.15-2.24h-4.15Z" transform="translate(-227 -336)"/><path class="cls-61" d="M709.3,378.8l-6,4.48s-.75,15.69,0,15.69h6l5.23-3.73-.75-4.48,1.49-1.49,5.23,4.48L722,391.5l-3.73-9-3-2.61-4.48,3.36Z" transform="translate(-227 -336)"/><polygon class="cls-62" points="486.03 47.28 486.03 44.29 489.02 41.31 490.51 40.56 489.76 44.29 488.27 45.79 486.03 47.28"/><polygon class="cls-63" points="486.03 47.28 491.26 56.24 493.5 57.74 494.99 55.5 488.27 45.79 486.03 47.28"/><polygon class="cls-63" points="476.32 47.28 480.06 48.77 483.79 56.99 492.75 59.23 492.75 62.22 480.8 60.73 476.32 47.28"/><polygon class="cls-62" points="482.3 42.8 483.79 47.28 485.78 45.79 484.54 45.79 482.3 42.8"/><polygon class="cls-62" points="492.75 59.23 496.49 56.99 496.49 58.48 499.48 58.48 499.48 60.73 494.99 61.47 492.75 61.04 492.75 59.23"/><path class="cls-50" d="M669.71,420.63" transform="translate(-227 -336)"/><path class="cls-49" d="M693.66,434.22c0,.6.7,23,.7,23l2.24.75-.35-22.28Z" transform="translate(-227 -336)"/><polygon class="cls-51" points="435.99 94.34 435.99 98.82 451.67 109.28 453.91 108.53 450.93 91.35 450.93 91.35 452.42 107.78 450.93 107.78 436.74 98.07 436.74 94.34 435.99 94.34"/><polygon class="cls-49" points="447.19 87.17 447.19 109.28 449.43 110.02 450.01 88.77 447.19 87.17"/><polygon class="cls-52" points="467.36 88.36 457.65 82.39 471.09 74.92 481.55 80.89 467.36 88.36"/><polygon class="cls-53" points="462.13 83.13 474.08 77.91 477.07 80.15 466.61 86.12 462.13 83.13"/><polygon class="cls-54" points="468.11 77.91 480.8 70.44 481.55 80.15 468.11 87.61 468.11 77.91"/><polygon class="cls-55" points="468.11 87.61 467.36 88.36 468.11 88.36 481.55 80.89 481.55 80.15 468.11 87.61"/><path class="cls-49" d="M748.14,404.2c0,.6.75,20.17.75,20.17l2.24.75-.75-22.41Z" transform="translate(-227 -336)"/><polygon class="cls-26" points="362.37 231.63 460 176.71 433.99 160.98 337 217.18 362.37 231.63"/><path class="cls-27" d="M585.29,565.3c-.41,1.68,4.41,27.38,4.41,27.38l2.89.32L589,567.63Z" transform="translate(-227 -336)"/><path class="cls-27" d="M564,553.89v29.48l3.21,1.93-3.14-31.41A0,0,0,0,0,564,553.89Z" transform="translate(-227 -336)"/><polygon class="cls-28" points="429.12 175.91 430.96 182.96 434.03 186.64 437.71 186.64 439.24 185.11 434.03 175.91 429.12 175.91"/><polygon class="cls-29" points="429.12 175.91 431.88 176.83 431.88 181.12 433.41 178.67 434.03 182.04 437.4 183.88 439.24 175.91 436.79 171.92 432.49 171 429.12 175.91"/><path class="cls-30" d="M647.53,536.13v-2.76l-3.37-3.68,1.53-3.37,3.68,4.91.92,4.91Z" transform="translate(-227 -336)"/><polygon class="cls-22" points="434.03 186.64 426.36 192.16 424.83 201.67 423.29 198.91 420.23 200.13 423.29 206.57 426.97 208.11 430.65 202.59 429.12 208.11 427.89 210.87 433.41 215.47 435.25 197.99 438.01 192.47 445.37 187.87 441.69 183.88 437.4 183.88 439.24 187.56 434.03 186.64"/><polygon class="cls-31" points="446.91 187.25 438.01 192.47 435.08 199.67 433.41 215.47 439.24 215.47 444.45 211.48 448.13 190.63 446.91 187.25"/><polygon class="cls-32" points="415.63 228.35 415.63 230.49 411.64 232.33 400.91 225.89 403.36 223.13 408.27 224.6 415.63 228.35"/><polyline class="cls-33" points="444.45 211.48 442.92 215.47 432.8 220.68 420.23 215.47 415.01 211.48 415.01 224.05 415.63 228.35 410.41 228.35 408.27 226.2 408.88 220.99 408.27 207.8 408.27 203.2 413.79 203.2 425.44 209.03 430.74 213.97 434.18 213.52"/><path class="cls-32" d="M645.91,550.46c-.53.7-2.37,2.54-2.06,2.84s9.51,7.05,9.51,7.05l1.23-2.45Z" transform="translate(-227 -336)"/><polyline class="cls-30" points="423.91 188.79 426.67 192.16 429.73 190.63 426.67 187.56 423.29 187.56"/><polygon class="cls-31" points="429.12 219.41 429.12 224.36 420.23 225.59 427.59 226.51 415.63 232.33 416.85 234.48 420.23 234.48 421.15 231.72 430.04 228.35 430.04 236.93 429.12 239.08 432.8 240 432.8 237.24 431.88 227.73 442.31 230.8 442.31 234.48 444.45 233.87 443.84 229.57 432.8 226.2 436.48 223.13 438.32 221.91 437.09 220.68 431.27 224.36 431.02 219.94 429.12 219.41"/><polygon class="cls-34" points="429.12 219.45 425.44 220.06 420.23 215.47 429.12 219.45"/><polygon class="cls-28" points="392.12 199.91 393.96 206.96 397.03 210.64 400.71 210.64 402.24 209.11 397.03 199.91 392.12 199.91"/><polygon class="cls-29" points="392.12 199.91 394.88 200.83 394.88 205.12 396.41 202.67 397.03 206.04 400.4 207.88 402.24 199.91 399.79 195.92 395.49 195 392.12 199.91"/><path class="cls-30" d="M610.53,560.13v-2.76l-3.37-3.68,1.53-3.37,3.68,4.91.92,4.91Z" transform="translate(-227 -336)"/><polygon class="cls-35" points="397.03 210.64 389.36 216.16 387.83 225.67 386.29 222.91 383.23 224.13 386.29 230.57 389.97 232.11 393.65 226.59 392.12 232.11 390.89 234.87 396.41 239.47 398.25 221.99 401.01 216.47 408.37 211.87 404.69 207.88 400.4 207.88 402.24 211.56 397.03 210.64"/><polygon class="cls-31" points="409.91 211.25 401.01 216.47 398.08 223.67 396.41 239.47 402.24 239.47 407.45 235.48 411.13 214.63 409.91 211.25"/><polygon class="cls-32" points="378.63 252.35 378.63 254.49 374.64 256.33 363.91 249.89 366.36 247.13 371.27 248.6 378.63 252.35"/><polyline class="cls-34" points="407.45 235.48 405.92 239.47 395.8 244.68 383.23 239.47 378.01 235.48 378.01 248.05 378.63 252.35 373.41 252.35 371.27 250.2 371.88 244.99 371.27 231.8 371.27 227.2 376.79 227.2 388.44 233.03 393.74 237.97 397.18 237.52"/><path class="cls-32" d="M608.91,574.46c-.53.7-2.37,2.54-2.06,2.84s9.51,7.05,9.51,7.05l1.23-2.45Z" transform="translate(-227 -336)"/><polyline class="cls-30" points="386.91 212.79 389.67 216.16 392.73 214.63 389.67 211.56 386.29 211.56"/><polygon class="cls-31" points="392.12 243.41 392.12 248.36 383.23 249.59 390.59 250.51 378.63 256.33 379.85 258.48 383.23 258.48 384.15 255.72 393.04 252.35 393.04 260.93 392.12 263.08 395.8 264 395.8 261.24 394.88 251.73 405.31 254.8 405.31 258.48 407.45 257.87 406.84 253.57 395.8 250.2 399.48 247.13 401.32 245.91 400.09 244.68 394.27 248.36 394.02 243.94 392.12 243.41"/><polygon class="cls-34" points="392.12 243.45 388.44 244.06 383.23 239.47 392.12 243.45"/><path class="cls-22" d="M433.29,458.61c1.24-.89.83-2.1.61-3.26-.47-2.48-.92-5-1.47-7.43-.27-1.22.26-1.56,1.32-1.59,3.05-.1,6.11-.2,9.16-.32.85,0,1,.4,1,1.12,0,2.28,0,4.56,0,6.85,0,.46,0,.91.06,1.41a28.1,28.1,0,0,1,3.81-.3c3.34.18,6.66.52,10,.72.29,0,.84-.51.9-.84.24-1.48.34-3,.48-4.48.1-1,.21-2,.29-3.07.07-.82.4-1.09,1.27-.93,2.74.48,5.5.89,8.25,1.28,1.24.18,1.34.38,1,1.58-.79,2.88-1.55,5.77-2.22,8.68a2,2,0,0,0,.59,1.52c.69.74,1.59,1.3,2.32,2,1.64,1.62,1.66,3.69,1.33,5.76-.3,1.84-.8,3.6-2.54,4.74a2.6,2.6,0,0,0-.7,1.47c-.44,1.74-.89,3.48-1.19,5.25a5.79,5.79,0,0,0,.2,2.25c.74,3.07,1.53,6.13,2.3,9.19,0,.07-.06.15-.16.4-.23-.16-.56-.26-.6-.43-.58-2.36-1.1-4.74-1.67-7.1-.3-1.23-.65-2.45-1-3.79-1.4.76-2.67,1.37-3.85,2.13a2.35,2.35,0,0,0-.84,1.31,17,17,0,0,1-.88,3.1v-3.38c-1.15.4-1.61.9-1.55,2,.2,3.65.27,7.31.39,11,0,.45,0,.91,0,1.36l-.45.09a6,6,0,0,1-.31-1.26c-.11-3.83-.21-7.66-.24-11.49a1.79,1.79,0,0,0-1.09-1.82c-1.28-.65-2.51-1.42-4.06-2.31-.39,2-.77,3.8-1,5.59a1.72,1.72,0,0,0,.53,1.1c.64.73.39,1.3-.17,1.92s-1.24,1.45-1.85,2.17l-.21-.94h-7.07v1.77l-.46.08-3.25-13.27c-1.54,1.45-2.83,2.62-4,3.87a1.94,1.94,0,0,0-.3,1.2c-.1,4-.18,8.09-.26,12.13,0,.36-.07.71-.1,1.07h-.35c-.06-.8-.18-1.6-.18-2.4,0-3.4,0-6.8.13-10.2,0-1.06-.32-1.62-1.39-1.76a14.56,14.56,0,0,1-1.86-.54l.55,3.26-.29.18a5.45,5.45,0,0,1-.59-.95,5.9,5.9,0,0,1-.07-.9c-.21-1-.39-2.12-1.75-2.31-.25,0-.48-.2-.72-.25-.91-.18-2-.7-2.67-.39-.49.22-.51,1.57-.67,2.42-.48,2.48-.93,5-1.41,7.45a3.44,3.44,0,0,1-.43.85l-.36-.13c.19-1.11.36-2.22.57-3.32.42-2.27,1-4.51,1.22-6.8a16.45,16.45,0,0,0-.57-4.43c-.6-3.06-1.27-6.1-1.92-9.15-.22-1-.47-2.09-.7-3.13s.23-1.26,1.12-.94l3.57,1.31c1.17-1.52,2.18-3,3.34-4.26a4.33,4.33,0,0,1,3.27-1.76c-.32.33-.58.78-1,1a10.71,10.71,0,0,0-4.12,3.77c-.65,1-.51,1.64.56,2.05,1.85.72,3.72,1.39,5.57,2.09.81.31,1.41.73,1.26,1.78a11.41,11.41,0,0,0-.07,2.32c0,.33.19.84.43.95a9.49,9.49,0,0,0,2.09.56c2.61.46,5.21,1,7.84,1.32a38.11,38.11,0,0,0,12.8-.79,1.16,1.16,0,0,0,.66-.84c.11-1.06,0-2.16.16-3.2a2.35,2.35,0,0,1,1-1.55c2.83-1.4,5.73-2.66,8.61-4,1.8-.82,1.89-1.29.51-2.72a5.47,5.47,0,0,0-1.33-1c-1.28-.68-2.57-1.35-3.89-1.94A27.54,27.54,0,0,0,453.75,456a77.7,77.7,0,0,0-8.5,0,66.07,66.07,0,0,0-7.8,1.36C436,457.71,434.68,458.21,433.29,458.61Zm25.82,15.92c-7.86,1.15-15.67,1.27-23.36-1.34-.28,1.14,0,1.93,1.19,2.22,2.46.56,4.89,1.35,7.38,1.67a42.73,42.73,0,0,0,13.46-.44C459.29,476.35,459.41,476.24,459.12,474.53ZM443,486a17.34,17.34,0,0,0,2.54-.77,1.69,1.69,0,0,0,.9-1.11,44.88,44.88,0,0,0,0-5,1.36,1.36,0,0,0-.8-1,33.69,33.69,0,0,0-3.93-.57c-.78-.08-.91.36-.71,1.08.34,1.18.56,2.39.88,3.58S442.6,484.71,443,486Zm11.28-7.73c-1.52,0-2.8-.06-4.07,0-.36,0-1,.49-1,.77a38.56,38.56,0,0,0,0,5.28c.1,1.19,1.34,1,2.14,1.15s.77-.53.83-1.09.19-.92.27-1.38c.21-1.34.41-2.69.64-4.18ZM470,468.1a3,3,0,0,0,.94-4.26Z" transform="translate(-227 -336)"/><path class="cls-23" d="M433.29,458.61c1.38-.4,2.75-.89,4.16-1.18a66.07,66.07,0,0,1,7.8-1.36,77.7,77.7,0,0,1,8.5,0,27.54,27.54,0,0,1,10.71,2.31c1.32.6,2.61,1.26,3.89,1.94a5.47,5.47,0,0,1,1.33,1c1.38,1.43,1.29,1.9-.51,2.72-2.87,1.32-5.77,2.58-8.61,4a2.35,2.35,0,0,0-1,1.55c-.18,1,0,2.14-.16,3.2a1.16,1.16,0,0,1-.66.84,38.11,38.11,0,0,1-12.8.79c-2.62-.35-5.23-.86-7.84-1.32a9.49,9.49,0,0,1-2.09-.56c-.24-.1-.42-.61-.43-.95a11.41,11.41,0,0,1,.07-2.32c.16-1-.45-1.47-1.26-1.78-1.86-.7-3.72-1.37-5.57-2.09-1.08-.42-1.22-1.08-.56-2.05a10.71,10.71,0,0,1,4.12-3.77c.39-.19.65-.64,1-1Z" transform="translate(-227 -336)"/><path class="cls-24" d="M459.12,474.53c.29,1.72.17,1.83-1.32,2.11a42.73,42.73,0,0,1-13.46.44c-2.49-.32-4.92-1.11-7.38-1.67-1.24-.29-1.48-1.08-1.19-2.22C443.44,475.79,451.26,475.68,459.12,474.53Z" transform="translate(-227 -336)"/><path class="cls-25" d="M470,468.1l.94-4.26A3,3,0,0,1,470,468.1Z" transform="translate(-227 -336)"/><path class="cls-22" d="M367.29,500.61c1.24-.89.83-2.1.61-3.26-.47-2.48-.92-5-1.47-7.43-.27-1.22.26-1.56,1.32-1.59,3.05-.1,6.11-.2,9.16-.32.85,0,1,.4,1,1.12,0,2.28,0,4.56,0,6.85,0,.46,0,.91.06,1.41a28.1,28.1,0,0,1,3.81-.3c3.34.18,6.66.52,10,.72.29,0,.84-.51.9-.84.24-1.48.34-3,.48-4.48.1-1,.21-2,.29-3.07.07-.82.4-1.09,1.27-.93,2.74.48,5.5.89,8.25,1.28,1.24.18,1.34.38,1,1.58-.79,2.88-1.55,5.77-2.22,8.68a2,2,0,0,0,.59,1.52c.69.74,1.59,1.3,2.32,2,1.64,1.62,1.66,3.69,1.33,5.76-.3,1.84-.8,3.6-2.54,4.74a2.6,2.6,0,0,0-.7,1.47c-.44,1.74-.89,3.48-1.19,5.25a5.79,5.79,0,0,0,.2,2.25c.74,3.07,1.53,6.13,2.3,9.19,0,.07-.06.15-.16.4-.23-.16-.56-.26-.6-.43-.58-2.36-1.1-4.74-1.67-7.1-.3-1.23-.65-2.45-1-3.79-1.4.76-2.67,1.37-3.85,2.13a2.35,2.35,0,0,0-.84,1.31,17,17,0,0,1-.88,3.1v-3.38c-1.15.4-1.61.9-1.55,2,.2,3.65.27,7.31.39,11,0,.45,0,.91,0,1.36l-.45.09a6,6,0,0,1-.31-1.26c-.11-3.83-.21-7.66-.24-11.49a1.79,1.79,0,0,0-1.09-1.82c-1.28-.65-2.51-1.42-4.06-2.31-.39,2-.77,3.8-1,5.59a1.72,1.72,0,0,0,.53,1.1c.64.73.39,1.3-.17,1.92s-1.24,1.45-1.85,2.17l-.21-.94h-7.07v1.77l-.46.08-3.25-13.27c-1.54,1.45-2.83,2.62-4,3.87a1.94,1.94,0,0,0-.3,1.2c-.1,4-.18,8.09-.26,12.13,0,.36-.07.71-.1,1.07h-.35c-.06-.8-.18-1.6-.18-2.4,0-3.4,0-6.8.13-10.2,0-1.06-.32-1.62-1.39-1.76a14.56,14.56,0,0,1-1.86-.54l.55,3.26-.29.18a5.45,5.45,0,0,1-.59-.95,5.9,5.9,0,0,1-.07-.9c-.21-1-.39-2.12-1.75-2.31-.25,0-.48-.2-.72-.25-.91-.18-2-.7-2.67-.39-.49.22-.51,1.57-.67,2.42-.48,2.48-.93,5-1.41,7.45a3.44,3.44,0,0,1-.43.85l-.36-.13c.19-1.11.36-2.22.57-3.32.42-2.27,1-4.51,1.22-6.8a16.45,16.45,0,0,0-.57-4.43c-.6-3.06-1.27-6.1-1.92-9.15-.22-1-.47-2.09-.7-3.13s.23-1.26,1.12-.94l3.57,1.31c1.17-1.52,2.18-3,3.34-4.26a4.33,4.33,0,0,1,3.27-1.76c-.32.33-.58.78-1,1a10.71,10.71,0,0,0-4.12,3.77c-.65,1-.51,1.64.56,2.05,1.85.72,3.72,1.39,5.57,2.09.81.31,1.41.73,1.26,1.78a11.41,11.41,0,0,0-.07,2.32c0,.33.19.84.43.95a9.49,9.49,0,0,0,2.09.56c2.61.46,5.21,1,7.84,1.32a38.11,38.11,0,0,0,12.8-.79,1.16,1.16,0,0,0,.66-.84c.11-1.06,0-2.16.16-3.2a2.35,2.35,0,0,1,1-1.55c2.83-1.4,5.73-2.66,8.61-4,1.8-.82,1.89-1.29.51-2.72a5.47,5.47,0,0,0-1.33-1c-1.28-.68-2.57-1.35-3.89-1.94A27.54,27.54,0,0,0,387.75,498a77.7,77.7,0,0,0-8.5,0,66.07,66.07,0,0,0-7.8,1.36C370,499.71,368.68,500.21,367.29,500.61Zm25.82,15.92c-7.86,1.15-15.67,1.27-23.36-1.34-.28,1.14,0,1.93,1.19,2.22,2.46.56,4.89,1.35,7.38,1.67a42.73,42.73,0,0,0,13.46-.44C393.29,518.35,393.41,518.24,393.12,516.53ZM377,528a17.34,17.34,0,0,0,2.54-.77,1.69,1.69,0,0,0,.9-1.11,44.88,44.88,0,0,0,0-5,1.36,1.36,0,0,0-.8-1,33.69,33.69,0,0,0-3.93-.57c-.78-.08-.91.36-.71,1.08.34,1.18.56,2.39.88,3.58S376.6,526.71,377,528Zm11.28-7.73c-1.52,0-2.8-.06-4.07,0-.36,0-1,.49-1,.77a38.56,38.56,0,0,0,0,5.28c.1,1.19,1.34,1,2.14,1.15s.77-.53.83-1.09.19-.92.27-1.38c.21-1.34.41-2.69.64-4.18ZM404,510.1a3,3,0,0,0,.94-4.26Z" transform="translate(-227 -336)"/><path class="cls-23" d="M367.29,500.61c1.38-.4,2.75-.89,4.16-1.18a66.07,66.07,0,0,1,7.8-1.36,77.7,77.7,0,0,1,8.5,0,27.54,27.54,0,0,1,10.71,2.31c1.32.6,2.61,1.26,3.89,1.94a5.47,5.47,0,0,1,1.33,1c1.38,1.43,1.29,1.9-.51,2.72-2.87,1.32-5.77,2.58-8.61,4a2.35,2.35,0,0,0-1,1.55c-.18,1,0,2.14-.16,3.2a1.16,1.16,0,0,1-.66.84,38.11,38.11,0,0,1-12.8.79c-2.62-.35-5.23-.86-7.84-1.32a9.49,9.49,0,0,1-2.09-.56c-.24-.1-.42-.61-.43-.95a11.41,11.41,0,0,1,.07-2.32c.16-1-.45-1.47-1.26-1.78-1.86-.7-3.72-1.37-5.57-2.09-1.08-.42-1.22-1.08-.56-2.05a10.71,10.71,0,0,1,4.12-3.77c.39-.19.65-.64,1-1Z" transform="translate(-227 -336)"/><path class="cls-24" d="M393.12,516.53c.29,1.72.17,1.83-1.32,2.11a42.73,42.73,0,0,1-13.46.44c-2.49-.32-4.92-1.11-7.38-1.67-1.24-.29-1.48-1.08-1.19-2.22C377.44,517.79,385.26,517.68,393.12,516.53Z" transform="translate(-227 -336)"/><path class="cls-25" d="M404,510.1l.94-4.26A3,3,0,0,1,404,510.1Z" transform="translate(-227 -336)"/><path class="cls-22" d="M483.29,495.61c1.24-.89.83-2.1.61-3.26-.47-2.48-.92-5-1.47-7.43-.27-1.22.26-1.56,1.32-1.59,3.05-.1,6.11-.2,9.16-.32.85,0,1,.4,1,1.12,0,2.28,0,4.56,0,6.85,0,.46,0,.91.06,1.41a28.1,28.1,0,0,1,3.81-.3c3.34.18,6.66.52,10,.72.29,0,.84-.51.9-.84.24-1.48.34-3,.48-4.48.1-1,.21-2,.29-3.07.07-.82.4-1.09,1.27-.93,2.74.48,5.5.89,8.25,1.28,1.24.18,1.34.38,1,1.58-.79,2.88-1.55,5.77-2.22,8.68a2,2,0,0,0,.59,1.52c.69.74,1.59,1.3,2.32,2,1.64,1.62,1.66,3.69,1.33,5.76-.3,1.84-.8,3.6-2.54,4.74a2.6,2.6,0,0,0-.7,1.47c-.44,1.74-.89,3.48-1.19,5.25a5.79,5.79,0,0,0,.2,2.25c.74,3.07,1.53,6.13,2.3,9.19,0,.07-.06.15-.16.4-.23-.16-.56-.26-.6-.43-.58-2.36-1.1-4.74-1.67-7.1-.3-1.23-.65-2.45-1-3.79-1.4.76-2.67,1.37-3.85,2.13a2.35,2.35,0,0,0-.84,1.31,17,17,0,0,1-.88,3.1v-3.38c-1.15.4-1.61.9-1.55,2,.2,3.65.27,7.31.39,11,0,.45,0,.91,0,1.36l-.45.09a6,6,0,0,1-.31-1.26c-.11-3.83-.21-7.66-.24-11.49a1.79,1.79,0,0,0-1.09-1.82c-1.28-.65-2.51-1.42-4.06-2.31-.39,2-.77,3.8-1,5.59a1.72,1.72,0,0,0,.53,1.1c.64.73.39,1.3-.17,1.92s-1.24,1.45-1.85,2.17l-.21-.94h-7.07v1.77l-.46.08-3.25-13.27c-1.54,1.45-2.83,2.62-4,3.87a1.94,1.94,0,0,0-.3,1.2c-.1,4-.18,8.09-.26,12.13,0,.36-.07.71-.1,1.07h-.35c-.06-.8-.18-1.6-.18-2.4,0-3.4,0-6.8.13-10.2,0-1.06-.32-1.62-1.39-1.76a14.56,14.56,0,0,1-1.86-.54l.55,3.26-.29.18a5.45,5.45,0,0,1-.59-.95,5.9,5.9,0,0,1-.07-.9c-.21-1-.39-2.12-1.75-2.31-.25,0-.48-.2-.72-.25-.91-.18-2-.7-2.67-.39-.49.22-.51,1.57-.67,2.42-.48,2.48-.93,5-1.41,7.45a3.44,3.44,0,0,1-.43.85l-.36-.13c.19-1.11.36-2.22.57-3.32.42-2.27,1-4.51,1.22-6.8a16.45,16.45,0,0,0-.57-4.43c-.6-3.06-1.27-6.1-1.92-9.15-.22-1-.47-2.09-.7-3.13s.23-1.26,1.12-.94l3.57,1.31c1.17-1.52,2.18-3,3.34-4.26a4.33,4.33,0,0,1,3.27-1.76c-.32.33-.58.78-1,1a10.71,10.71,0,0,0-4.12,3.77c-.65,1-.51,1.64.56,2.05,1.85.72,3.72,1.39,5.57,2.09.81.31,1.41.73,1.26,1.78a11.41,11.41,0,0,0-.07,2.32c0,.33.19.84.43.95a9.49,9.49,0,0,0,2.09.56c2.61.46,5.21,1,7.84,1.32a38.11,38.11,0,0,0,12.8-.79,1.16,1.16,0,0,0,.66-.84c.11-1.06,0-2.16.16-3.2a2.35,2.35,0,0,1,1-1.55c2.83-1.4,5.73-2.66,8.61-4,1.8-.82,1.89-1.29.51-2.72a5.47,5.47,0,0,0-1.33-1c-1.28-.68-2.57-1.35-3.89-1.94A27.54,27.54,0,0,0,503.75,493a77.7,77.7,0,0,0-8.5,0,66.07,66.07,0,0,0-7.8,1.36C486,494.71,484.68,495.21,483.29,495.61Zm25.82,15.92c-7.86,1.15-15.67,1.27-23.36-1.34-.28,1.14,0,1.93,1.19,2.22,2.46.56,4.89,1.35,7.38,1.67a42.73,42.73,0,0,0,13.46-.44C509.29,513.35,509.41,513.24,509.12,511.53ZM493,523a17.34,17.34,0,0,0,2.54-.77,1.69,1.69,0,0,0,.9-1.11,44.88,44.88,0,0,0,0-5,1.36,1.36,0,0,0-.8-1,33.69,33.69,0,0,0-3.93-.57c-.78-.08-.91.36-.71,1.08.34,1.18.56,2.39.88,3.58S492.6,521.71,493,523Zm11.28-7.73c-1.52,0-2.8-.06-4.07,0-.36,0-1,.49-1,.77a38.56,38.56,0,0,0,0,5.28c.1,1.19,1.34,1,2.14,1.15s.77-.53.83-1.09.19-.92.27-1.38c.21-1.34.41-2.69.64-4.18ZM520,505.1a3,3,0,0,0,.94-4.26Z" transform="translate(-227 -336)"/><path class="cls-23" d="M483.29,495.61c1.38-.4,2.75-.89,4.16-1.18a66.07,66.07,0,0,1,7.8-1.36,77.7,77.7,0,0,1,8.5,0,27.54,27.54,0,0,1,10.71,2.31c1.32.6,2.61,1.26,3.89,1.94a5.47,5.47,0,0,1,1.33,1c1.38,1.43,1.29,1.9-.51,2.72-2.87,1.32-5.77,2.58-8.61,4a2.35,2.35,0,0,0-1,1.55c-.18,1,0,2.14-.16,3.2a1.16,1.16,0,0,1-.66.84,38.11,38.11,0,0,1-12.8.79c-2.62-.35-5.23-.86-7.84-1.32a9.49,9.49,0,0,1-2.09-.56c-.24-.1-.42-.61-.43-.95a11.41,11.41,0,0,1,.07-2.32c.16-1-.45-1.47-1.26-1.78-1.86-.7-3.72-1.37-5.57-2.09-1.08-.42-1.22-1.08-.56-2.05a10.71,10.71,0,0,1,4.12-3.77c.39-.19.65-.64,1-1Z" transform="translate(-227 -336)"/><path class="cls-24" d="M509.12,511.53c.29,1.72.17,1.83-1.32,2.11a42.73,42.73,0,0,1-13.46.44c-2.49-.32-4.92-1.11-7.38-1.67-1.24-.29-1.48-1.08-1.19-2.22C493.44,512.79,501.26,512.68,509.12,511.53Z" transform="translate(-227 -336)"/><path class="cls-25" d="M520,505.1l.94-4.26A3,3,0,0,1,520,505.1Z" transform="translate(-227 -336)"/><path class="cls-22" d="M545.29,456.61c1.24-.89.83-2.1.61-3.26-.47-2.48-.92-5-1.47-7.43-.27-1.22.26-1.56,1.32-1.59,3.05-.1,6.11-.2,9.16-.32.85,0,1,.4,1,1.12,0,2.28,0,4.56,0,6.85,0,.46,0,.91.06,1.41a28.1,28.1,0,0,1,3.81-.3c3.34.18,6.66.52,10,.72.29,0,.84-.51.9-.84.24-1.48.34-3,.48-4.48.1-1,.21-2,.29-3.07.07-.82.4-1.09,1.27-.93,2.74.48,5.5.89,8.25,1.28,1.24.18,1.34.38,1,1.58-.79,2.88-1.55,5.77-2.22,8.68a2,2,0,0,0,.59,1.52c.69.74,1.59,1.3,2.32,2,1.64,1.62,1.66,3.69,1.33,5.76-.3,1.84-.8,3.6-2.54,4.74a2.6,2.6,0,0,0-.7,1.47c-.44,1.74-.89,3.48-1.19,5.25a5.79,5.79,0,0,0,.2,2.25c.74,3.07,1.53,6.13,2.3,9.19,0,.07-.06.15-.16.4-.23-.16-.56-.26-.6-.43-.58-2.36-1.1-4.74-1.67-7.1-.3-1.23-.65-2.45-1-3.79-1.4.76-2.67,1.37-3.85,2.13a2.35,2.35,0,0,0-.84,1.31,17,17,0,0,1-.88,3.1v-3.38c-1.15.4-1.61.9-1.55,2,.2,3.65.27,7.31.39,11,0,.45,0,.91,0,1.36l-.45.09a6,6,0,0,1-.31-1.26c-.11-3.83-.21-7.66-.24-11.49a1.79,1.79,0,0,0-1.09-1.82c-1.28-.65-2.51-1.42-4.06-2.31-.39,2-.77,3.8-1,5.59a1.72,1.72,0,0,0,.53,1.1c.64.73.39,1.3-.17,1.92s-1.24,1.45-1.85,2.17l-.21-.94h-7.07v1.77l-.46.08-3.25-13.27c-1.54,1.45-2.83,2.62-4,3.87a1.94,1.94,0,0,0-.3,1.2c-.1,4-.18,8.09-.26,12.13,0,.36-.07.71-.1,1.07h-.35c-.06-.8-.18-1.6-.18-2.4,0-3.4,0-6.8.13-10.2,0-1.06-.32-1.62-1.39-1.76a14.56,14.56,0,0,1-1.86-.54l.55,3.26-.29.18a5.45,5.45,0,0,1-.59-.95,5.9,5.9,0,0,1-.07-.9c-.21-1-.39-2.12-1.75-2.31-.25,0-.48-.2-.72-.25-.91-.18-2-.7-2.67-.39-.49.22-.51,1.57-.67,2.42-.48,2.48-.93,5-1.41,7.45a3.44,3.44,0,0,1-.43.85l-.36-.13c.19-1.11.36-2.22.57-3.32.42-2.27,1-4.51,1.22-6.8a16.45,16.45,0,0,0-.57-4.43c-.6-3.06-1.27-6.1-1.92-9.15-.22-1-.47-2.09-.7-3.13s.23-1.26,1.12-.94l3.57,1.31c1.17-1.52,2.18-3,3.34-4.26a4.33,4.33,0,0,1,3.27-1.76c-.32.33-.58.78-1,1a10.71,10.71,0,0,0-4.12,3.77c-.65,1-.51,1.64.56,2.05,1.85.72,3.72,1.39,5.57,2.09.81.31,1.41.73,1.26,1.78a11.41,11.41,0,0,0-.07,2.32c0,.33.19.84.43.95a9.49,9.49,0,0,0,2.09.56c2.61.46,5.21,1,7.84,1.32a38.11,38.11,0,0,0,12.8-.79,1.16,1.16,0,0,0,.66-.84c.11-1.06,0-2.16.16-3.2a2.35,2.35,0,0,1,1-1.55c2.83-1.4,5.73-2.66,8.61-4,1.8-.82,1.89-1.29.51-2.72a5.47,5.47,0,0,0-1.33-1c-1.28-.68-2.57-1.35-3.89-1.94A27.54,27.54,0,0,0,565.75,454a77.7,77.7,0,0,0-8.5,0,66.07,66.07,0,0,0-7.8,1.36C548,455.71,546.68,456.21,545.29,456.61Zm25.82,15.92c-7.86,1.15-15.67,1.27-23.36-1.34-.28,1.14,0,1.93,1.19,2.22,2.46.56,4.89,1.35,7.38,1.67a42.73,42.73,0,0,0,13.46-.44C571.29,474.35,571.41,474.24,571.12,472.53ZM555,484a17.34,17.34,0,0,0,2.54-.77,1.69,1.69,0,0,0,.9-1.11,44.88,44.88,0,0,0,0-5,1.36,1.36,0,0,0-.8-1,33.69,33.69,0,0,0-3.93-.57c-.78-.08-.91.36-.71,1.08.34,1.18.56,2.39.88,3.58S554.6,482.71,555,484Zm11.28-7.73c-1.52,0-2.8-.06-4.07,0-.36,0-1,.49-1,.77a38.56,38.56,0,0,0,0,5.28c.1,1.19,1.34,1,2.14,1.15s.77-.53.83-1.09.19-.92.27-1.38c.21-1.34.41-2.69.64-4.18ZM582,466.1a3,3,0,0,0,.94-4.26Z" transform="translate(-227 -336)"/><path class="cls-23" d="M545.29,456.61c1.38-.4,2.75-.89,4.16-1.18a66.07,66.07,0,0,1,7.8-1.36,77.7,77.7,0,0,1,8.5,0,27.54,27.54,0,0,1,10.71,2.31c1.32.6,2.61,1.26,3.89,1.94a5.47,5.47,0,0,1,1.33,1c1.38,1.43,1.29,1.9-.51,2.72-2.87,1.32-5.77,2.58-8.61,4a2.35,2.35,0,0,0-1,1.55c-.18,1,0,2.14-.16,3.2a1.16,1.16,0,0,1-.66.84,38.11,38.11,0,0,1-12.8.79c-2.62-.35-5.23-.86-7.84-1.32a9.49,9.49,0,0,1-2.09-.56c-.24-.1-.42-.61-.43-.95a11.41,11.41,0,0,1,.07-2.32c.16-1-.45-1.47-1.26-1.78-1.86-.7-3.72-1.37-5.57-2.09-1.08-.42-1.22-1.08-.56-2.05a10.71,10.71,0,0,1,4.12-3.77c.39-.19.65-.64,1-1Z" transform="translate(-227 -336)"/><path class="cls-24" d="M571.12,472.53c.29,1.72.17,1.83-1.32,2.11a42.73,42.73,0,0,1-13.46.44c-2.49-.32-4.92-1.11-7.38-1.67-1.24-.29-1.48-1.08-1.19-2.22C555.44,473.79,563.26,473.68,571.12,472.53Z" transform="translate(-227 -336)"/><path class="cls-25" d="M582,466.1l.94-4.26A3,3,0,0,1,582,466.1Z" transform="translate(-227 -336)"/><polygon class="cls-64" points="730.66 161.46 729.81 166.15 735.68 170.55 736.5 164.31 730.66 161.46"/><path class="cls-65" d="M955.71,488.2c0,.37.73,8.44.73,8.44l5.5,3.67h2.57l.73-10.64L962.31,486Z" transform="translate(-227 -336)"/><polygon class="cls-22" points="725.4 195.87 724.67 215.31 725.77 229.63 725.77 235.5 732.01 235.5 734.21 210.91 734.21 233.66 745.59 233.66 740.45 190.73 725.4 195.87"/><polygon class="cls-31" points="729.81 166.15 721.73 173.48 721 196.97 725.4 197.7 725.4 195.87 729.81 196.23 737.51 194.03 740.45 190.73 740.45 184.49 743.02 185.23 747.05 180.82 741.91 166.15 737.51 164.31 734.94 169.08 729.81 166.15"/><polygon class="cls-65" points="722.09 197.15 723.57 206.51 726.14 207.24 729.81 207.24 727.24 202.84 728.71 202.1 725.04 199.9 725.4 197.7 722.09 197.15"/><polygon class="cls-65" points="740.45 184.49 740.45 190.73 743.02 190.73 743.02 185.23 740.45 184.49"/><polygon class="cls-65" points="727.62 235.5 727.61 238.43 730.54 238.43 730.54 235.5 727.62 235.5"/><polygon class="cls-65" points="738.07 233.69 738.61 236.96 740.45 236.96 740.45 233.69 738.07 233.69"/><path class="cls-66" d="M954.6,573.31l-2.94,2.58,4.4,1.1s5.87-.37,5.87-.73-3.67-2.94-3.67-2.94Z" transform="translate(-227 -336)"/><polygon class="cls-66" points="738.61 236.96 738.25 238.43 740.45 239.53 745.22 238.43 742.65 235.5 738.61 236.96"/><polygon class="cls-67" points="185 273 184.5 272.5 420.5 409.5 657.5 272.5 696.5 295.5 814.5 227.5 545 72 185 273"/><polygon class="cls-68" points="128 231 122 227 130 217 134 221 136 229 132 229 128 225 128 231"/><polygon class="cls-69" points="128 225 128 231 132 233 136 229 134 225 128 225"/><polygon class="cls-70" points="126 255 124 275 128 277 129 255 126 255"/><path class="cls-70" d="M359,593c0,2,6,18,6,18h4l-4-20Z" transform="translate(-227 -336)"/><polygon class="cls-71" points="128 231 120 245 124 247 126 255 138 255 138 243 142 241 140 231 136 229 132 233 128 231"/><polyline class="cls-72" points="124 275 120 279 128 277"/><polyline class="cls-72" points="138 275 134 279 142 275"/><polyline class="cls-69" points="120 245 118 253 120 255 124 247"/><polygon class="cls-69" points="138 243 144 253 146 249 142 241 138 243"/></svg>