<svg id="Layer_1" data-name="Layer 1" xmlns="http://www.w3.org/2000/svg" viewBox="0 0 814.5 470.5"><defs><style>.cls-1{fill:#e3f5ff;}.cls-2{fill:#f48c9b;opacity:0.21;}.cls-3{fill:#f219e3;opacity:0.25;}.cls-4{fill:#926b69;}.cls-5{fill:#ccc;}.cls-6{fill:#797979;}.cls-7{fill:#e0e2d5;}.cls-8{fill:#877a71;}.cls-9{fill:#eddbc7;}.cls-10,.cls-41,.cls-69{fill:#9aca4a;}.cls-10{opacity:0.16;}.cls-11{fill:#5e402f;}.cls-12{fill:#edbca4;}.cls-13{fill:#eac8b4;}.cls-14{fill:#888886;}.cls-15{fill:#e66e9d;}.cls-16{fill:#60665c;}.cls-17{fill:#efbbb4;}.cls-18{fill:#926f65;}.cls-19{fill:#9e766e;}.cls-20{fill:#a97f78;}.cls-21{fill:#fbedea;}.cls-22{fill:#c1594c;}.cls-23{fill:#f47c5d;}.cls-24{fill:#f4cdc6;}.cls-25{fill:#c7b7a6;}.cls-26{fill:#9dd0e2;}.cls-27{fill:#a18370;}.cls-28{fill:#e7f8f2;}.cls-29{fill:#c95a86;}.cls-30{fill:#b5977f;}.cls-31{fill:#ead0b7;}.cls-32{fill:#361409;}.cls-33{fill:#e9bf9f;}.cls-34{fill:#f7bb8d;}.cls-35{fill:#415477;}.cls-36{fill:#0e4578;}.cls-37{fill:#787f7d;}.cls-38{fill:#a9c7f7;}.cls-39{fill:#93bcf9;}.cls-40{fill:#3f3f3f;}.cls-42{fill:#3a3635;}.cls-43{fill:#908581;}.cls-44{fill:#693400;}.cls-45{fill:#f4c8a3;}.cls-46{fill:#ffdcfd;}.cls-47{fill:#ddb79b;}.cls-48{fill:#f9afda;}.cls-49{fill:#afb8b5;}.cls-50{fill:#95908d;}.cls-51{fill:#414141;}.cls-52{fill:#757575;}.cls-53{fill:#efc2a3;}.cls-54{fill:#525357;}.cls-55{fill:#fff;}.cls-56{fill:#6a6b6f;}.cls-57{fill:#c1bfbd;}.cls-58{fill:#dd9e1f;}.cls-59{fill:#354463;}.cls-60{fill:#707072;}.cls-61{fill:#1c1c1c;}.cls-62{fill:#131313;}.cls-63{fill:#d2ccd0;}.cls-64{fill:#697e9a;}.cls-65{fill:#e7e7e7;}.cls-66{fill:#1e2221;}.cls-67{fill:#64cbc7;}.cls-68{fill:#c8bebd;}.cls-69{opacity:0.63;}.cls-70{fill:#a8a296;}.cls-71{fill:#e07d5a;}.cls-72{fill:#ffb195;}.cls-73{fill:#a49787;}.cls-74{fill:#e19a7d;}.cls-75{fill:#56b7bf;}.cls-76{fill:#3a8b83;}.cls-77{fill:#b4dbe5;}.cls-78{fill:#2e6f62;}.cls-79{fill:#00c5a4;}.cls-80{fill:#efd128;}.cls-81{fill:#ee3a2f;}.cls-82{fill:#3396d6;}.cls-83{fill:#606060;}.cls-84{fill:#e9d200;}.cls-85{fill:#a4a4a4;}.cls-86{fill:#666467;}.cls-87{fill:#95969a;}.cls-88{fill:#424146;}.cls-89{fill:#686669;}.cls-90{fill:#bcbcbc;}.cls-91{fill:#e0e0e0;}.cls-92{fill:#6c6a6d;}.cls-93{fill:#5f5b5a;}.cls-94{fill:#0f294a;}.cls-95{fill:#bdbfc6;}.cls-96{fill:#827155;}.cls-97{fill:#dc6a67;}.cls-98{fill:#fce5c1;}.cls-99{fill:#3d3b46;}.cls-100{fill:#868686;}.cls-101{fill:#774d4d;}.cls-102{fill:#f2d7a8;}.cls-103{fill:#efefef;}.cls-104{fill:#ffedbf;}.cls-105{fill:#d1d1d1;}.cls-106{fill:#99a1a3;}.cls-107{fill:#3a4e48;}.cls-108{fill:#6e6e6e;}.cls-109{fill:#1212dd;}.cls-110{fill:#d0d0d0;}.cls-111{fill:#b8b8b8;}.cls-112{fill:#9a9a9a;}.cls-113{fill:#fcfcfc;}.cls-114{fill:#959595;}.cls-115{fill:#7f8d96;}.cls-116{fill:#71b596;}.cls-117{fill:#98edc9;}.cls-118{fill:#ffd8b3;}.cls-119{fill:#a19a94;}.cls-120{fill:#49453c;}.cls-121{fill:#766f64;}.cls-122{fill:#9a778b;}.cls-123{fill:#eeebe2;}.cls-124{fill:#a09c93;}.cls-125{fill:#d3c3b3;}.cls-126{fill:#89827a;}.cls-127{fill:#b7a595;}.cls-128{fill:#ad7a70;}.cls-129{fill:#dfcdc0;}.cls-130{fill:#dfbea5;}.cls-131{fill:#d8aa8b;}.cls-132{fill:#585744;}.cls-133{fill:#fff9e9;}.cls-134{fill:#f7e9cb;}.cls-135{fill:#292933;}.cls-136{fill:#cc9f93;}.cls-137{fill:#0e1822;opacity:0.45;}.cls-138{fill:#ab846f;}.cls-139{fill:#e6b083;}.cls-140{fill:#f4bb90;}.cls-141{fill:#4e4439;}.cls-142{fill:#455c6b;}</style></defs><title>F3</title><polygon class="cls-1" points="0 303.5 118.6 371.83 184 333.5 420 470.5 657 333.5 696 356.5 814 288.5 420 61.5 0 303.5"/><polygon class="cls-2" points="120.5 372 302.5 266 184.5 197 0.5 304 120.5 372"/><polygon class="cls-3" points="538.5 130 814.5 288 696.5 357 656.5 333 635.5 348 398.5 210 538.5 130"/><path class="cls-4" d="M338.4,587.31c1.24-.89.83-2.1.61-3.26-.47-2.48-.92-5-1.47-7.43-.27-1.22.26-1.56,1.32-1.59,3.05-.1,6.11-.2,9.16-.32.85,0,1,.4,1,1.12,0,2.28,0,4.56,0,6.85,0,.46,0,.91.06,1.41a28.11,28.11,0,0,1,3.81-.3c3.34.18,6.66.52,10,.72.29,0,.84-.51.9-.84.24-1.48.34-3,.48-4.48.1-1,.21-2,.29-3.07.07-.82.4-1.09,1.27-.93,2.74.48,5.5.89,8.25,1.28,1.24.18,1.34.38,1,1.58-.79,2.88-1.55,5.77-2.22,8.68a2,2,0,0,0,.59,1.52c.69.74,1.59,1.3,2.32,2,1.64,1.62,1.66,3.69,1.33,5.76-.3,1.84-.8,3.6-2.54,4.74a2.6,2.6,0,0,0-.7,1.47c-.44,1.74-.89,3.48-1.19,5.25a5.79,5.79,0,0,0,.2,2.25c.74,3.07,1.53,6.13,2.3,9.19,0,.07-.06.15-.16.4-.23-.16-.56-.26-.6-.43-.58-2.36-1.1-4.74-1.67-7.1-.3-1.23-.65-2.45-1-3.79-1.4.76-2.67,1.37-3.85,2.13a2.35,2.35,0,0,0-.84,1.31,17,17,0,0,1-.88,3.1v-3.38c-1.15.4-1.61.9-1.55,2,.2,3.65.27,7.31.39,11,0,.45,0,.91,0,1.36l-.45.09a6,6,0,0,1-.31-1.26c-.11-3.83-.21-7.66-.24-11.49a1.79,1.79,0,0,0-1.09-1.82c-1.28-.65-2.51-1.42-4.06-2.31-.39,2-.77,3.8-1,5.59a1.72,1.72,0,0,0,.53,1.1c.64.73.39,1.3-.17,1.92s-1.24,1.45-1.85,2.17l-.21-.94H349v1.77l-.46.08-3.25-13.27c-1.54,1.45-2.83,2.62-4,3.87a1.94,1.94,0,0,0-.3,1.2c-.1,4-.18,8.09-.26,12.13,0,.36-.07.71-.1,1.07h-.35c-.06-.8-.18-1.6-.18-2.4,0-3.4,0-6.8.13-10.2,0-1.06-.32-1.62-1.39-1.76a14.56,14.56,0,0,1-1.86-.54l.55,3.26-.29.18a5.45,5.45,0,0,1-.59-.95,5.9,5.9,0,0,1-.07-.9c-.21-1-.39-2.12-1.75-2.31-.25,0-.48-.2-.72-.25-.91-.18-2-.7-2.67-.39-.49.22-.51,1.57-.67,2.42-.48,2.48-.93,5-1.41,7.45a3.44,3.44,0,0,1-.43.85l-.36-.13c.19-1.11.36-2.22.57-3.32.42-2.27,1-4.51,1.22-6.8a16.45,16.45,0,0,0-.57-4.43c-.6-3.06-1.27-6.1-1.92-9.15-.22-1-.47-2.09-.7-3.13s.23-1.26,1.12-.94l3.57,1.31c1.17-1.52,2.18-3,3.34-4.26a4.33,4.33,0,0,1,3.27-1.76c-.32.33-.58.78-1,1a10.71,10.71,0,0,0-4.12,3.77c-.65,1-.51,1.64.56,2.05,1.85.72,3.72,1.39,5.57,2.09.81.31,1.41.73,1.26,1.78a11.41,11.41,0,0,0-.07,2.32c0,.33.19.84.43.95a9.49,9.49,0,0,0,2.09.56c2.61.46,5.21,1,7.84,1.32a38.11,38.11,0,0,0,12.8-.79,1.16,1.16,0,0,0,.66-.84c.11-1.06,0-2.16.16-3.2a2.35,2.35,0,0,1,1-1.55c2.83-1.4,5.73-2.66,8.61-4,1.8-.82,1.89-1.29.51-2.72a5.47,5.47,0,0,0-1.33-1c-1.28-.68-2.57-1.35-3.89-1.94a27.54,27.54,0,0,0-10.71-2.31,77.7,77.7,0,0,0-8.5,0,66.07,66.07,0,0,0-7.8,1.36C341.15,586.41,339.78,586.91,338.4,587.31Zm25.82,15.92c-7.86,1.15-15.67,1.27-23.36-1.34-.28,1.14,0,1.93,1.19,2.22,2.46.56,4.89,1.35,7.38,1.67a42.73,42.73,0,0,0,13.46-.44C364.39,605.05,364.51,604.95,364.22,603.23Zm-16.13,11.46a17.34,17.34,0,0,0,2.54-.77,1.69,1.69,0,0,0,.9-1.11,44.88,44.88,0,0,0,0-5,1.36,1.36,0,0,0-.8-1,33.69,33.69,0,0,0-3.93-.57c-.78-.08-.91.36-.71,1.08.34,1.18.56,2.39.88,3.58S347.71,613.41,348.09,614.68ZM359.36,607c-1.52,0-2.8-.06-4.07,0-.36,0-1,.49-1,.77a38.56,38.56,0,0,0,0,5.28c.1,1.19,1.34,1,2.14,1.15s.77-.53.83-1.09.19-.92.27-1.38c.21-1.34.41-2.69.64-4.18Zm15.71-10.16a3,3,0,0,0,.94-4.26Z" transform="translate(-232.5 -277)"/><path class="cls-5" d="M338.4,587.31c1.38-.4,2.75-.89,4.16-1.18a66.07,66.07,0,0,1,7.8-1.36,77.7,77.7,0,0,1,8.5,0A27.54,27.54,0,0,1,369.57,587c1.32.6,2.61,1.26,3.89,1.94a5.47,5.47,0,0,1,1.33,1c1.38,1.43,1.29,1.9-.51,2.72-2.87,1.32-5.77,2.58-8.61,4a2.35,2.35,0,0,0-1,1.55c-.18,1,0,2.14-.16,3.2a1.16,1.16,0,0,1-.66.84,38.11,38.11,0,0,1-12.8.79c-2.62-.35-5.23-.86-7.84-1.32a9.49,9.49,0,0,1-2.09-.56c-.24-.1-.42-.61-.43-.95a11.41,11.41,0,0,1,.07-2.32c.16-1-.45-1.47-1.26-1.78-1.86-.7-3.72-1.37-5.57-2.09-1.08-.42-1.22-1.08-.56-2.05a10.71,10.71,0,0,1,4.12-3.77c.39-.19.65-.64,1-1Z" transform="translate(-232.5 -277)"/><path class="cls-6" d="M364.22,603.23c.29,1.72.17,1.83-1.32,2.11a42.73,42.73,0,0,1-13.46.44c-2.49-.32-4.92-1.11-7.38-1.67-1.24-.29-1.48-1.08-1.19-2.22C348.55,604.49,356.36,604.38,364.22,603.23Z" transform="translate(-232.5 -277)"/><path class="cls-7" d="M375.07,596.8l.94-4.26A3,3,0,0,1,375.07,596.8Z" transform="translate(-232.5 -277)"/><path class="cls-8" d="M387.43,559.29c1.24-.89.83-2.1.61-3.26-.47-2.48-.92-5-1.47-7.43-.27-1.22.26-1.56,1.32-1.59,3.05-.1,6.11-.2,9.16-.32.85,0,1,.4,1,1.12,0,2.28,0,4.56,0,6.85,0,.46,0,.91.06,1.41a28.1,28.1,0,0,1,3.81-.3c3.34.18,6.66.52,10,.72.29,0,.84-.51.9-.84.24-1.48.34-3,.48-4.48.1-1,.21-2,.29-3.07.07-.82.4-1.09,1.27-.93,2.74.48,5.5.89,8.25,1.28,1.24.18,1.34.38,1,1.58-.79,2.88-1.55,5.77-2.22,8.68a2,2,0,0,0,.59,1.52c.69.74,1.59,1.3,2.32,2,1.64,1.62,1.66,3.69,1.33,5.76-.3,1.84-.8,3.6-2.54,4.74a2.6,2.6,0,0,0-.7,1.47c-.44,1.74-.89,3.48-1.19,5.25a5.79,5.79,0,0,0,.2,2.25c.74,3.07,1.53,6.13,2.3,9.19,0,.07-.06.15-.16.4-.23-.16-.56-.26-.6-.43-.58-2.36-1.1-4.74-1.67-7.1-.3-1.23-.65-2.45-1-3.79-1.4.76-2.67,1.37-3.85,2.13a2.35,2.35,0,0,0-.84,1.31,17,17,0,0,1-.88,3.1v-3.38c-1.15.4-1.61.9-1.55,2,.2,3.65.27,7.31.39,11,0,.45,0,.91,0,1.36l-.45.09a6,6,0,0,1-.31-1.26c-.11-3.83-.21-7.66-.24-11.49A1.79,1.79,0,0,0,412,583c-1.28-.65-2.51-1.42-4.06-2.31-.39,2-.77,3.8-1,5.59a1.72,1.72,0,0,0,.53,1.1c.64.73.39,1.3-.17,1.92s-1.24,1.45-1.85,2.17l-.21-.94h-7.07v1.77l-.46.08-3.25-13.27c-1.54,1.45-2.83,2.62-4,3.87a1.94,1.94,0,0,0-.3,1.2c-.1,4-.18,8.09-.26,12.13,0,.36-.07.71-.1,1.07h-.35c-.06-.8-.18-1.6-.18-2.4,0-3.4,0-6.8.13-10.2,0-1.06-.32-1.62-1.39-1.76a14.56,14.56,0,0,1-1.86-.54l.55,3.26-.29.18a5.45,5.45,0,0,1-.59-.95,5.9,5.9,0,0,1-.07-.9c-.21-1-.39-2.12-1.75-2.31-.25,0-.48-.2-.72-.25-.91-.18-2-.7-2.67-.39-.49.22-.51,1.57-.67,2.42-.48,2.48-.93,5-1.41,7.45a3.44,3.44,0,0,1-.43.85l-.36-.13c.19-1.11.36-2.22.57-3.32.42-2.27,1-4.51,1.22-6.8a16.45,16.45,0,0,0-.57-4.43c-.6-3.06-1.27-6.1-1.92-9.15-.22-1-.47-2.09-.7-3.13s.23-1.26,1.12-.94l3.57,1.31c1.17-1.52,2.18-3,3.34-4.26a4.33,4.33,0,0,1,3.27-1.76c-.32.33-.58.78-1,1a10.71,10.71,0,0,0-4.12,3.77c-.65,1-.51,1.64.56,2.05,1.85.72,3.72,1.39,5.57,2.09.81.31,1.41.73,1.26,1.78a11.41,11.41,0,0,0-.07,2.32c0,.33.19.84.43.95a9.49,9.49,0,0,0,2.09.56c2.61.46,5.21,1,7.84,1.32a38.11,38.11,0,0,0,12.8-.79,1.16,1.16,0,0,0,.66-.84c.11-1.06,0-2.16.16-3.2a2.35,2.35,0,0,1,1-1.55c2.83-1.4,5.73-2.66,8.61-4,1.8-.82,1.89-1.29.51-2.72a5.47,5.47,0,0,0-1.33-1c-1.28-.68-2.57-1.35-3.89-1.94a27.54,27.54,0,0,0-10.71-2.31,77.7,77.7,0,0,0-8.5,0,66.07,66.07,0,0,0-7.8,1.36C390.18,558.4,388.82,558.89,387.43,559.29Zm25.82,15.92c-7.86,1.15-15.67,1.27-23.36-1.34-.28,1.14,0,1.93,1.19,2.22,2.46.56,4.89,1.35,7.38,1.67a42.73,42.73,0,0,0,13.46-.44C413.42,577,413.54,576.93,413.25,575.21Zm-16.13,11.46a17.34,17.34,0,0,0,2.54-.77,1.69,1.69,0,0,0,.9-1.11,44.88,44.88,0,0,0,0-5,1.36,1.36,0,0,0-.8-1,33.69,33.69,0,0,0-3.93-.57c-.78-.08-.91.36-.71,1.08.34,1.18.56,2.39.88,3.58S396.74,585.39,397.12,586.67Zm11.28-7.73c-1.52,0-2.8-.06-4.07,0-.36,0-1,.49-1,.77a38.56,38.56,0,0,0,0,5.28c.1,1.19,1.34,1,2.14,1.15s.77-.53.83-1.09.19-.92.27-1.38c.21-1.34.41-2.69.64-4.18Zm15.71-10.16a3,3,0,0,0,.94-4.26Z" transform="translate(-232.5 -277)"/><path class="cls-5" d="M387.43,559.29c1.38-.4,2.75-.89,4.16-1.18a66.07,66.07,0,0,1,7.8-1.36,77.7,77.7,0,0,1,8.5,0A27.54,27.54,0,0,1,418.6,559c1.32.6,2.61,1.26,3.89,1.94a5.47,5.47,0,0,1,1.33,1c1.38,1.43,1.29,1.9-.51,2.72-2.87,1.32-5.77,2.58-8.61,4a2.35,2.35,0,0,0-1,1.55c-.18,1,0,2.14-.16,3.2a1.16,1.16,0,0,1-.66.84,38.11,38.11,0,0,1-12.8.79c-2.62-.35-5.23-.86-7.84-1.32a9.49,9.49,0,0,1-2.09-.56c-.24-.1-.42-.61-.43-.95a11.41,11.41,0,0,1,.07-2.32c.16-1-.45-1.47-1.26-1.78-1.86-.7-3.72-1.37-5.57-2.09-1.08-.42-1.22-1.08-.56-2.05a10.71,10.71,0,0,1,4.12-3.77c.39-.19.65-.64,1-1Z" transform="translate(-232.5 -277)"/><path class="cls-6" d="M413.25,575.21c.29,1.72.17,1.83-1.32,2.11a42.73,42.73,0,0,1-13.46.44c-2.49-.32-4.92-1.11-7.38-1.67-1.24-.29-1.48-1.08-1.19-2.22C397.58,576.48,405.39,576.36,413.25,575.21Z" transform="translate(-232.5 -277)"/><path class="cls-7" d="M424.1,568.78l.94-4.26A3,3,0,0,1,424.1,568.78Z" transform="translate(-232.5 -277)"/><polygon class="cls-9" points="0.5 304 0.5 243 184.5 137 184.5 197.19 0.5 304"/><path class="cls-4" d="M435.29,533.61c1.24-.89.83-2.1.61-3.26-.47-2.48-.92-5-1.47-7.43-.27-1.22.26-1.56,1.32-1.59,3.05-.1,6.11-.2,9.16-.32.85,0,1,.4,1,1.12,0,2.28,0,4.56,0,6.85,0,.46,0,.91.06,1.41a28.1,28.1,0,0,1,3.81-.3c3.34.18,6.66.52,10,.72.29,0,.84-.51.9-.84.24-1.48.34-3,.48-4.48.1-1,.21-2,.29-3.07.07-.82.4-1.09,1.27-.93,2.74.48,5.5.89,8.25,1.28,1.24.18,1.34.38,1,1.58-.79,2.88-1.55,5.77-2.22,8.68a2,2,0,0,0,.59,1.52c.69.74,1.59,1.3,2.32,2,1.64,1.62,1.66,3.69,1.33,5.76-.3,1.84-.8,3.6-2.54,4.74a2.6,2.6,0,0,0-.7,1.47c-.44,1.74-.89,3.48-1.19,5.25a5.79,5.79,0,0,0,.2,2.25c.74,3.07,1.53,6.13,2.3,9.19,0,.07-.06.15-.16.4-.23-.16-.56-.26-.6-.43-.58-2.36-1.1-4.74-1.67-7.1-.3-1.23-.65-2.45-1-3.79-1.4.76-2.67,1.37-3.85,2.13a2.35,2.35,0,0,0-.84,1.31,17,17,0,0,1-.88,3.1v-3.38c-1.15.4-1.61.9-1.55,2,.2,3.65.27,7.31.39,11,0,.45,0,.91,0,1.36l-.45.09a6,6,0,0,1-.31-1.26c-.11-3.83-.21-7.66-.24-11.49a1.79,1.79,0,0,0-1.09-1.82c-1.28-.65-2.51-1.42-4.06-2.31-.39,2-.77,3.8-1,5.59a1.72,1.72,0,0,0,.53,1.1c.64.73.39,1.3-.17,1.92s-1.24,1.45-1.85,2.17l-.21-.94h-7.07v1.77l-.46.08-3.25-13.27c-1.54,1.45-2.83,2.62-4,3.87a1.94,1.94,0,0,0-.3,1.2c-.1,4-.18,8.09-.26,12.13,0,.36-.07.71-.1,1.07h-.35c-.06-.8-.18-1.6-.18-2.4,0-3.4,0-6.8.13-10.2,0-1.06-.32-1.62-1.39-1.76a14.56,14.56,0,0,1-1.86-.54l.55,3.26-.29.18a5.45,5.45,0,0,1-.59-.95,5.9,5.9,0,0,1-.07-.9c-.21-1-.39-2.12-1.75-2.31-.25,0-.48-.2-.72-.25-.91-.18-2-.7-2.67-.39-.49.22-.51,1.57-.67,2.42-.48,2.48-.93,5-1.41,7.45a3.44,3.44,0,0,1-.43.85l-.36-.13c.19-1.11.36-2.22.57-3.32.42-2.27,1-4.51,1.22-6.8a16.45,16.45,0,0,0-.57-4.43c-.6-3.06-1.27-6.1-1.92-9.15-.22-1-.47-2.09-.7-3.13s.23-1.26,1.12-.94l3.57,1.31c1.17-1.52,2.18-3,3.34-4.26a4.33,4.33,0,0,1,3.27-1.76c-.32.33-.58.78-1,1a10.71,10.71,0,0,0-4.12,3.77c-.65,1-.51,1.64.56,2.05,1.85.72,3.72,1.39,5.57,2.09.81.31,1.41.73,1.26,1.78a11.41,11.41,0,0,0-.07,2.32c0,.33.19.84.43.95a9.49,9.49,0,0,0,2.09.56c2.61.46,5.21,1,7.84,1.32a38.11,38.11,0,0,0,12.8-.79,1.16,1.16,0,0,0,.66-.84c.11-1.06,0-2.16.16-3.2a2.35,2.35,0,0,1,1-1.55c2.83-1.4,5.73-2.66,8.61-4,1.8-.82,1.89-1.29.51-2.72a5.47,5.47,0,0,0-1.33-1c-1.28-.68-2.57-1.35-3.89-1.94A27.54,27.54,0,0,0,455.75,531a77.7,77.7,0,0,0-8.5,0,66.07,66.07,0,0,0-7.8,1.36C438,532.71,436.68,533.21,435.29,533.61Zm25.82,15.92c-7.86,1.15-15.67,1.27-23.36-1.34-.28,1.14,0,1.93,1.19,2.22,2.46.56,4.89,1.35,7.38,1.67a42.73,42.73,0,0,0,13.46-.44C461.29,551.35,461.41,551.24,461.12,549.53ZM445,561a17.34,17.34,0,0,0,2.54-.77,1.69,1.69,0,0,0,.9-1.11,44.88,44.88,0,0,0,0-5,1.36,1.36,0,0,0-.8-1,33.69,33.69,0,0,0-3.93-.57c-.78-.08-.91.36-.71,1.08.34,1.18.56,2.39.88,3.58S444.6,559.71,445,561Zm11.28-7.73c-1.52,0-2.8-.06-4.07,0-.36,0-1,.49-1,.77a38.56,38.56,0,0,0,0,5.28c.1,1.19,1.34,1,2.14,1.15s.77-.53.83-1.09.19-.92.27-1.38c.21-1.34.41-2.69.64-4.18ZM472,543.1a3,3,0,0,0,.94-4.26Z" transform="translate(-232.5 -277)"/><path class="cls-5" d="M435.29,533.61c1.38-.4,2.75-.89,4.16-1.18a66.07,66.07,0,0,1,7.8-1.36,77.7,77.7,0,0,1,8.5,0,27.54,27.54,0,0,1,10.71,2.31c1.32.6,2.61,1.26,3.89,1.94a5.47,5.47,0,0,1,1.33,1c1.38,1.43,1.29,1.9-.51,2.72-2.87,1.32-5.77,2.58-8.61,4a2.35,2.35,0,0,0-1,1.55c-.18,1,0,2.14-.16,3.2a1.16,1.16,0,0,1-.66.84,38.11,38.11,0,0,1-12.8.79c-2.62-.35-5.23-.86-7.84-1.32a9.49,9.49,0,0,1-2.09-.56c-.24-.1-.42-.61-.43-.95a11.41,11.41,0,0,1,.07-2.32c.16-1-.45-1.47-1.26-1.78-1.86-.7-3.72-1.37-5.57-2.09-1.08-.42-1.22-1.08-.56-2.05a10.71,10.71,0,0,1,4.12-3.77c.39-.19.65-.64,1-1Z" transform="translate(-232.5 -277)"/><path class="cls-6" d="M461.12,549.53c.29,1.72.17,1.83-1.32,2.11a42.73,42.73,0,0,1-13.46.44c-2.49-.32-4.92-1.11-7.38-1.67-1.24-.29-1.48-1.08-1.19-2.22C445.44,550.79,453.26,550.68,461.12,549.53Z" transform="translate(-232.5 -277)"/><path class="cls-7" d="M472,543.1l.94-4.26A3,3,0,0,1,472,543.1Z" transform="translate(-232.5 -277)"/><polygon class="cls-10" points="236.5 168 420.5 61 538.5 130 302.5 266 236.5 168"/><path class="cls-4" d="M303.4,520.74" transform="translate(-232.5 -277)"/><ellipse class="cls-4" cx="76.24" cy="243.18" rx="0.28"/><polyline class="cls-11" points="71.46 243.18 71.26 242.98 69.78 241.49 69.21 236.43 72.02 234.18 75.96 234.18 78.77 235.87 78.77 238.68 77.64 240.82"/><polygon class="cls-12" points="71.46 243.18 70.34 246.55 72.02 248.8 73.71 248.8 74.83 248.8 74.83 246.55 71.46 243.18"/><polyline class="cls-13" points="74.27 239.24 77.64 238.68 77.64 244.3 76.52 246.55 73.71 246.55 72.02 244.86 71.46 243.18 70.9 242.05 71.46 240.93 72.02 240.93 73.15 241.49 73.71 239.8"/><polygon class="cls-14" points="70.34 246.55 65.84 249.92 69.21 252.17 66.4 261.73 67.53 284.77 82.14 278.03 78.77 247.11 77.03 245.53 74.83 246.55 74.83 248.8 72.02 248.8 70.34 246.55"/><polygon class="cls-15" points="67.53 248.8 68.65 247.67 73.71 251.05 77.08 249.92 75.39 246.55 76.52 245.99 78.77 250.48 81.02 278.59 74.27 280.84 69.78 280.84 66.4 261.73 68.65 261.16 70.9 254.42 71.46 251.05 67.53 248.8"/><polygon class="cls-16" points="65.84 249.92 61.34 262.85 73.15 269.6 74.27 267.35 74.27 265.66 65.84 261.73 69.78 252.17 68.09 249.36 65.84 249.92"/><polygon class="cls-16" points="78.77 247.11 81.02 254.98 83.27 274.09 81.71 274.09 78.77 247.11"/><polygon class="cls-12" points="74.27 266.56 76.52 268.47 73.45 268.99 74.27 267.35 74.27 266.56"/><polygon class="cls-17" points="17.5 265.66 28.18 259.48 63.03 277.46 91.13 262.29 103.5 268.47 66.96 286.46 59.09 286.46 17.5 265.66"/><polygon class="cls-18" points="19.14 271.56 19.19 293.2 60.78 314 66.4 314 100.69 296.57 101.25 274.13 66.4 292.08 59.38 291.8 19.14 271.56"/><polygon class="cls-19" points="17.5 265.66 17.5 270.72 59.09 292.08 59.09 286.46 17.5 265.66"/><polygon class="cls-20" points="59.09 292.08 66.4 292.08 66.96 286.46 59.09 286.46 59.09 292.08"/><polygon class="cls-19" points="66.96 286.46 103.5 268.47 103.5 272.97 66.4 292.08 66.96 286.46"/><path class="cls-18" d="M292.16,568.52" transform="translate(-232.5 -277)"/><polygon class="cls-20" points="59.09 293.76 66.4 294.33 66.4 314 60.78 314 59.09 293.76"/><polygon class="cls-21" points="75.39 269.6 86.64 264.54 92.5 264.42 83.27 270.72 75.39 269.6"/><polygon class="cls-22" points="75.39 269.6 83.27 270.72 83.27 266.22 85.51 267.91 85.51 276.9 75.39 272.4 75.39 269.6"/><polygon class="cls-23" points="85.51 267.91 95.63 262.85 95.63 271.28 85.51 276.9 85.51 267.91"/><polygon class="cls-24" points="83.27 266.22 92.82 261.16 95.63 262.85 85.51 267.91 83.27 266.22"/><polygon class="cls-25" points="168.5 208.25 113.84 234.98 121 245.75 179.13 218.25 168.5 208.25"/><polygon class="cls-26" points="122.88 235.13 124.75 235.13 124.75 236.38 126 236.38 127.88 236.38 129.13 237.63 131 237 133.5 237 133.5 235.75 135.38 235.75 136.63 235.13 137.88 235.13 137.88 233.88 137.88 232 136.63 231.38 136.63 229.5 135.38 229.5 133.5 228.88 132.25 229.5 130.38 228.88 129.75 229.5 127.88 228.88 126.63 230.13 124.75 230.13 124.75 231.38 122.88 231.38 122.88 232.63 122.88 235.13"/><polygon class="cls-27" points="126 231.33 126.53 233.44 128.12 234.5 134.99 231.33 134.99 229.4 126 231.33"/><polygon class="cls-28" points="126.53 228.68 134.99 228.68 134.99 230.27 134.46 230.27 133.93 230.8 131.82 230.8 131.82 231.86 130.23 231.86 129.7 232.38 128.12 232.38 128.12 232.91 127.06 232.38 126 231.33 126.53 228.68"/><circle class="cls-29" cx="132.88" cy="228.68" r="1.06"/><polygon class="cls-26" points="155.38 220.13 157.25 220.13 157.25 221.38 158.5 221.38 160.38 221.38 161.63 222.63 163.5 222 166 222 166 220.75 167.88 220.75 169.13 220.13 170.38 220.13 170.38 218.88 170.38 217 169.13 216.38 169.13 214.5 167.88 214.5 166 213.88 164.75 214.5 162.88 213.88 162.25 214.5 160.38 213.88 159.13 215.13 157.25 215.13 157.25 216.38 155.38 216.38 155.38 217.63 155.38 220.13"/><polygon class="cls-27" points="158.5 216.33 159.03 218.44 160.62 219.5 167.49 216.33 167.49 214.4 158.5 216.33"/><polygon class="cls-28" points="159.03 213.68 167.49 213.68 167.49 215.27 166.96 215.27 166.43 215.8 164.32 215.8 164.32 216.86 162.73 216.86 162.2 217.38 160.62 217.38 160.62 217.91 159.56 217.38 158.5 216.33 159.03 213.68"/><circle class="cls-29" cx="165.38" cy="213.68" r="1.06"/><polygon class="cls-26" points="140.38 227 142.25 227 142.25 228.25 143.5 228.25 145.38 228.25 146.63 229.5 148.5 228.88 151 228.88 151 227.63 152.88 227.63 154.13 227 155.38 227 155.38 225.75 155.38 223.88 154.13 223.25 154.13 221.38 152.88 221.38 151 220.75 149.75 221.38 147.88 220.75 147.25 221.38 145.38 220.75 144.13 222 142.25 222 142.25 223.25 140.38 223.25 140.38 224.5 140.38 227"/><polygon class="cls-27" points="143.5 223.2 144.03 225.32 145.62 226.38 152.49 223.2 152.49 221.27 143.5 223.2"/><polygon class="cls-28" points="144.03 220.56 152.49 220.56 152.49 222.14 151.96 222.14 151.43 222.67 149.32 222.67 149.32 223.73 147.73 223.73 147.2 224.26 145.62 224.26 145.62 224.79 144.56 224.26 143.5 223.2 144.03 220.56"/><circle class="cls-29" cx="150.38" cy="220.56" r="1.06"/><polygon class="cls-4" points="121 245.75 184.13 214.5 184.13 225.13 121.63 257 121 245.75"/><path class="cls-8" d="M398.5,444s9.38,4.74,13.13,10.08S416,466.54,416,466.54l.44,24.93.19,10.66-16.25-11.86Z" transform="translate(-232.5 -277)"/><polygon class="cls-30" points="167.25 196.38 112.59 223.11 119.75 233.88 177.88 206.38 167.25 196.38"/><polygon class="cls-26" points="121.63 223.25 123.5 223.25 123.5 224.5 124.75 224.5 126.63 224.5 127.88 225.75 129.75 225.13 132.25 225.13 132.25 223.88 134.13 223.88 135.38 223.25 136.63 223.25 136.63 222 136.63 220.13 135.38 219.5 135.38 217.63 134.13 217.63 132.25 217 131 217.63 129.13 217 128.5 217.63 126.63 217 125.38 218.25 123.5 218.25 123.5 219.5 121.63 219.5 121.63 220.75 121.63 223.25"/><polygon class="cls-27" points="124.75 219.45 125.28 221.57 126.86 222.63 133.74 219.45 133.74 217.52 124.75 219.45"/><polygon class="cls-28" points="125.28 216.81 133.74 216.81 133.74 218.39 133.21 218.39 132.68 218.92 130.57 218.92 130.57 219.98 128.98 219.98 128.45 220.51 126.86 220.51 126.86 221.04 125.81 220.51 124.75 219.45 125.28 216.81"/><circle class="cls-29" cx="131.63" cy="216.81" r="1.06"/><polygon class="cls-26" points="154.13 208.25 156 208.25 156 209.5 157.25 209.5 159.13 209.5 160.38 210.75 162.25 210.13 164.75 210.13 164.75 208.88 166.63 208.88 167.88 208.25 169.13 208.25 169.13 207 169.13 205.13 167.88 204.5 167.88 202.63 166.63 202.63 164.75 202 163.5 202.63 161.63 202 161 202.63 159.13 202 157.88 203.25 156 203.25 156 204.5 154.13 204.5 154.13 205.75 154.13 208.25"/><polygon class="cls-27" points="157.25 204.45 157.78 206.57 159.37 207.63 166.24 204.45 166.24 202.52 157.25 204.45"/><polygon class="cls-28" points="157.78 201.81 166.24 201.81 166.24 203.39 165.71 203.39 165.18 203.92 163.07 203.92 163.07 204.98 161.48 204.98 160.95 205.51 159.37 205.51 159.37 206.04 158.31 205.51 157.25 204.45 157.78 201.81"/><circle class="cls-29" cx="164.13" cy="201.81" r="1.06"/><polygon class="cls-26" points="139.13 215.13 141 215.13 141 216.38 142.25 216.38 144.13 216.38 145.38 217.63 147.25 217 149.75 217 149.75 215.75 151.63 215.75 152.88 215.13 154.13 215.13 154.13 213.88 154.13 212 152.88 211.38 152.88 209.5 151.63 209.5 149.75 208.88 148.5 209.5 146.63 208.88 146 209.5 144.13 208.88 142.88 210.13 141 210.13 141 211.38 139.13 211.38 139.13 212.63 139.13 215.13"/><polygon class="cls-27" points="142.25 211.33 142.78 213.44 144.37 214.5 151.24 211.33 151.24 209.4 142.25 211.33"/><polygon class="cls-28" points="142.78 208.68 151.24 208.68 151.24 210.27 150.71 210.27 150.18 210.8 148.07 210.8 148.07 211.86 146.48 211.86 145.95 212.38 144.37 212.38 144.37 212.91 143.31 212.38 142.25 211.33 142.78 208.68"/><circle class="cls-29" cx="149.13" cy="208.68" r="1.06"/><polygon class="cls-25" points="166.63 183.88 111.96 210.61 119.13 221.38 177.25 193.88 166.63 183.88"/><polygon class="cls-26" points="121 210.75 122.88 210.75 122.88 212 124.13 212 126 212 127.25 213.25 129.13 212.63 131.63 212.63 131.63 211.38 133.5 211.38 134.75 210.75 136 210.75 136 209.5 136 207.63 134.75 207 134.75 205.13 133.5 205.13 131.63 204.5 130.38 205.13 128.5 204.5 127.88 205.13 126 204.5 124.75 205.75 122.88 205.75 122.88 207 121 207 121 208.25 121 210.75"/><polygon class="cls-27" points="124.13 206.95 124.65 209.07 126.24 210.13 133.12 206.95 133.12 205.02 124.13 206.95"/><polygon class="cls-28" points="124.65 204.31 133.12 204.31 133.12 205.89 132.59 205.89 132.06 206.42 129.94 206.42 129.94 207.48 128.36 207.48 127.83 208.01 126.24 208.01 126.24 208.54 125.18 208.01 124.13 206.95 124.65 204.31"/><circle class="cls-29" cx="131" cy="204.31" r="1.06"/><polygon class="cls-26" points="153.5 195.75 155.38 195.75 155.38 197 156.63 197 158.5 197 159.75 198.25 161.63 197.63 164.13 197.63 164.13 196.38 166 196.38 167.25 195.75 168.5 195.75 168.5 194.5 168.5 192.63 167.25 192 167.25 190.13 166 190.13 164.13 189.5 162.88 190.13 161 189.5 160.38 190.13 158.5 189.5 157.25 190.75 155.38 190.75 155.38 192 153.5 192 153.5 193.25 153.5 195.75"/><polygon class="cls-27" points="156.63 191.95 157.15 194.07 158.74 195.13 165.62 191.95 165.62 190.02 156.63 191.95"/><polygon class="cls-28" points="157.15 189.31 165.62 189.31 165.62 190.89 165.09 190.89 164.56 191.42 162.44 191.42 162.44 192.48 160.86 192.48 160.33 193.01 158.74 193.01 158.74 193.54 157.68 193.01 156.63 191.95 157.15 189.31"/><circle class="cls-29" cx="163.5" cy="189.31" r="1.06"/><polygon class="cls-26" points="138.5 202.63 140.38 202.63 140.38 203.88 141.63 203.88 143.5 203.88 144.75 205.13 146.63 204.5 149.13 204.5 149.13 203.25 151 203.25 152.25 202.63 153.5 202.63 153.5 201.38 153.5 199.5 152.25 198.88 152.25 197 151 197 149.13 196.38 147.88 197 146 196.38 145.38 197 143.5 196.38 142.25 197.63 140.38 197.63 140.38 198.88 138.5 198.88 138.5 200.13 138.5 202.63"/><polygon class="cls-27" points="141.63 198.83 142.15 200.94 143.74 202 150.62 198.83 150.62 196.9 141.63 198.83"/><polygon class="cls-28" points="142.15 196.18 150.62 196.18 150.62 197.77 150.09 197.77 149.56 198.3 147.44 198.3 147.44 199.36 145.86 199.36 145.33 199.88 143.74 199.88 143.74 200.41 142.68 199.88 141.63 198.83 142.15 196.18"/><circle class="cls-29" cx="148.5" cy="196.18" r="1.06"/><path class="cls-8" d="M336,472.75s9.38,5,13.13,10.63,4.38,13.13,4.38,13.13l.44,26.27.19,11.23-16.25-12.5Z" transform="translate(-232.5 -277)"/><polygon class="cls-31" points="184.5 137 302.5 205 302.5 266 184.5 197 184.5 137"/><polygon class="cls-32" points="292.45 307.1 289.41 307.75 290.16 301.77 291.65 298.79 296.14 296.55 302.11 300.28 303.61 302.52 300.62 303.27 294.64 305.51 293.15 304.76 292.45 307.1"/><polygon class="cls-33" points="291.65 305.51 294.64 311.49 296.88 312.23 299.87 309.24 300.62 303.27 296.14 303.27 294.64 305.51 293.15 304.76 291.65 305.51"/><polygon class="cls-34" points="289.92 307.75 288.67 309.24 290.16 312.23 293.89 313.73 294.64 311.49 292.4 307 289.92 307.75"/><polygon class="cls-35" points="276.72 339.12 286.43 344.35 287.55 342.93 278.21 337.63 279.7 336.13 298.4 325.89 285.51 310.37 278.96 311.49 271.49 316.71 268.5 330.9 268.5 346.59 271.49 347.34 273.73 345.84 276.72 344.35 276.72 339.12"/><polygon class="cls-36" points="291.65 313.73 293.15 312.98 293.89 313.73 293.89 315.97 293.15 316.71 292.29 315.85 291.65 315.22 291.65 313.73"/><polygon class="cls-37" points="276.72 339.12 286.43 344.35 304.35 330.9 291.65 323.44 276.72 334.64 276.72 339.12"/><polygon class="cls-38" points="289.41 307.75 281.94 312.98 278.21 329.41 282.69 331.65 290.16 328.66 283.44 321.94 282.69 314.47 286.43 313.73 290.16 319.7 291.65 323.44 292.4 314.47 292.81 313.29 289.41 307.75"/><polygon class="cls-36" points="291.65 322.33 292.4 323.44 293.89 321.94 293.15 316.71 292.4 315.97 291.65 322.33"/><polygon class="cls-39" points="282.69 314.47 286.43 313.73 290.16 319.7 291.65 323.44 292.4 323.44 297.63 316.71 300.62 319.7 293.89 330.16 291.65 330.16 283.44 321.94 282.69 314.47"/><polygon class="cls-40" points="290.16 328.66 281.2 330.9 278.21 329.41 279.7 336.88 291.65 330.16 290.16 328.66 290.16 328.66 290.16 328.66"/><polygon class="cls-41" points="304.35 315.97 307.34 314.47 308.09 315.97 304.35 317.21 304.35 315.97"/><polygon class="cls-42" points="307.34 314.47 308.83 314.47 308.09 315.97 307.34 314.47"/><polygon class="cls-33" points="297.63 316.71 300.62 315.97 302.86 313.73 305.1 314.47 304.35 318.95 302.11 318.95 300.62 319.7 297.63 316.71"/><polygon class="cls-43" points="278.21 337.63 305.85 353.31 358.88 319.7 333.48 305.51 278.21 337.63"/><path class="cls-44" d="M551,566.82l2.24-.75s3.73,6,3.73,5.23,1.49-.75,1.49-.75l-.75,3.73-1.49,1.49,1.49.75L560,575V572.8l.75-6.72-3.73-3-4.48.75-2.24,2.24-3,4.48,2.24,3,.75-.75Z" transform="translate(-232.5 -277)"/><polygon class="cls-45" points="317.8 295.8 320.04 298.79 323.77 298.79 324.52 294.31 320.78 289.08 318.54 289.82 317.8 295.8"/><path class="cls-37" d="M548.08,574.46l-7.49,4.31-.75,10.46,4.48,6s3.83-2.24,4.15-2.24h-4.15Z" transform="translate(-232.5 -277)"/><path class="cls-46" d="M550.3,572.8l-6,4.48s-.75,15.69,0,15.69h6l5.23-3.73-.75-4.48,1.49-1.49,5.23,4.48L563,585.5l-3.73-9-3-2.61-4.48,3.36Z" transform="translate(-232.5 -277)"/><polygon class="cls-47" points="321.53 300.28 321.53 297.29 324.52 294.31 326.01 293.56 325.26 297.29 323.77 298.79 321.53 300.28"/><polygon class="cls-48" points="321.53 300.28 326.76 309.24 329 310.74 330.49 308.5 323.77 298.79 321.53 300.28"/><polygon class="cls-48" points="311.82 300.28 315.56 301.77 319.29 309.99 328.25 312.23 328.25 315.22 316.3 313.73 311.82 300.28"/><polygon class="cls-47" points="317.8 295.8 319.29 300.28 321.28 298.79 320.04 298.79 317.8 295.8"/><polygon class="cls-47" points="328.25 312.23 331.99 309.99 331.99 311.49 334.98 311.49 334.98 313.73 330.49 314.47 328.25 314.04 328.25 312.23"/><path class="cls-43" d="M510.71,614.63" transform="translate(-232.5 -277)"/><path class="cls-40" d="M534.66,628.22c0,.6.7,23,.7,23l2.24.75-.35-22.28Z" transform="translate(-232.5 -277)"/><polygon class="cls-49" points="271.49 347.34 271.49 351.82 287.17 362.27 289.41 361.53 286.43 344.35 286.43 344.35 287.92 360.78 286.43 360.78 272.24 351.07 272.24 347.34 271.49 347.34"/><polygon class="cls-40" points="282.69 340.17 282.69 362.27 284.93 363.02 285.51 341.77 282.69 340.17"/><polygon class="cls-50" points="302.86 341.36 293.15 335.39 306.59 327.92 317.05 333.89 302.86 341.36"/><polygon class="cls-51" points="297.63 336.13 309.58 330.9 312.57 333.15 302.11 339.12 297.63 336.13"/><polygon class="cls-52" points="303.61 330.9 316.3 323.44 317.05 333.15 303.61 340.62 303.61 330.9"/><polygon class="cls-42" points="303.61 340.62 302.86 341.36 303.61 341.36 317.05 333.89 317.05 333.15 303.61 340.62"/><path class="cls-40" d="M589.14,598.2c0,.6.75,20.17.75,20.17l2.24.75-.75-22.41Z" transform="translate(-232.5 -277)"/><polygon class="cls-43" points="326.09 370.06 356.1 387.1 413.69 350.6 386.11 335.19 326.09 370.06"/><path class="cls-43" d="M558.59,647.07" transform="translate(-232.5 -277)"/><path class="cls-40" d="M584.6,661.83c-.05.65.76,25,.76,25l2.43.81-.38-24.2Z" transform="translate(-232.5 -277)"/><polygon class="cls-40" points="330.95 372.83 330.95 396.83 333.39 397.64 334.02 374.57 330.95 372.83"/><path class="cls-40" d="M643.76,629.22c-.05.65.81,21.9.81,21.9l2.43.81-.81-24.33Z" transform="translate(-232.5 -277)"/><polygon class="cls-53" points="396.03 347.07 396.74 353.47 399.58 353.47 399.58 354.89 403.85 352.76 402.43 347.79 396.03 347.07"/><path class="cls-40" d="M627.11,621.23a9.9,9.9,0,0,0,1.26,2.49c.76,1.25,1.58,2.48,1.58,2.48v-2.13l2.13,3.55,2.84,1.42,2.84-7.1-2.84-4.26-5.68.71Z" transform="translate(-232.5 -277)"/><polygon class="cls-54" points="399.58 354.89 398.16 357.73 400.29 357.73 400.29 360.57 398.16 363.41 394.61 364.12 395.32 378.33 397.45 381.88 411.66 376.2 408.82 354.89 405.98 353.47 405.27 352.76 399.58 354.89"/><polygon class="cls-55" points="379.69 349.21 389.64 344.23 391.41 351.34 390.35 353.47 381.82 358.44 379.69 349.21"/><path class="cls-56" d="M615,633.31c.71,0,4.26,5.68,4.26,5.68l11.37-4.26h2.13v2.84l-2.13,2.84-12.08,4.26-2.84-2.13-3.55-7.1Z" transform="translate(-232.5 -277)"/><polygon class="cls-56" points="390.35 353.47 393.27 359.56 398.16 357.73 399.58 354.89 396.03 355.6 391.77 350.63 390.35 353.47"/><polygon class="cls-53" points="379.69 350.63 378.98 354.18 379.69 358.44 382.54 356.31 381.82 354.89 381.82 351.34 381.12 352.05 380.4 354.89 379.69 350.63"/><polygon class="cls-53" points="389.64 347.07 391.06 349.92 391.77 346.37 390.35 345.65 388.93 346.37 389.64 347.07"/><polygon class="cls-57" points="380.4 349.92 388.93 345.65 390.35 352.05 383.25 356.31 380.4 349.92"/><circle class="cls-58" cx="383.6" cy="350.98" r="1.07"/><circle class="cls-58" cx="386.44" cy="349.56" r="1.07"/><polygon class="cls-59" points="386.71 372.04 387.51 369.1 389.64 367.68 394.88 369.57 395.32 374.07 386.71 372.04"/><polygon class="cls-60" points="383.25 388.27 388.93 390.4 391.06 387.56 387.51 387.56 385.38 385.43 381.82 385.43 383.25 388.27"/><polygon class="cls-61" points="386.09 381.88 385.38 385.43 387.51 387.56 391.06 387.56 391.77 384.72 386.09 381.88"/><polygon class="cls-62" points="397.45 381.88 384.67 379.04 380.4 390.4 376.85 390.4 374.72 388.27 380.4 373.36 382.54 371.23 395.32 373.36 395.32 378.33 397.45 381.88"/><polygon class="cls-63" points="386.09 381.88 384.67 393.96 400.29 403.19 401 402.48 399.58 388.27 398.87 388.27 400.29 401.77 385.38 393.25 386.8 382.59 386.09 381.88"/><polygon class="cls-63" points="399.58 388.27 411.66 395.38 413.08 395.38 410.95 381.17 409.53 381.88 411.66 393.96 400.29 387.56 399.58 388.27"/><polygon class="cls-37" points="384.67 379.04 398.16 386.85 397.45 381.88 384.67 379.04"/><polyline class="cls-59" points="398.87 388.98 412.37 380.46 410.95 361.99 396.03 366.25 397.45 381.88"/><polygon class="cls-64" points="384.67 379.04 384 380.81 398.87 388.98 399.58 387.56 398.71 381.38 396.03 366.25 398.16 386.85 384.67 379.04"/><polygon class="cls-60" points="374.72 387.56 369.75 387.56 369.04 389.69 373.3 392.54 376.14 392.54 378.98 393.25 380.4 391.82 380.4 390.4 377.56 390.4 375.43 388.98 374.72 387.56"/><path class="cls-55" d="M578.58,643.51c1.09-1.09,8.69-4.34,8.69-4.34l10.86,6.52-8.69,5.43Z" transform="translate(-232.5 -277)"/><polygon class="cls-65" points="346.08 366.51 346.08 370.85 358.03 377.37 365.63 371.94 365.63 368.68 356.94 374.11 346.08 366.51"/><polygon class="cls-66" points="371.06 361.08 374.32 358.9 381.92 363.25 377.58 365.42 371.06 362.16 371.06 361.08"/><polygon class="cls-67" points="372.15 361.08 374.32 359.99 379.75 363.25 376.49 364.33 372.15 361.08"/><polygon class="cls-68" points="348.25 366.51 354.77 363.25 355.86 364.33 349.34 367.59 348.25 366.51"/><polygon class="cls-68" points="350.43 367.59 356.94 364.33 358.03 365.42 351.51 368.68 350.43 367.59"/><polygon class="cls-68" points="352.6 368.68 359.12 365.42 360.2 366.51 353.69 369.76 352.6 368.68"/><polygon class="cls-3" points="538.5 69 814.5 228 813.5 289 538.5 130 538.5 69"/><polygon class="cls-69" points="420.5 0 538.5 69 538.5 130 420.5 61 420.5 0"/><polyline class="cls-70" points="577.4 363.2 577.5 367 578.5 367 578.5 362.57 577.4 363.2"/><polygon class="cls-71" points="524.5 366 524.5 377 539.5 385 579.5 362 579.5 348 539.5 372 530.62 368.45 524.5 366"/><polygon class="cls-72" points="559.5 350 567.81 355.01 539.5 372 530.5 368 559.5 350"/><polygon class="cls-71" points="560.5 343 559.5 350 567.5 355 578.88 350 560.5 343"/><polygon class="cls-73" points="539.5 385 539.5 389 540.5 389 540.5 384.43 539.5 385"/><polygon class="cls-73" points="524.5 377 524.5 380 525.5 380 525.5 377.53 524.5 377"/><polyline class="cls-70" points="531.4 392.2 531.5 396 532.5 396 532.5 391.57 531.4 392.2"/><polygon class="cls-74" points="478.5 395 478.5 406 493.5 414 533.5 391 533.5 377 493.5 401 484.62 397.45 478.5 395"/><polygon class="cls-72" points="513.5 379 521.81 384.01 493.5 401 484.5 397 513.5 379"/><polygon class="cls-74" points="514.5 372 513.5 379 521.5 384 532.88 379 514.5 372"/><polygon class="cls-73" points="493.5 414 493.5 418 494.5 418 494.5 413.43 493.5 414"/><polygon class="cls-73" points="478.5 406 478.5 409 479.5 409 479.5 406.53 478.5 406"/><polygon class="cls-69" points="184.5 137 420.5 0 420.5 61 237.57 167.58 184.5 137"/><path class="cls-75" d="M679.78,359.19v26l1.68.84V360Z" transform="translate(-232.5 -277)"/><polygon class="cls-76" points="450.63 83.86 450.63 108.16 448.96 109 448.96 83.03 450.63 83.86"/><polygon class="cls-77" points="429.69 25.22 456.5 41.13 454.82 86.38 427.18 71.3 429.69 25.22"/><polygon class="cls-78" points="432.2 28.57 455.66 41.97 454.82 46.16 430.53 31.92 431.37 29.41 432.2 28.57"/><path class="cls-55" d="M663,308.92s-1.68,14.24-1.68,17.59.84,9.22.84,10.89-4.19,6.7-4.19,6.7l25.14,14.24s3.35-10.89,2.51-12.57-.84-12.57-.84-12.57l2.51-10.05Z" transform="translate(-232.5 -277)"/><path class="cls-75" d="M662.19,350v26l1.68.84v-26Z" transform="translate(-232.5 -277)"/><polygon class="cls-76" points="433.04 74.65 433.04 98.95 431.37 99.78 431.37 73.81 433.04 74.65"/><ellipse class="cls-79" cx="433.78" cy="44.91" rx="3.26" ry="3.77"/><polygon class="cls-80" points="438.07 67.95 438.07 64.59 440.58 66.27 440.58 69.62 438.07 67.95"/><polygon class="cls-81" points="441.42 70.46 441.42 63.76 443.93 65.43 443.93 72.14 441.42 70.46"/><polygon class="cls-82" points="444.77 72.97 444.77 70.46 447.28 72.14 447.28 74.65 444.77 72.97"/><polygon class="cls-83" points="436.39 67.11 447.28 74.65 447.28 75.49 435.55 67.95 436.39 67.11"/><polygon class="cls-83" points="443.1 56.22 450.63 60.41 450.63 61.24 443.1 57.05 443.1 56.22"/><polygon class="cls-83" points="444.77 55.38 450.63 58.73 450.63 59.57 444.77 56.22 444.77 55.38"/><polygon class="cls-83" points="444.77 53.7 450.63 57.05 450.63 57.89 444.77 54.54 444.77 53.7"/><polygon class="cls-83" points="444.77 52.03 450.63 55.38 450.63 56.22 444.77 52.87 444.77 52.03"/><ellipse class="cls-84" cx="440.49" cy="49.09" rx="3.26" ry="3.77"/><path class="cls-75" d="M714.78,380.19v26l1.68.84V381Z" transform="translate(-232.5 -277)"/><polygon class="cls-76" points="485.63 104.86 485.63 129.16 483.96 130 483.96 104.03 485.63 104.86"/><polygon class="cls-77" points="464.69 46.22 491.5 62.13 489.82 107.38 462.18 92.3 464.69 46.22"/><polygon class="cls-78" points="467.2 49.57 490.66 62.97 489.82 67.16 465.53 52.92 466.37 50.41 467.2 49.57"/><path class="cls-55" d="M698,329.92s-1.68,14.24-1.68,17.59.84,9.22.84,10.89-4.19,6.7-4.19,6.7l25.14,14.24s3.35-10.89,2.51-12.57-.84-12.57-.84-12.57l2.51-10.05Z" transform="translate(-232.5 -277)"/><path class="cls-75" d="M697.19,371v26l1.68.84v-26Z" transform="translate(-232.5 -277)"/><polygon class="cls-76" points="468.04 95.65 468.04 119.95 466.37 120.78 466.37 94.81 468.04 95.65"/><line class="cls-81" x1="476.42" y1="91.46" x2="476.42" y2="84.76"/><line class="cls-83" x1="470.55" y1="88.95" x2="471.39" y2="88.11"/><line class="cls-83" x1="482.28" y1="95.65" x2="482.28" y2="96.49"/><polygon class="cls-83" points="478.1 77.22 485.63 81.41 485.63 82.24 478.1 78.05 478.1 77.22"/><polygon class="cls-83" points="479.77 76.38 485.63 79.73 485.63 80.57 479.77 77.22 479.77 76.38"/><polygon class="cls-83" points="479.77 74.7 485.63 78.05 485.63 78.89 479.77 75.54 479.77 74.7"/><polygon class="cls-83" points="479.77 73.03 485.63 76.38 485.63 77.22 479.77 73.86 479.77 73.03"/><polyline class="cls-6" points="326.53 124.05 323 155.2 304.11 162.05 293.1 154.16 293.1 152.08 303.69 158.94 305.15 149.59"/><polygon class="cls-85" points="291.86 146.27 300.37 151.46 302.55 158.2 303.69 158.94 304.32 156.03 301.82 150.01 293.1 144.82 291.86 146.27"/><polygon class="cls-86" points="305.87 161.41 305.77 168.49 307.43 169.73 308.68 168.49 308.68 160.39 305.87 161.41"/><polygon class="cls-87" points="307.22 169.73 298.09 173.88 296.43 173.26 305.77 168.49 307.22 169.73"/><polygon class="cls-88" points="296.43 173.26 296.43 175.13 298.09 175.75 298.09 173.88 296.43 173.26"/><polygon class="cls-89" points="298.09 173.88 307.22 169.73 307.43 171.19 298.09 175.75 298.09 173.88"/><polygon class="cls-86" points="307.43 171.19 316.57 175.34 316.57 173.88 307.22 169.73 307.43 171.19"/><polygon class="cls-88" points="316.57 173.88 318.23 173.26 318.23 174.92 316.57 175.34 316.57 173.88"/><polygon class="cls-90" points="307.22 101.63 307.43 126.34 336.5 143.16 336.5 116.78 307.22 101.63"/><polygon class="cls-87" points="307.22 169.73 308.68 168.49 318.23 173.26 316.57 173.88 307.22 169.73"/><path class="cls-91" d="M569,393.79c-.83-.42-29.28-15.16-29.28-15.16L482,408.11l33.43,16.2Z" transform="translate(-232.5 -277)"/><polygon class="cls-87" points="308.68 168.49 317.61 163.92 316.57 163.3 308.68 166.96 308.68 168.49"/><polygon class="cls-92" points="308.68 168.49 317.61 163.92 317.61 165.79 310.19 169.24 308.68 168.49"/><polygon class="cls-87" points="305.79 167.02 298.92 163.71 298.92 165.16 305.77 168.49 305.79 167.02"/><polygon class="cls-93" points="304.32 169.23 298.92 166.62 298.92 165.16 305.77 168.49 304.32 169.23"/><polygon class="cls-94" points="292.27 141.08 296.31 141.78 305.35 148.45 304.64 152.82 295.6 153.7 290.4 148.97 292.27 141.08"/><polygon class="cls-95" points="307.22 160.92 307.22 169.73 308.68 168.49 308.68 160.39 307.22 160.92"/><polyline class="cls-96" points="296.43 119.48 293.93 119.48 293.1 120.94 291.86 117.82 292.48 114.29 294.76 113.46 295.6 112.22 298.92 111.8 304.32 115.54 304.32 125.92 298.92 127.17 297.26 124.47"/><path class="cls-97" d="M531.42,404.17l6.64,15.78-2.49.62L529.13,417l-1,5.61s4.78,4.2,5.4,3.87a36.76,36.76,0,0,1,4.35-1.06L541,407.7l-1-4.78-2.28-.62Z" transform="translate(-232.5 -277)"/><polygon class="cls-98" points="298.92 127.17 294.56 129.04 301.62 140.25 294.14 135.68 289.37 135.47 290.61 138.59 294.76 138.38 303.07 143.57 305.56 142.95 298.92 127.17"/><polygon class="cls-97" points="295.84 131.08 295.6 136.57 301.62 140.25 295.84 131.08"/><polygon class="cls-98" points="293.1 151.88 295.6 158.94 298.92 162.47 295.6 166 293.73 166 293.73 165.16 295.18 162.88 289.37 155.41 287.91 147.31 289.37 141.08 292.27 141.08 290.4 148.97 293.1 151.88"/><polygon class="cls-99" points="293.73 165.16 291.86 167.86 295.6 167.86 298.92 165.16 298.92 162.47 295.6 166 293.73 165.16"/><path class="cls-96" d="M525.6,397.94" transform="translate(-232.5 -277)"/><path class="cls-96" d="M531.42,404.17" transform="translate(-232.5 -277)"/><polygon class="cls-98" points="293.64 120 294.35 124.05 296.84 126.34 298.5 125.92 298.3 119.9 294.35 118.65 293.64 120"/><polygon class="cls-98" points="297.46 153.7 292.48 163.92 290.4 162.47 293.93 152.62 297.46 153.7"/><polygon class="cls-99" points="290.4 162.47 288.95 165.16 292.9 164.96 295.39 161.22 294.2 160.39 292.27 163.92 290.4 162.47"/><polygon class="cls-90" points="249.5 131.11 249.5 160.39 283.14 177 283.14 147.31 249.5 131.11"/><polygon class="cls-100" points="308.47 130.7 326.53 124.05 320.93 149.59 308.47 154.16 305.15 149.59 308.47 130.7"/><polygon class="cls-101" points="733.5 236 736.5 231 742.5 233 747.5 237 745.5 244 733.5 236"/><polygon class="cls-102" points="733.5 236 738.5 236 742.5 239 743.5 238 745.5 239 743.5 241 744.5 243 738.5 248 736.5 244 733.5 236"/><polygon class="cls-103" points="739.5 247 738.5 249 739.5 255 740.5 257 741.5 260 742.34 258.6 744.5 255 745.28 244.43 741.45 251.49 739.5 247"/><polygon class="cls-104" points="739.18 247.44 741.5 251 745.5 244 744.5 243 739.18 247.44"/><polygon class="cls-105" points="741.5 310 717 295.21 718.5 284 741.5 294.67 741.5 310"/><polygon class="cls-106" points="755.5 255 765.5 260 761.5 275 742.5 285 755.5 255"/><polygon class="cls-107" points="745.5 244 755.5 252 752.5 251 750.5 253 750.5 272 740.5 280 735.5 280 732.5 275 736.5 270 735.5 267 733.5 258 736.5 245 738.5 249 739.5 255 741.5 260 744.5 255 745.5 244"/><polygon class="cls-108" points="732.5 275 720.5 281 714.5 304 717.5 307 722.5 306 727.5 288 741.5 281 732.5 275"/><polygon class="cls-109" points="741.5 251 740.5 252 740.5 253 740.13 256.57 741.5 260 741.5 257 741.5 253 741.5 251"/><polygon class="cls-108" points="741.5 292 735.5 295 732.5 314 727.5 315 724.5 313 729.5 290 732.5 286 736.5 287 751.78 278.82 756.5 282 741.5 292"/><polygon class="cls-110" points="752.5 251 755.5 252 757.5 275 742.5 285 740.5 280 750.5 272 750.5 253 752.5 251"/><polygon class="cls-111" points="755.74 254.79 769.5 262 774.5 259 747.88 245.9 755.74 254.79"/><polygon class="cls-112" points="719.5 275 732.5 268 735.5 267 736.5 270 732.5 275 720.5 283 718.5 284 719.5 275"/><polygon class="cls-104" points="740.5 280 735.5 281 735.5 282 737.5 282 732.5 286 735.5 287 742.5 285 740.5 280"/><polygon class="cls-110" points="736.5 245 734.5 248 731.5 262 720.5 258 720.5 264 734.5 269 735.36 266.37 733.5 258 736.5 245"/><path class="cls-104" d="M953,540.05c-1-.05-8,1.95-8,.95s-2-3-2-3l7-2-3-1h6Z" transform="translate(-232.5 -277)"/><polygon class="cls-113" points="741.5 286 741.5 310 745.5 311 745.5 289 741.5 286"/><path class="cls-103" d="M978,566l20-12-4-2s-19,10-20,11" transform="translate(-232.5 -277)"/><polygon class="cls-113" points="765.5 260 761.5 275 765.5 277 769.5 262 765.5 260"/><path class="cls-114" d="M978,588c1,0,29-14,29-14V536l-5,3-4,15-20,12Z" transform="translate(-232.5 -277)"/><path class="cls-103" d="M959.18,543.21C958,544,947,550,947,550l5,2,13-6.5Z" transform="translate(-232.5 -277)"/><polygon class="cls-111" points="714.5 273 715.5 291 717.23 293.53 718.46 283.5 719.5 275 714.5 273"/><path class="cls-111" d="M965,552" transform="translate(-232.5 -277)"/><polygon class="cls-115" points="724.5 313 719.5 318 720.5 320 733.5 316 732.5 314 727.5 315 724.5 313"/><path class="cls-115" d="M954.18,583.16C953,583,946,587,946,587h-4v-3l5-3,1.93,2.48Z" transform="translate(-232.5 -277)"/><polygon class="cls-106" points="742.5 310.57 742.5 315 744.5 316 745.5 315 745.5 311 742.5 310.57"/><polygon class="cls-106" points="770.81 298.84 770.5 301 772.5 302 774.5 301 774.5 297 770.81 298.84"/><polyline class="cls-6" points="405.53 79.05 402 110.2 383.11 117.05 372.1 109.16 372.1 107.08 382.69 113.94 384.15 104.59"/><polygon class="cls-85" points="370.86 101.27 379.37 106.46 381.55 113.2 382.69 113.94 383.32 111.03 380.82 105.01 372.1 99.82 370.86 101.27"/><polygon class="cls-86" points="384.87 116.41 384.77 123.49 386.43 124.73 387.68 123.49 387.68 115.39 384.87 116.41"/><polygon class="cls-87" points="386.22 124.73 377.09 128.88 375.43 128.26 384.77 123.49 386.22 124.73"/><polygon class="cls-88" points="375.43 128.26 375.43 130.13 377.09 130.75 377.09 128.88 375.43 128.26"/><polygon class="cls-89" points="377.09 128.88 386.22 124.73 386.43 126.19 377.09 130.75 377.09 128.88"/><polygon class="cls-86" points="386.43 126.19 395.57 130.34 395.57 128.88 386.22 124.73 386.43 126.19"/><polygon class="cls-88" points="395.57 128.88 397.23 128.26 397.23 129.92 395.57 130.34 395.57 128.88"/><polygon class="cls-90" points="386.22 56.63 386.43 81.34 415.5 98.16 415.5 71.78 386.22 56.63"/><polygon class="cls-87" points="386.22 124.73 387.68 123.49 397.23 128.26 395.57 128.88 386.22 124.73"/><path class="cls-91" d="M648,348.79c-.83-.42-29.28-15.16-29.28-15.16L561,363.11l33.43,16.2Z" transform="translate(-232.5 -277)"/><polygon class="cls-87" points="387.68 123.49 396.61 118.92 395.57 118.3 387.68 121.96 387.68 123.49"/><polygon class="cls-92" points="387.68 123.49 396.61 118.92 396.61 120.79 389.19 124.24 387.68 123.49"/><polygon class="cls-87" points="384.79 122.02 377.92 118.71 377.92 120.17 384.77 123.49 384.79 122.02"/><polygon class="cls-93" points="383.32 124.23 377.92 121.62 377.92 120.17 384.77 123.49 383.32 124.23"/><polygon class="cls-94" points="371.27 96.08 375.31 96.78 384.35 103.45 383.64 107.82 374.6 108.7 369.4 103.97 371.27 96.08"/><polygon class="cls-95" points="386.22 115.92 386.22 124.73 387.68 123.49 387.68 115.39 386.22 115.92"/><polyline class="cls-96" points="375.43 74.48 372.93 74.48 372.1 75.94 370.86 72.82 371.48 69.29 373.76 68.46 374.6 67.22 377.92 66.8 383.32 70.54 383.32 80.92 377.92 82.17 376.26 79.47"/><path class="cls-97" d="M610.42,359.17l6.64,15.78-2.49.62L608.13,372l-1,5.61s4.78,4.2,5.4,3.87a36.76,36.76,0,0,1,4.35-1.06L620,362.7l-1-4.78-2.28-.62Z" transform="translate(-232.5 -277)"/><polygon class="cls-98" points="377.92 82.17 373.56 84.04 380.62 95.25 373.14 90.68 368.37 90.47 369.61 93.59 373.76 93.38 382.07 98.57 384.56 97.95 377.92 82.17"/><polygon class="cls-97" points="374.84 86.08 374.6 91.57 380.62 95.25 374.84 86.08"/><polygon class="cls-98" points="372.1 106.88 374.6 113.94 377.92 117.47 374.6 121 372.73 121 372.73 120.17 374.18 117.88 368.37 110.41 366.91 102.31 368.37 96.08 371.27 96.08 369.4 103.97 372.1 106.88"/><polygon class="cls-99" points="372.73 120.17 370.86 122.86 374.6 122.86 377.92 120.17 377.92 117.47 374.6 121 372.73 120.17"/><path class="cls-96" d="M604.6,352.94" transform="translate(-232.5 -277)"/><path class="cls-96" d="M610.42,359.17" transform="translate(-232.5 -277)"/><polygon class="cls-98" points="372.64 75 373.35 79.05 375.84 81.34 377.5 80.92 377.3 74.9 373.35 73.65 372.64 75"/><polygon class="cls-98" points="376.46 108.7 371.48 118.92 369.4 117.47 372.93 107.62 376.46 108.7"/><polygon class="cls-99" points="369.4 117.47 367.95 120.17 371.9 119.96 374.39 116.22 373.2 115.39 371.27 118.92 369.4 117.47"/><polygon class="cls-90" points="328.5 86.11 328.5 115.39 362.14 132 362.14 102.31 328.5 86.11"/><polygon class="cls-100" points="387.47 85.7 405.53 79.05 399.93 104.59 387.47 109.16 384.15 104.59 387.47 85.7"/><polygon class="cls-43" points="424.09 315.06 454.1 332.1 511.69 295.6 484.11 280.19 424.09 315.06"/><path class="cls-43" d="M656.59,592.07" transform="translate(-232.5 -277)"/><path class="cls-40" d="M682.6,606.83c-.05.65.76,25,.76,25l2.43.81-.38-24.2Z" transform="translate(-232.5 -277)"/><polygon class="cls-40" points="428.95 317.83 428.95 341.83 431.39 342.64 432.02 319.57 428.95 317.83"/><path class="cls-40" d="M741.76,574.22c-.05.65.81,21.9.81,21.9l2.43.81-.81-24.33Z" transform="translate(-232.5 -277)"/><polygon class="cls-53" points="494.03 292.07 494.74 298.47 497.58 298.47 497.58 299.89 501.85 297.76 500.43 292.79 494.03 292.07"/><path class="cls-40" d="M725.11,566.23a9.9,9.9,0,0,0,1.26,2.49c.76,1.25,1.58,2.48,1.58,2.48v-2.13l2.13,3.55,2.84,1.42,2.84-7.1-2.84-4.26-5.68.71Z" transform="translate(-232.5 -277)"/><polygon class="cls-71" points="497.58 299.89 496.16 302.73 498.29 302.73 498.29 305.57 496.16 308.41 492.61 309.12 493.32 323.33 495.45 326.88 509.66 321.2 506.82 299.89 503.98 298.47 503.27 297.76 497.58 299.89"/><polygon class="cls-55" points="477.69 294.21 487.64 289.23 489.41 296.34 488.35 298.47 479.82 303.44 477.69 294.21"/><path class="cls-56" d="M713,578.31c.71,0,4.26,5.68,4.26,5.68l11.37-4.26h2.13v2.84l-2.13,2.84-12.08,4.26-2.84-2.13-3.55-7.1Z" transform="translate(-232.5 -277)"/><polygon class="cls-56" points="488.35 298.47 491.27 304.56 496.16 302.73 497.58 299.89 494.03 300.6 489.77 295.63 488.35 298.47"/><polygon class="cls-53" points="477.69 295.63 476.98 299.18 477.69 303.44 480.54 301.31 479.82 299.89 479.82 296.34 479.12 297.05 478.4 299.89 477.69 295.63"/><polygon class="cls-53" points="487.64 292.07 489.06 294.92 489.77 291.37 488.35 290.65 486.93 291.37 487.64 292.07"/><polygon class="cls-57" points="478.4 294.92 486.93 290.65 488.35 297.05 481.25 301.31 478.4 294.92"/><circle class="cls-58" cx="481.6" cy="295.98" r="1.07"/><circle class="cls-58" cx="484.44" cy="294.56" r="1.07"/><polygon class="cls-59" points="484.71 317.04 485.51 314.1 487.64 312.68 492.88 314.57 493.32 319.07 484.71 317.04"/><polygon class="cls-60" points="481.25 333.27 486.93 335.4 489.06 332.56 485.51 332.56 483.38 330.43 479.82 330.43 481.25 333.27"/><polygon class="cls-61" points="484.09 326.88 483.38 330.43 485.51 332.56 489.06 332.56 489.77 329.72 484.09 326.88"/><polygon class="cls-39" points="495.45 326.88 482.67 324.04 478.4 335.4 474.85 335.4 472.72 333.27 478.4 318.36 480.54 316.23 493.32 318.36 493.32 323.33 495.45 326.88"/><polygon class="cls-63" points="484.09 326.88 482.67 338.96 498.29 348.19 499 347.48 497.58 333.27 496.87 333.27 498.29 346.77 483.38 338.25 484.8 327.59 484.09 326.88"/><polygon class="cls-63" points="497.58 333.27 509.66 340.38 511.08 340.38 508.95 326.17 507.53 326.88 509.66 338.96 498.29 332.56 497.58 333.27"/><polygon class="cls-37" points="482.67 324.04 496.16 331.85 495.45 326.88 482.67 324.04"/><polyline class="cls-59" points="496.87 333.98 510.37 325.46 508.95 306.99 494.03 311.25 495.45 326.88"/><polygon class="cls-64" points="482.67 324.04 482 325.81 496.87 333.98 497.58 332.56 496.71 326.38 494.03 311.25 496.16 331.85 482.67 324.04"/><polygon class="cls-60" points="472.72 332.56 467.75 332.56 467.04 334.69 471.3 337.54 474.14 337.54 476.98 338.25 478.4 336.82 478.4 335.4 475.56 335.4 473.43 333.98 472.72 332.56"/><path class="cls-55" d="M676.58,588.51c1.09-1.09,8.69-4.34,8.69-4.34l10.86,6.52-8.69,5.43Z" transform="translate(-232.5 -277)"/><polygon class="cls-65" points="444.08 311.51 444.08 315.85 456.03 322.37 463.63 316.94 463.63 313.68 454.94 319.11 444.08 311.51"/><polygon class="cls-66" points="469.06 306.08 472.32 303.9 479.92 308.25 475.58 310.42 469.06 307.16 469.06 306.08"/><polygon class="cls-67" points="470.15 306.08 472.32 304.99 477.75 308.25 474.49 309.33 470.15 306.08"/><polygon class="cls-68" points="446.25 311.51 452.77 308.25 453.86 309.33 447.34 312.59 446.25 311.51"/><polygon class="cls-68" points="448.43 312.59 454.94 309.33 456.03 310.42 449.51 313.68 448.43 312.59"/><polygon class="cls-68" points="450.6 313.68 457.12 310.42 458.2 311.51 451.69 314.76 450.6 313.68"/><polygon class="cls-32" points="385.45 249.1 382.41 249.75 383.16 243.78 384.65 240.79 389.14 238.55 395.11 242.28 396.61 244.52 393.62 245.27 387.64 247.51 386.15 246.76 385.45 249.1"/><polygon class="cls-33" points="384.65 247.51 387.64 253.49 389.88 254.23 392.87 251.24 393.62 245.27 389.14 245.27 387.64 247.51 386.15 246.76 384.65 247.51"/><polygon class="cls-34" points="382.92 249.75 381.67 251.24 383.16 254.23 386.89 255.73 387.64 253.49 385.4 249 382.92 249.75"/><polygon class="cls-35" points="369.72 281.12 379.43 286.35 380.55 284.93 371.21 279.63 372.7 278.13 391.4 267.89 378.51 252.37 371.96 253.49 364.49 258.71 361.5 272.9 361.5 288.59 364.49 289.34 366.73 287.84 369.72 286.35 369.72 281.12"/><polygon class="cls-36" points="384.65 255.73 386.15 254.98 386.89 255.73 386.89 257.97 386.15 258.71 385.29 257.85 384.65 257.22 384.65 255.73"/><polygon class="cls-37" points="369.72 281.12 379.43 286.35 397.35 272.9 384.65 265.44 369.72 276.64 369.72 281.12"/><polygon class="cls-116" points="382.41 249.75 374.94 254.98 371.21 271.41 375.69 273.65 383.16 270.66 376.44 263.94 375.69 256.47 379.43 255.73 383.16 261.7 384.65 265.44 385.4 256.47 385.81 255.29 382.41 249.75"/><polygon class="cls-36" points="384.65 264.33 385.4 265.44 386.89 263.94 386.15 258.71 385.4 257.97 384.65 264.33"/><polygon class="cls-117" points="375.69 256.47 379.43 255.73 383.16 261.7 384.65 265.44 385.4 265.44 390.63 258.71 393.62 261.7 386.89 272.16 384.65 272.16 376.44 263.94 375.69 256.47"/><polygon class="cls-40" points="383.16 270.66 374.2 272.9 371.21 271.41 372.7 278.88 384.65 272.16 383.16 270.66 383.16 270.66 383.16 270.66"/><polygon class="cls-33" points="390.63 258.71 393.62 257.97 395.86 255.73 398.1 256.47 397.35 260.95 395.11 260.95 393.62 261.7 390.63 258.71"/><polygon class="cls-43" points="371.21 279.63 398.85 295.31 451.88 261.7 426.48 247.51 371.21 279.63"/><path class="cls-43" d="M603.71,556.63" transform="translate(-232.5 -277)"/><path class="cls-40" d="M627.66,570.22c0,.6.7,23,.7,23l2.24.75-.35-22.28Z" transform="translate(-232.5 -277)"/><polygon class="cls-49" points="364.49 289.34 364.49 293.82 380.17 304.27 382.41 303.53 379.43 286.35 379.43 286.35 380.92 302.78 379.43 302.78 365.24 293.07 365.24 289.34 364.49 289.34"/><polygon class="cls-40" points="375.69 282.17 375.69 304.27 377.93 305.02 378.51 283.77 375.69 282.17"/><polygon class="cls-50" points="395.86 283.36 386.15 277.39 399.59 269.92 410.05 275.89 395.86 283.36"/><polygon class="cls-51" points="390.63 278.13 402.58 272.9 405.57 275.15 395.11 281.12 390.63 278.13"/><polygon class="cls-52" points="396.61 272.9 409.3 265.44 410.05 275.15 396.61 282.62 396.61 272.9"/><polygon class="cls-42" points="396.61 282.62 395.86 283.36 396.61 283.36 410.05 275.89 410.05 275.15 396.61 282.62"/><path class="cls-40" d="M682.14,540.2c0,.6.75,20.17.75,20.17l2.24.75-.75-22.41Z" transform="translate(-232.5 -277)"/><polygon class="cls-118" points="510.94 163.39 512.58 161.42 510.94 156.82 510.29 147.3 506.02 146.32 503.06 159.12 510.94 163.39"/><path class="cls-119" d="M734.58,427.15c-.66.11-5.58,4-5.58,4l4.27,27.9,2.3,3.94,4.6-2Z" transform="translate(-232.5 -277)"/><polygon class="cls-120" points="507.33 147.3 505.36 150.91 507.33 160.43 505.36 158.46 503.06 159.12 502.08 147.3 504.71 143.04 508.97 143.04 512.58 147.3 511.93 154.53 513.24 156.82 509.3 155.84 510.61 152.56 510.29 147.3 507.33 147.3"/><path class="cls-121" d="M739.5,447.94c-1.64.66-3.94,15.1-3.94,15.1l5.58,4.92,5.25-3.16Z" transform="translate(-232.5 -277)"/><path class="cls-118" d="M747.05,436.12c.66,1,4.27,9.52,4.27,9.52l7.88,4.92-2.3,1.31-7.22-2.63-3.61-8.86Z" transform="translate(-232.5 -277)"/><polygon class="cls-122" points="503.06 159.12 499.78 163.39 500.77 168.64 505.69 168.64 505.69 172.58 507.66 172.58 508.97 180.13 508.97 186.36 510.61 189.32 527.68 179.47 516.19 174.22 515.54 166.34 514.22 161.42 514.88 159.12 513.24 156.82 510.94 156.82 511.6 161.75 508.64 163.39 503.06 159.12"/><polyline class="cls-118" points="500.77 168.64 503.72 180.45 518.16 181.77 518.16 181.77 507 178.16 505.69 168.64 502.08 168.64"/><path class="cls-123" d="M745.41,458.11c.33-.33,6.89,2,6.89,2l2-7.22,3.61-2-2-1Z" transform="translate(-232.5 -277)"/><polygon class="cls-124" points="521.77 175.86 519.8 183.08 531.62 176.84 533.59 168.31 521.77 175.86"/><polygon class="cls-125" points="505.03 191.28 548.36 168.31 571.33 179.8 528.01 205.07 505.03 191.28"/><polygon class="cls-126" points="505.03 191.28 505.03 221.81 507.33 222.79 506.51 192.17 505.03 191.28"/><polygon class="cls-126" points="528.01 205.07 528.01 231 525.38 230.01 526.08 203.92 528.01 205.07"/><polygon class="cls-126" points="571.33 179.8 571.33 216.56 569.04 214.92 569.49 180.87 571.33 179.8"/><polygon class="cls-127" points="504.83 191.19 505.03 195.6 527.68 208.45 527.98 205.07 504.83 191.19"/><polygon class="cls-127" points="527.98 208.78 571.33 181.77 571.5 180.07 527.98 205.07 527.98 208.78"/><polygon class="cls-128" points="605.3 234.8 614.2 237.77 630.5 229.62 629.76 227.39 615.05 217.7 597.15 231.1 605.3 234.8"/><polygon class="cls-129" points="547.5 203.68 584.55 222.21 621.61 203.68 584.55 185.15 547.5 203.68"/><polygon class="cls-130" points="547.5 203.68 547.5 209.61 584.55 227.39 584.55 222.21 547.5 203.68"/><polygon class="cls-131" points="584.55 222.21 621.61 203.68 621.61 210.35 584.55 227.39 584.55 222.21"/><polygon class="cls-131" points="547.5 209.61 547.5 237.03 550.46 237.77 548.98 210.32 547.5 209.61"/><polygon class="cls-131" points="583.2 226.74 583.07 254.81 585.29 254.81 586.04 226.65 583.2 226.74"/><polygon class="cls-128" points="597.15 231.1 597.15 251.85 599.38 252.59 599.38 232.97 597.15 231.1"/><polygon class="cls-132" points="602.04 203.68 612.71 200.71 614.2 202.2 613.46 219.98 614.2 228.88 609.75 233.32 602.34 234.06 595.67 230.36 594.19 227.39 595.67 219.98 600.86 214.79 599.38 210.35 602.04 203.68"/><polyline class="cls-71" points="597.15 193.3 606.79 208.13 611.97 204.42 611.97 193.3 604.56 185.15 598.63 186.63 594.93 188.86"/><polygon class="cls-133" points="599.38 203.68 603.08 203.68 611.97 220.72 609.01 222.21 599.38 216.28 594.93 216.28 592.71 213.31 594.19 211.83 602.34 214.05 607.53 217.76 599.38 205.16 599.38 203.68"/><path class="cls-134" d="M830,508.38c-.36.46-.36,11.58-.36,11.58l-5.93.74,1.48-2.22.59-4.53,1.63-7.33Z" transform="translate(-232.5 -277)"/><path class="cls-133" d="M827.43,499.21c-.74,0-8.89,4.45-8.89,4.45l1.48,3.71s10.38,11.86,11.12,12.6-.74,4.45-.74,4.45h2.22l3.71-3.71-3.71-5.19-4.45-6.67-3-3,1.48-1.48" transform="translate(-232.5 -277)"/><polygon class="cls-135" points="591.22 243.7 587.52 245.18 591.96 246.66 597.15 245.18 597.15 242.96 591.22 243.7"/><polygon class="cls-135" points="597.89 247.4 594.93 250.37 600.86 250.37 602.34 247.4 603.82 248.88 603.82 246.66 603.82 243.7 597.89 247.4"/><polygon class="cls-136" points="585.29 203.68 597.15 202.94 600.66 207.14 599.38 213.25 591.96 211.83 585.29 203.68"/><polygon class="cls-137" points="588.26 205.16 597.15 204.42 589 206.64 588.26 205.16"/><polygon class="cls-137" points="589.74 207.38 598.63 206.64 590.48 208.87 589.74 207.38"/><polygon class="cls-138" points="609.01 213.31 627.54 204.42 630.5 206.64 626.79 211.83 609.01 220.72 606.01 216.68 609.01 213.31"/><polyline class="cls-138" points="626.79 211.83 628.28 228.13 626.79 228.13 625.31 212.57"/><path class="cls-138" d="M844.47,496.24c0,3.71.74,16.3.74,16.3H843V497.72Z" transform="translate(-232.5 -277)"/><polygon class="cls-128" points="614.2 237.77 614.2 260 615.68 260 615.68 237.03 614.2 237.77"/><polygon class="cls-128" points="626.79 231.47 626.79 254.07 628.28 254.81 629.03 230.35 626.79 231.47"/><polygon class="cls-139" points="670.16 208.46 669.31 213.15 675.18 217.55 676 211.31 670.16 208.46"/><path class="cls-140" d="M900.71,476.2c0,.37.73,8.44.73,8.44l5.5,3.67h2.57l.73-10.64L907.31,474Z" transform="translate(-232.5 -277)"/><polygon class="cls-141" points="664.9 242.87 664.17 262.31 665.27 276.63 665.27 282.5 671.51 282.5 673.71 257.91 673.71 280.66 685.09 280.66 679.95 237.73 664.9 242.87"/><polygon class="cls-142" points="669.31 213.15 661.23 220.48 660.5 243.97 664.9 244.7 664.9 242.87 669.31 243.23 677.01 241.03 679.95 237.73 679.95 231.49 682.52 232.23 686.55 227.82 681.41 213.15 677.01 211.31 674.44 216.08 669.31 213.15"/><polygon class="cls-140" points="661.59 244.15 663.07 253.51 665.64 254.24 669.31 254.24 666.74 249.84 668.21 249.1 664.54 246.9 664.9 244.7 661.59 244.15"/><polygon class="cls-140" points="679.95 231.49 679.95 237.73 682.52 237.73 682.52 232.23 679.95 231.49"/><polygon class="cls-140" points="667.12 282.5 667.11 285.43 670.04 285.43 670.04 282.5 667.12 282.5"/><polygon class="cls-140" points="677.57 280.69 678.11 283.96 679.95 283.96 679.95 280.69 677.57 280.69"/><path class="cls-119" d="M899.6,561.31l-2.94,2.58,4.4,1.1s5.87-.37,5.87-.73-3.67-2.94-3.67-2.94Z" transform="translate(-232.5 -277)"/><polygon class="cls-119" points="678.11 283.96 677.75 285.43 679.95 286.53 684.72 285.43 682.15 282.5 678.11 283.96"/></svg>