<svg id="Layer_1" data-name="Layer 1" xmlns="http://www.w3.org/2000/svg" viewBox="0 0 44 41.9"><defs><style>.cls-1{fill:#f40b21;}.cls-2{fill:#fff;}.cls-3{fill:#00adf9;opacity:0.65;}.cls-4{font-size:5.63px;font-family:MyriadPro-Regular, Myriad Pro;}.cls-5{letter-spacing:-0.02em;}</style></defs><title>logo101</title><circle class="cls-1" cx="16.08" cy="16.08" r="16.08"/><polygon class="cls-1" points="10.36 31.11 21.79 31.11 15.59 41.9 10.36 31.11"/><circle class="cls-2" cx="16.08" cy="15.67" r="12.69"/><rect class="cls-3" x="20.31" y="28.36" width="23.69" height="7.9" rx="2" ry="2"/><text class="cls-4" transform="translate(23.51 33.96)">N<tspan class="cls-5" x="3.71" y="0">o</tspan><tspan x="6.67" y="0">. 101</tspan></text><path d="M56.86,47.2c.05.33.09.67.16,1s.12.38.17.57c.19.67,0,1-.73,1a2.47,2.47,0,0,1-2.55-1.5,7.44,7.44,0,0,1-.92-3.6A12.5,12.5,0,0,0,52.77,43a6.15,6.15,0,0,1,1.7-5.35,7.23,7.23,0,0,1,1.5-1,5.36,5.36,0,0,0-2,5.47,4.85,4.85,0,0,0,2.26,3.26A11.66,11.66,0,0,1,56,43.94c0-.88,0-1.77.07-2.65A5.57,5.57,0,0,1,58.45,37l.23-.17-.22-.44a1.43,1.43,0,0,1,.42-1.82,1.58,1.58,0,0,1,1.89-.35,1.92,1.92,0,0,1,.82,1.66.89.89,0,0,1-.37.46c-.4.28-.84.5-1.23.79a.66.66,0,0,1-.94,0,5.36,5.36,0,0,0-1.29,4,3.37,3.37,0,0,0,2.49,3.07,1,1,0,0,1,.47.43c.4.64.44.65,1.17.6a2.47,2.47,0,0,1,1,.17.78.78,0,0,0,1-.23.93.93,0,0,1,.55-.31,3.75,3.75,0,0,0,3.7-3.75,1,1,0,0,1,.13-.49c.08.34.18.67.22,1A12.76,12.76,0,0,1,68,46.82,18.59,18.59,0,0,1,67,49.69a2.59,2.59,0,0,1-2.23,1.45.92.92,0,0,1-1.13-1A11.29,11.29,0,0,1,63.74,49c0-.57.08-1.14.07-1.72a.67.67,0,0,0-.52-.73c-.35-.05-.48.28-.61.55a3,3,0,0,0-.21,2A13.41,13.41,0,0,0,63,51c.16.45.11.64-.34.83a3.48,3.48,0,0,1-3.6-.89,9,9,0,0,1-1.52-2.56L57,47.17Zm4.51-1.71a1,1,0,0,0,.9.66.85.85,0,0,0,.9-.42Z" transform="translate(-45 -27.1)"/><path d="M67,34.92a1.76,1.76,0,0,1,1.66,1.32A1.55,1.55,0,0,1,67.87,38a.69.69,0,0,1-1-.09c-.38-.34-.8-.65-1.18-1a.75.75,0,0,1-.27-.47A1.66,1.66,0,0,1,67,34.92Z" transform="translate(-45 -27.1)"/><path d="M66.27,42.19a5.55,5.55,0,0,1-.21.68.86.86,0,0,1-.87.55,1.19,1.19,0,0,1-.72-.49,2.93,2.93,0,0,1-.57-1.21,1.54,1.54,0,0,1,.38-1,1,1,0,0,1,.76-.29C65.77,40.52,66.24,41.26,66.27,42.19Z" transform="translate(-45 -27.1)"/><path d="M59.37,41.57a1.83,1.83,0,0,1,1.28-1.69.8.8,0,0,1,1,.39,1.16,1.16,0,0,1-.1,1.48c-.13.16-.25.34-.38.5a1,1,0,0,1-1.17.43A1.14,1.14,0,0,1,59.37,41.57Z" transform="translate(-45 -27.1)"/><path d="M62.39,44.81c-.26-.17-.55-.33-.83-.52-.09-.06-.22-.18-.21-.26s.14-.27.22-.26c.58,0,1.16.09,1.73.17.08,0,.19.22.19.33s-.15.19-.25.23C63,44.63,62.66,44.71,62.39,44.81Z" transform="translate(-45 -27.1)"/><path class="cls-2" d="M61.37,45.49l1.8.24a.85.85,0,0,1-.9.42A1,1,0,0,1,61.37,45.49Z" transform="translate(-45 -27.1)"/></svg>